<svg width="132" height="32" viewBox="0 0 132 32" fill="none" xmlns="http://www.w3.org/2000/svg">
<path d="M11.1315 3.38858V6.77716H11.3319C12.1009 6.77716 13.2766 6.98343 14.0486 7.25451C14.1871 7.30166 14.358 7.36059 14.4287 7.38711C14.5024 7.41068 14.6762 7.4814 14.8177 7.54328C16.8066 8.41842 18.3889 9.92118 19.3849 11.8748C19.5882 12.2755 19.877 12.9945 19.9713 13.3481C20.0007 13.4541 20.0449 13.6133 20.0685 13.7017C20.3632 14.7801 20.4339 16.2534 20.2482 17.3996C20.1657 17.9241 20.1333 18.0685 19.9772 18.6372C19.8681 19.0291 19.5558 19.8129 19.3436 20.2107C18.4891 21.8313 17.2575 23.119 15.7134 24.0059C14.358 24.7867 12.7403 25.2199 11.1904 25.2199C10.4567 25.2199 9.87035 25.0873 9.2221 24.775C8.15838 24.2652 7.35396 23.337 6.97679 22.1878C6.69687 21.3422 6.70276 20.2873 6.99153 19.4328C7.0593 19.2295 7.28324 18.758 7.39816 18.5783C8.1849 17.3289 9.39889 16.5982 10.8751 16.4862L11.1315 16.4656L11.1256 13.0888L11.1168 9.70902L10.7632 9.71786C10.2534 9.7267 9.25156 9.84162 8.89208 9.93002C8.83609 9.94475 8.67108 9.98306 8.52375 10.0184C5.79226 10.6608 3.36427 12.3757 1.78784 14.7772C1.47256 15.2545 1.03941 16.0825 0.806628 16.6482C0.234989 18.0361 -0.041991 19.6007 0.00515453 21.1713C0.0346205 22.1937 0.140698 22.8862 0.435357 23.9705C0.641619 24.7366 1.10423 25.8004 1.5639 26.5635C2.39779 27.9514 3.57642 29.1978 4.89355 30.0818C5.4151 30.4324 6.21068 30.8715 6.6674 31.063C6.73223 31.0895 6.85304 31.1425 6.93259 31.175C7.20663 31.2928 8.10828 31.5816 8.47956 31.6729C9.33407 31.8792 10.3389 32 11.1875 32C11.5293 32 12.6991 31.9293 12.87 31.8969C12.9112 31.891 13.0703 31.8703 13.2236 31.8527C13.9425 31.7672 14.6497 31.6199 15.684 31.337C16.0847 31.2309 16.9009 30.9304 17.4667 30.6888C18.7013 30.1554 19.8711 29.463 21.0026 28.5878C21.9337 27.8718 23.1477 26.6313 23.9374 25.5912C24.5532 24.7808 25.2663 23.5816 25.6847 22.6475C25.7201 22.5738 25.7731 22.456 25.8026 22.3853C26.7661 20.2431 27.2582 17.4762 27.102 15.0807C27.0608 14.4442 26.9341 13.351 26.8781 13.1654C26.8692 13.1389 26.8516 13.0475 26.8368 12.9591C26.7779 12.6144 26.6188 11.9455 26.4803 11.477C25.9028 9.52339 24.8921 7.59042 23.6133 5.99632C21.9573 3.93959 19.8033 2.30718 17.3635 1.26703C16.4678 0.886925 15.1948 0.492079 14.3138 0.32707C14.2077 0.306444 14.0633 0.276978 13.9897 0.265192C13.3621 0.138489 11.9713 0 11.3466 0H11.1315V3.38858Z" fill="white"/>
<path d="M129.154 10.8667C127.794 10.8667 126.807 9.88001 126.807 8.52001C126.807 7.16001 127.794 6.17334 129.154 6.17334C130.514 6.17334 131.501 7.16001 131.501 8.52001C131.501 9.88001 130.514 10.8667 129.154 10.8667ZM127.341 25.48V12.3067H130.941V25.48H127.341Z" fill="white"/>
<path d="M116.61 25.8266C113.57 25.8266 110.157 23.5866 110.157 19.0533C110.157 14.8133 113.09 11.96 117.277 11.96C121.41 11.96 124.29 14.7333 124.29 19.0266V25.48H120.983V23.1066C120.237 24.8933 118.61 25.8266 116.61 25.8266ZM117.25 22.4666C119.303 22.4666 120.69 21 120.69 18.8933C120.69 16.7866 119.303 15.32 117.25 15.32C115.197 15.32 113.81 16.7866 113.81 18.8933C113.81 21 115.197 22.4666 117.25 22.4666Z" fill="white"/>
<path d="M106.236 25.8266C104.876 25.8266 103.889 24.8133 103.889 23.48C103.889 22.1466 104.876 21.1333 106.236 21.1333C107.569 21.1333 108.556 22.1466 108.556 23.48C108.556 24.8133 107.569 25.8266 106.236 25.8266Z" fill="white"/>
<path d="M95.2708 25.8266C91.1108 25.8266 88.1775 22.8933 88.1775 18.8933C88.1775 14.8933 91.1108 11.96 95.2708 11.96C99.4308 11.96 102.284 14.8933 102.284 18.8933V20.0133H91.9375C92.3108 21.7466 93.6175 22.6 95.2708 22.6C96.5508 22.6 97.4842 22.28 98.0708 21.48H101.857C100.924 24.0933 98.4708 25.8266 95.2708 25.8266ZM92.0175 17.48H98.5508C98.0708 15.9333 96.8175 15.1866 95.2708 15.1866C93.6975 15.1866 92.4708 15.96 92.0175 17.48Z" fill="white"/>
<path d="M74.3804 25.48V22.4933L81.4737 15.4533H74.7804V12.3066H86.247V15.2933L79.1804 22.3333H86.5137V25.48H74.3804Z" fill="white"/>
<path d="M68.0437 25.48V6.54663H71.6437V25.48H68.0437Z" fill="white"/>
<path d="M58.4478 25.8266C54.2878 25.8266 51.3545 22.8933 51.3545 18.8933C51.3545 14.8933 54.2878 11.96 58.4478 11.96C62.6078 11.96 65.5412 14.8933 65.5412 18.8933C65.5412 22.8933 62.6078 25.8266 58.4478 25.8266ZM58.4478 22.4666C60.5012 22.4666 61.8878 21 61.8878 18.8933C61.8878 16.7866 60.5012 15.32 58.4478 15.32C56.3945 15.32 55.0078 16.7866 55.0078 18.8933C55.0078 21 56.3945 22.4666 58.4478 22.4666Z" fill="white"/>
<path d="M42.2506 25.8266C38.0639 25.8266 35.1306 22.9733 35.1306 18.7333C35.1306 14.2 38.5173 11.96 41.6106 11.96C43.3439 11.96 44.7839 12.6533 45.6639 13.9866V6.54663H49.2639V18.76C49.2639 23.1333 46.3306 25.8266 42.2506 25.8266ZM42.2239 22.4666C44.2773 22.4666 45.6639 21 45.6639 18.8933C45.6639 16.7866 44.2773 15.32 42.2239 15.32C40.1706 15.32 38.7839 16.7866 38.7839 18.8933C38.7839 21 40.1706 22.4666 42.2239 22.4666Z" fill="white"/>
</svg>
