<svg width="57" height="56" viewBox="0 0 57 56" fill="none" xmlns="http://www.w3.org/2000/svg">
<rect x="0.332764" width="56" height="56" rx="28" fill="white"/>
<path d="M22.3328 37.5118C22.3328 36.0904 22.4844 34.8424 22.7878 33.7678C23.0998 32.6844 23.5331 31.7354 24.0878 30.9208C24.6424 30.0974 25.2968 29.3781 26.0508 28.7628C26.8048 28.1388 27.6281 27.5798 28.5208 27.0858C28.9021 26.8691 29.2661 26.6438 29.6128 26.4098C29.9594 26.1671 30.2411 25.8941 30.4578 25.5908C30.6744 25.2874 30.7828 24.9364 30.7828 24.5378C30.7828 23.9918 30.6138 23.5801 30.2758 23.3028C29.9464 23.0168 29.5088 22.8738 28.9628 22.8738C28.3908 22.8738 27.8751 23.0298 27.4158 23.3418C26.9564 23.6451 26.5708 24.0784 26.2588 24.6418L22.6188 22.9778C23.1908 21.7298 24.0488 20.7548 25.1928 20.0528C26.3368 19.3508 27.5588 18.9998 28.8588 18.9998C30.1241 18.9998 31.1988 19.2468 32.0828 19.7408C32.9754 20.2261 33.6514 20.8761 34.1108 21.6908C34.5788 22.5054 34.8128 23.4024 34.8128 24.3818C34.8128 25.4304 34.6524 26.3014 34.3318 26.9948C34.0111 27.6881 33.5691 28.2818 33.0058 28.7758C32.4424 29.2611 31.7968 29.7204 31.0688 30.1538C30.2541 30.6391 29.5911 31.0594 29.0798 31.4148C28.5771 31.7614 28.1741 32.1038 27.8708 32.4418C27.5674 32.7711 27.3161 33.1524 27.1168 33.5858H34.9688V37.5118H22.3328Z" fill="#6941C7"/>
</svg>
