<svg width="57" height="56" viewBox="0 0 57 56" fill="none" xmlns="http://www.w3.org/2000/svg">
<rect x="0.66748" width="56" height="56" rx="28" fill="white"/>
<path d="M29.2715 37.8238C27.7288 37.8238 26.3768 37.4468 25.2155 36.6928C24.0541 35.9301 23.2048 34.8684 22.6675 33.5078L26.3075 32.0258C27.0615 33.3084 28.0495 33.9498 29.2715 33.9498C29.9388 33.9498 30.4631 33.7851 30.8445 33.4558C31.2345 33.1178 31.4295 32.6584 31.4295 32.0778C31.4295 31.5838 31.2128 31.1808 30.7795 30.8688C30.3548 30.5481 29.8088 30.3878 29.1415 30.3878H27.0875V26.4618H29.1415C29.6875 26.4618 30.1078 26.2971 30.4025 25.9678C30.7058 25.6298 30.8575 25.1704 30.8575 24.5898C30.8575 24.0958 30.6928 23.6884 30.3635 23.3678C30.0341 23.0384 29.6095 22.8738 29.0895 22.8738C28.6388 22.8738 28.2271 22.9908 27.8545 23.2248C27.4905 23.4501 27.1655 23.7924 26.8795 24.2518L23.2135 22.8218C23.8375 21.5998 24.6608 20.6594 25.6835 20.0008C26.7148 19.3334 27.8675 18.9998 29.1415 18.9998C30.2855 18.9998 31.2865 19.2208 32.1445 19.6628C33.0111 20.0961 33.6828 20.7071 34.1595 21.4958C34.6448 22.2844 34.8875 23.2031 34.8875 24.2518C34.8875 25.0838 34.7055 25.8464 34.3415 26.5398C33.9775 27.2331 33.4575 27.8138 32.7815 28.2818C33.5875 28.6024 34.2331 29.1658 34.7185 29.9718C35.2125 30.7778 35.4595 31.6878 35.4595 32.7018C35.4595 33.6984 35.1951 34.5824 34.6665 35.3538C34.1378 36.1251 33.4055 36.7318 32.4695 37.1738C31.5421 37.6071 30.4761 37.8238 29.2715 37.8238Z" fill="#6941C7"/>
</svg>
