<svg width="388" height="388" viewBox="0 0 388 388" fill="none" xmlns="http://www.w3.org/2000/svg">
<g clip-path="url(#clip0_386_9504)">
<rect x="48.7383" y="89.8191" width="57.3988" height="57.3988" rx="28.6994" transform="rotate(7.89511 48.7383 89.8191)" fill="white"/>
<path d="M72.7703 109.28L72.3006 112.666L72.5009 112.694C73.2695 112.801 74.4159 113.17 75.1498 113.548C75.2817 113.614 75.4444 113.697 75.5114 113.733C75.5817 113.767 75.7457 113.861 75.8784 113.943C77.7449 115.093 79.118 116.814 79.8426 118.905C79.9902 119.333 80.1792 120.092 80.2244 120.458C80.2392 120.569 80.2613 120.734 80.2726 120.825C80.4176 121.944 80.2841 123.426 79.9397 124.546C79.7846 125.059 79.7322 125.198 79.4973 125.745C79.334 126.122 78.9132 126.862 78.6461 127.23C77.5675 128.731 76.1581 129.847 74.4921 130.52C73.0292 131.112 71.3525 131.321 69.8035 131.106C69.0703 131.004 68.5026 130.791 67.8981 130.389C66.9056 129.732 66.2303 128.693 66.0127 127.492C65.8501 126.608 66.0022 125.555 66.4092 124.741C66.5051 124.547 66.7943 124.107 66.934 123.943C67.8934 122.803 69.208 122.241 70.6988 122.334L70.9579 122.349L71.42 118.973L71.8796 115.594L71.525 115.554C71.0143 115.492 69.9971 115.468 69.6256 115.507C69.5676 115.514 69.3974 115.529 69.2453 115.544C66.4264 115.808 63.7622 117.185 61.8539 119.367C61.4726 119.8 60.925 120.567 60.6139 121.101C59.8503 122.408 59.3566 123.934 59.1861 125.51C59.0738 126.536 59.0839 127.242 59.2281 128.367C59.328 129.161 59.643 130.288 59.9966 131.115C60.6376 132.617 61.6428 134.026 62.8366 135.092C63.3093 135.515 64.0435 136.064 64.4734 136.319C64.5345 136.354 64.6479 136.424 64.7229 136.468C64.9805 136.623 65.8416 137.037 66.2 137.18C67.0254 137.504 68.0128 137.764 68.8609 137.882C69.2025 137.929 70.3814 138.021 70.5567 138.012C70.5988 138.012 70.7606 138.013 70.9162 138.017C71.6466 138.031 72.3738 137.982 73.4466 137.842C73.8618 137.792 74.7192 137.605 75.3181 137.442C76.6259 137.08 77.8909 136.55 79.143 135.832C80.1728 135.245 81.558 134.174 82.4914 133.244C83.2191 132.519 84.098 131.42 84.6456 130.544C84.6912 130.475 84.7605 130.365 84.7997 130.298C86.0596 128.291 86.9348 125.594 87.1108 123.178C87.1577 122.536 87.1826 121.426 87.1524 121.233C87.1472 121.205 87.1422 121.112 87.1398 121.021C87.1286 120.669 87.0623 119.978 86.9889 119.491C86.6824 117.458 85.9402 115.386 84.8831 113.616C83.5132 111.331 81.5867 109.401 79.2926 108.023C78.45 107.519 77.2326 106.948 76.375 106.661C76.2718 106.626 76.1316 106.576 76.0596 106.554C75.4499 106.341 74.0792 106.01 73.4549 105.923L73.2399 105.893L72.7703 109.28Z" fill="#6941C7"/>
<g filter="url(#filter0_d_386_9504)">
<rect x="121.445" y="96.6355" width="359.303" height="315.778" rx="11.406" transform="rotate(5.35606 121.445 96.6355)" fill="white"/>
<rect x="120.802" y="95.8592" width="360.729" height="317.204" rx="12.1189" transform="rotate(5.35606 120.802 95.8592)" stroke="#3D3D3D" stroke-opacity="0.1" stroke-width="1.42576"/>
<path d="M382.894 227.842C381.708 227.731 380.805 227.32 380.184 226.61C379.57 225.894 379.316 224.974 379.422 223.853C379.489 223.128 379.719 222.513 380.11 222.005C380.502 221.497 381.02 221.127 381.665 220.894C382.318 220.654 383.063 220.573 383.901 220.652C384.412 220.7 384.89 220.798 385.334 220.947C385.786 221.097 386.193 221.297 386.557 221.546L386.626 220.811C386.698 220.044 386.566 219.462 386.231 219.065C385.896 218.662 385.349 218.424 384.589 218.353C384.064 218.304 383.512 218.348 382.933 218.488C382.361 218.627 381.8 218.847 381.249 219.146L380.794 217.352C381.404 217.03 382.078 216.799 382.814 216.661C383.558 216.516 384.289 216.477 385.006 216.544C386.355 216.67 387.332 217.099 387.937 217.829C388.549 218.559 388.792 219.588 388.668 220.916L387.998 228.063L385.964 227.872L386.054 226.913C385.612 227.266 385.119 227.524 384.574 227.688C384.029 227.844 383.469 227.896 382.894 227.842ZM383.449 226.046C383.932 226.091 384.414 226.025 384.896 225.849C385.386 225.665 385.831 225.388 386.231 225.018L386.389 223.335C386.067 223.104 385.695 222.912 385.272 222.757C384.85 222.603 384.44 222.507 384.042 222.47C383.289 222.4 382.681 222.507 382.218 222.793C381.754 223.072 381.497 223.492 381.444 224.053C381.392 224.607 381.543 225.061 381.896 225.417C382.25 225.772 382.767 225.982 383.449 226.046Z" fill="#212735"/>
<path d="M372.509 226.868C371.494 226.773 370.639 226.449 369.946 225.897C369.26 225.346 368.759 224.622 368.441 223.726C368.131 222.83 368.029 221.821 368.134 220.699C368.246 219.506 368.544 218.506 369.028 217.699C369.52 216.886 370.152 216.29 370.925 215.911C371.706 215.526 372.59 215.38 373.577 215.472C374.415 215.551 375.161 215.807 375.815 216.241C376.477 216.668 376.978 217.284 377.318 218.09C377.666 218.889 377.783 219.885 377.672 221.078C377.656 221.248 377.629 221.453 377.592 221.693C377.563 221.927 377.523 222.167 377.471 222.413L370.197 221.731C370.197 222.339 370.293 222.886 370.484 223.369C370.683 223.846 370.969 224.231 371.343 224.524C371.716 224.817 372.173 224.989 372.713 225.039C373.188 225.084 373.629 225.043 374.035 224.916C374.441 224.782 374.832 224.554 375.206 224.231L376.316 225.678C375.848 226.085 375.292 226.406 374.647 226.639C374.003 226.865 373.29 226.941 372.509 226.868ZM370.352 219.962L375.603 220.454C375.643 219.878 375.583 219.363 375.425 218.912C375.275 218.453 375.026 218.083 374.681 217.8C374.342 217.517 373.91 217.351 373.384 217.302C372.653 217.234 372.003 217.409 371.433 217.828C370.864 218.248 370.504 218.959 370.352 219.962Z" fill="#212735"/>
<path d="M360.295 225.465L361.315 214.581L363.435 214.779L363.309 216.121C363.591 215.632 363.962 215.269 364.421 215.033C364.88 214.797 365.386 214.704 365.94 214.756C366.636 214.822 367.205 215.09 367.648 215.561L367.154 217.502C366.923 217.295 366.68 217.136 366.426 217.026C366.171 216.916 365.891 216.847 365.586 216.818C365.11 216.774 364.686 216.859 364.315 217.075C363.952 217.285 363.653 217.604 363.42 218.033C363.186 218.463 363.04 218.983 362.983 219.593L362.414 225.664L360.295 225.465Z" fill="#212735"/>
<path d="M347.838 224.555C346.823 224.46 345.969 224.137 345.276 223.584C344.59 223.033 344.088 222.309 343.771 221.413C343.461 220.517 343.359 219.508 343.464 218.386C343.576 217.194 343.874 216.194 344.358 215.387C344.849 214.573 345.482 213.977 346.255 213.599C347.036 213.213 347.92 213.067 348.907 213.16C349.745 213.238 350.491 213.494 351.145 213.928C351.807 214.355 352.307 214.972 352.647 215.777C352.995 216.576 353.113 217.572 353.001 218.765C352.985 218.935 352.959 219.141 352.922 219.381C352.893 219.614 352.853 219.854 352.801 220.1L345.527 219.418C345.527 220.027 345.623 220.573 345.814 221.056C346.012 221.533 346.299 221.918 346.672 222.211C347.046 222.504 347.503 222.676 348.042 222.726C348.518 222.771 348.959 222.73 349.364 222.603C349.771 222.47 350.161 222.241 350.535 221.918L351.646 223.365C351.178 223.773 350.621 224.093 349.976 224.326C349.332 224.552 348.619 224.629 347.838 224.555ZM345.682 217.649L350.932 218.141C350.972 217.565 350.913 217.051 350.755 216.599C350.604 216.141 350.356 215.77 350.01 215.487C349.671 215.204 349.239 215.039 348.714 214.989C347.982 214.921 347.332 215.096 346.763 215.516C346.193 215.935 345.833 216.646 345.682 217.649Z" fill="#212735"/>
<path d="M335.624 223.152L336.645 212.268L338.764 212.466L338.638 213.808C338.921 213.319 339.291 212.956 339.75 212.72C340.209 212.484 340.716 212.391 341.27 212.443C341.965 212.509 342.535 212.777 342.978 213.248L342.484 215.189C342.253 214.982 342.01 214.823 341.755 214.713C341.5 214.603 341.22 214.534 340.915 214.505C340.439 214.461 340.016 214.546 339.645 214.762C339.281 214.972 338.983 215.291 338.749 215.72C338.516 216.15 338.37 216.67 338.313 217.28L337.744 223.351L335.624 223.152Z" fill="#212735"/>
<path d="M327.125 222.613C325.94 222.502 325.036 222.092 324.415 221.382C323.802 220.665 323.548 219.746 323.653 218.624C323.721 217.9 323.95 217.284 324.342 216.776C324.733 216.269 325.252 215.898 325.897 215.665C326.549 215.425 327.295 215.345 328.132 215.423C328.644 215.471 329.121 215.57 329.566 215.719C330.017 215.869 330.425 216.068 330.788 216.317L330.857 215.582C330.929 214.815 330.797 214.234 330.462 213.837C330.128 213.433 329.58 213.196 328.821 213.124C328.295 213.075 327.743 213.12 327.164 213.259C326.592 213.399 326.031 213.618 325.48 213.918L325.025 212.124C325.636 211.801 326.309 211.571 327.045 211.432C327.79 211.287 328.52 211.248 329.237 211.315C330.586 211.442 331.563 211.87 332.168 212.6C332.78 213.331 333.024 214.36 332.899 215.688L332.229 222.834L330.195 222.643L330.285 221.685C329.844 222.037 329.35 222.296 328.805 222.459C328.26 222.616 327.7 222.667 327.125 222.613ZM327.68 220.817C328.163 220.863 328.646 220.797 329.128 220.62C329.618 220.437 330.063 220.16 330.463 219.789L330.621 218.106C330.298 217.876 329.926 217.683 329.504 217.529C329.081 217.375 328.671 217.279 328.274 217.242C327.521 217.171 326.913 217.279 326.449 217.565C325.986 217.844 325.728 218.264 325.676 218.825C325.624 219.378 325.774 219.833 326.128 220.188C326.481 220.544 326.999 220.754 327.68 220.817Z" fill="#212735"/>
<path d="M312.006 221.196C311.211 221.121 310.464 220.879 309.764 220.47C309.072 220.061 308.526 219.548 308.125 218.93L309.712 217.822C310.05 218.262 310.443 218.618 310.89 218.889C311.338 219.153 311.786 219.306 312.233 219.348C312.844 219.405 313.326 219.339 313.681 219.15C314.036 218.954 314.232 218.658 314.269 218.26C314.293 218.004 314.237 217.766 314.1 217.546C313.971 217.319 313.734 217.093 313.39 216.867C313.046 216.634 312.576 216.375 311.98 216.09C310.815 215.53 309.997 214.966 309.528 214.399C309.059 213.825 308.861 213.144 308.935 212.356C309.016 211.49 309.43 210.819 310.176 210.345C310.923 209.871 311.85 209.685 312.957 209.789C313.724 209.861 314.414 210.072 315.025 210.423C315.638 210.767 316.149 211.234 316.559 211.824L315.011 212.872C314.428 212.137 313.678 211.726 312.762 211.64C312.244 211.592 311.823 211.652 311.499 211.823C311.176 211.986 310.998 212.238 310.966 212.578C310.935 212.912 311.082 213.22 311.406 213.501C311.731 213.782 312.339 214.133 313.231 214.553C314 214.904 314.617 215.27 315.083 215.65C315.556 216.031 315.886 216.449 316.072 216.904C316.267 217.351 316.338 217.856 316.285 218.417C316.193 219.397 315.766 220.134 315.003 220.628C314.248 221.123 313.249 221.312 312.006 221.196Z" fill="#212735"/>
<path d="M303.784 220.425C303.003 220.352 302.428 220.068 302.058 219.575C301.697 219.076 301.557 218.39 301.639 217.516L302.258 210.913L300.554 210.753L300.728 208.9L302.432 209.06L302.757 205.588L304.973 204.764L304.551 209.259L307.161 209.503L306.987 211.356L304.378 211.112L303.811 217.15C303.769 217.605 303.819 217.946 303.962 218.175C304.113 218.404 304.366 218.535 304.721 218.568C305.232 218.616 305.803 218.487 306.433 218.181L306.002 220.139C305.66 220.278 305.307 220.371 304.945 220.415C304.583 220.46 304.196 220.463 303.784 220.425Z" fill="#212735"/>
<path d="M294.138 219.521C293.343 219.446 292.596 219.204 291.896 218.795C291.204 218.386 290.658 217.873 290.257 217.255L291.844 216.147C292.182 216.587 292.575 216.942 293.022 217.213C293.47 217.478 293.918 217.631 294.365 217.672C294.976 217.73 295.458 217.664 295.812 217.475C296.167 217.279 296.364 216.982 296.401 216.585C296.425 216.329 296.368 216.091 296.232 215.871C296.102 215.644 295.866 215.417 295.522 215.192C295.178 214.959 294.708 214.7 294.112 214.415C292.947 213.854 292.129 213.291 291.66 212.724C291.19 212.15 290.993 211.469 291.067 210.681C291.148 209.814 291.562 209.144 292.308 208.67C293.055 208.195 293.982 208.01 295.089 208.114C295.856 208.186 296.545 208.397 297.157 208.748C297.77 209.092 298.281 209.559 298.691 210.149L297.142 211.196C296.56 210.461 295.81 210.051 294.894 209.965C294.376 209.916 293.955 209.977 293.631 210.147C293.308 210.31 293.13 210.562 293.098 210.903C293.067 211.237 293.213 211.544 293.538 211.825C293.863 212.107 294.471 212.457 295.363 212.877C296.132 213.229 296.749 213.595 297.215 213.975C297.688 214.356 298.018 214.774 298.204 215.228C298.398 215.676 298.469 216.181 298.417 216.742C298.325 217.721 297.898 218.458 297.135 218.953C296.38 219.448 295.381 219.637 294.138 219.521Z" fill="#212735"/>
<path d="M283.322 218.507C281.817 218.366 280.679 217.747 279.908 216.65C279.137 215.546 278.834 214.118 278.999 212.364C279.109 211.193 279.399 210.199 279.869 209.384C280.347 208.569 280.969 207.965 281.737 207.571C282.512 207.171 283.396 207.018 284.39 207.111C285.392 207.205 286.233 207.516 286.914 208.046C287.602 208.569 288.102 209.275 288.413 210.163C288.723 211.052 288.824 212.082 288.714 213.253C288.603 214.432 288.309 215.429 287.832 216.243C287.361 217.059 286.742 217.663 285.975 218.057C285.207 218.451 284.323 218.6 283.322 218.507ZM283.51 216.504C284.362 216.584 285.056 216.32 285.593 215.711C286.137 215.103 286.464 214.217 286.573 213.053C286.682 211.888 286.526 210.957 286.104 210.258C285.69 209.561 285.057 209.172 284.205 209.092C283.353 209.012 282.655 209.276 282.111 209.884C281.574 210.493 281.25 211.386 281.139 212.565C281.031 213.722 281.184 214.65 281.598 215.347C282.021 216.039 282.658 216.424 283.51 216.504Z" fill="#212735"/>
<path d="M266.304 221.015L267.73 205.807L269.849 206.005L269.767 206.879C270.555 206.193 271.478 205.9 272.536 205.999C273.459 206.086 274.232 206.391 274.857 206.915C275.488 207.44 275.945 208.145 276.227 209.031C276.516 209.918 276.606 210.944 276.497 212.108C276.389 213.265 276.106 214.256 275.649 215.08C275.2 215.897 274.616 216.509 273.898 216.914C273.179 217.319 272.366 217.479 271.457 217.394C270.903 217.342 270.415 217.196 269.994 216.956C269.572 216.716 269.214 216.374 268.919 215.931L268.515 220.234L266.304 221.015ZM271.357 215.365C272.209 215.445 272.892 215.187 273.406 214.59C273.921 213.987 274.235 213.092 274.346 211.906C274.454 210.756 274.301 209.828 273.887 209.124C273.473 208.419 272.861 208.028 272.052 207.952C271.534 207.904 271.061 207.974 270.635 208.163C270.217 208.346 269.861 208.635 269.566 209.03L269.114 213.844C269.387 214.299 269.712 214.656 270.089 214.913C270.473 215.171 270.895 215.322 271.357 215.365Z" fill="#212735"/>
<path d="M253.322 215.694C252.137 215.583 251.233 215.172 250.612 214.462C249.999 213.746 249.745 212.827 249.85 211.705C249.918 210.981 250.148 210.365 250.539 209.857C250.93 209.349 251.449 208.979 252.094 208.746C252.746 208.506 253.492 208.425 254.329 208.504C254.841 208.552 255.318 208.65 255.763 208.8C256.214 208.949 256.622 209.149 256.985 209.398L257.054 208.663C257.126 207.896 256.994 207.314 256.659 206.917C256.325 206.514 255.777 206.276 255.018 206.205C254.492 206.156 253.94 206.201 253.361 206.34C252.789 206.479 252.228 206.699 251.677 206.998L251.222 205.204C251.833 204.882 252.506 204.651 253.242 204.513C253.987 204.368 254.717 204.329 255.434 204.396C256.783 204.522 257.76 204.951 258.365 205.681C258.977 206.411 259.221 207.441 259.096 208.768L258.426 215.915L256.392 215.724L256.482 214.765C256.041 215.118 255.547 215.376 255.002 215.54C254.457 215.696 253.897 215.748 253.322 215.694ZM253.877 213.898C254.36 213.943 254.843 213.878 255.325 213.701C255.815 213.517 256.26 213.24 256.66 212.87L256.818 211.187C256.495 210.956 256.123 210.764 255.701 210.609C255.278 210.455 254.868 210.359 254.471 210.322C253.718 210.252 253.11 210.359 252.646 210.645C252.183 210.924 251.925 211.344 251.873 211.905C251.821 212.459 251.971 212.914 252.325 213.269C252.678 213.624 253.196 213.834 253.877 213.898Z" fill="#212735"/>
<path d="M244.577 214.616L245.598 203.732L247.717 203.93L246.697 214.815L244.577 214.616ZM246.819 202.052C246.464 202.019 246.17 201.866 245.938 201.593C245.713 201.314 245.618 200.998 245.651 200.643C245.685 200.28 245.838 199.983 246.111 199.751C246.383 199.519 246.7 199.419 247.063 199.453C247.432 199.488 247.729 199.645 247.953 199.924C248.178 200.203 248.273 200.523 248.239 200.885C248.205 201.247 248.052 201.541 247.78 201.766C247.509 201.991 247.188 202.087 246.819 202.052Z" fill="#212735"/>
<path d="M236.313 214.099C234.928 213.969 233.882 213.359 233.175 212.269C232.469 211.171 232.198 209.738 232.364 207.97C232.473 206.813 232.751 205.826 233.2 205.008C233.65 204.191 234.229 203.583 234.94 203.184C235.659 202.778 236.476 202.618 237.392 202.704C238.428 202.802 239.273 203.228 239.925 203.984L240.328 199.692L242.539 198.911L241.097 214.29L238.978 214.091L239.059 213.229C238.336 213.913 237.42 214.203 236.313 214.099ZM236.82 212.127C237.31 212.173 237.764 212.104 238.182 211.922C238.601 211.732 238.961 211.439 239.263 211.045L239.72 206.178C239.493 205.77 239.184 205.437 238.793 205.178C238.409 204.913 237.983 204.758 237.515 204.714C236.663 204.634 235.976 204.892 235.455 205.488C234.933 206.084 234.617 206.978 234.505 208.171C234.435 208.916 234.484 209.58 234.651 210.162C234.819 210.736 235.088 211.195 235.457 211.537C235.826 211.88 236.28 212.076 236.82 212.127Z" fill="#212735"/>
<path d="M224.757 213.016C223.742 212.921 222.888 212.597 222.194 212.045C221.508 211.494 221.007 210.77 220.69 209.873C220.38 208.978 220.277 207.969 220.383 206.847C220.494 205.654 220.792 204.654 221.276 203.847C221.768 203.034 222.4 202.438 223.174 202.059C223.955 201.674 224.839 201.527 225.826 201.62C226.663 201.699 227.409 201.955 228.063 202.388C228.725 202.816 229.226 203.432 229.566 204.238C229.914 205.037 230.032 206.033 229.92 207.225C229.904 207.396 229.878 207.601 229.841 207.841C229.812 208.075 229.771 208.314 229.72 208.56L222.445 207.878C222.446 208.487 222.541 209.033 222.732 209.517C222.931 209.994 223.217 210.379 223.591 210.672C223.965 210.965 224.421 211.136 224.961 211.187C225.437 211.232 225.877 211.19 226.283 211.064C226.69 210.93 227.08 210.702 227.454 210.379L228.565 211.826C228.097 212.233 227.54 212.553 226.895 212.786C226.251 213.013 225.538 213.089 224.757 213.016ZM222.6 206.109L227.851 206.602C227.891 206.025 227.832 205.511 227.673 205.059C227.523 204.601 227.275 204.231 226.929 203.947C226.59 203.665 226.158 203.499 225.633 203.45C224.901 203.381 224.251 203.557 223.682 203.976C223.112 204.395 222.752 205.106 222.6 206.109Z" fill="#212735"/>
<path d="M201.997 210.624L203.017 199.739L205.136 199.938L205.041 200.961C205.407 200.565 205.835 200.283 206.323 200.114C206.819 199.946 207.361 199.889 207.951 199.944C208.59 200.004 209.145 200.196 209.616 200.519C210.088 200.836 210.435 201.259 210.657 201.788C211.052 201.317 211.54 200.972 212.119 200.754C212.698 200.529 213.333 200.449 214.021 200.513C215.243 200.628 216.164 201.079 216.785 201.868C217.406 202.65 217.657 203.683 217.536 204.969L216.875 212.019L214.756 211.82L215.355 205.43C215.44 204.521 215.327 203.816 215.016 203.314C214.712 202.813 214.223 202.531 213.548 202.467C213.094 202.425 212.689 202.501 212.334 202.697C211.987 202.887 211.704 203.186 211.487 203.596C211.27 203.998 211.135 204.487 211.081 205.062L210.485 211.42L208.365 211.221L208.965 204.831C209.051 203.908 208.946 203.2 208.648 202.706C208.351 202.213 207.857 201.934 207.169 201.869C206.473 201.804 205.911 201.991 205.483 202.431C205.055 202.871 204.8 203.527 204.718 204.401L204.116 210.823L201.997 210.624Z" fill="#212735"/>
<path d="M191.203 209.612L192.553 195.213L194.764 194.432L193.323 209.811L191.203 209.612Z" fill="#212735"/>
<path d="M182.827 209.085C181.641 208.974 180.738 208.563 180.117 207.853C179.503 207.137 179.249 206.217 179.354 205.096C179.422 204.371 179.652 203.755 180.043 203.248C180.435 202.74 180.953 202.37 181.598 202.136C182.251 201.897 182.996 201.816 183.834 201.895C184.345 201.943 184.823 202.041 185.267 202.19C185.719 202.34 186.126 202.54 186.49 202.789L186.559 202.054C186.631 201.287 186.499 200.705 186.164 200.308C185.829 199.904 185.282 199.667 184.522 199.596C183.997 199.546 183.445 199.591 182.866 199.731C182.294 199.87 181.733 200.09 181.182 200.389L180.727 198.595C181.337 198.273 182.01 198.042 182.747 197.904C183.491 197.759 184.222 197.72 184.939 197.787C186.288 197.913 187.265 198.342 187.87 199.072C188.482 199.802 188.725 200.831 188.601 202.159L187.931 209.305L185.897 209.115L185.986 208.156C185.545 208.509 185.052 208.767 184.506 208.931C183.962 209.087 183.402 209.139 182.827 209.085ZM183.382 207.289C183.865 207.334 184.347 207.268 184.829 207.092C185.319 206.908 185.764 206.631 186.164 206.26L186.322 204.578C186 204.347 185.627 204.155 185.205 204C184.783 203.846 184.373 203.75 183.975 203.713C183.222 203.643 182.614 203.75 182.15 204.036C181.687 204.315 181.43 204.735 181.377 205.296C181.325 205.85 181.476 206.304 181.829 206.66C182.183 207.015 182.7 207.225 183.382 207.289Z" fill="#212735"/>
<path d="M174.082 208.007L175.102 197.122L177.222 197.321L176.201 208.206L174.082 208.007ZM176.323 195.443C175.968 195.409 175.675 195.256 175.442 194.984C175.218 194.705 175.122 194.388 175.156 194.033C175.189 193.671 175.343 193.374 175.615 193.142C175.888 192.909 176.205 192.81 176.567 192.844C176.936 192.879 177.233 193.035 177.458 193.314C177.682 193.593 177.777 193.914 177.744 194.276C177.71 194.638 177.557 194.932 177.285 195.157C177.013 195.382 176.693 195.477 176.323 195.443Z" fill="#212735"/>
<path d="M167.11 207.611C166.152 207.521 165.346 207.217 164.693 206.697C164.047 206.171 163.576 205.468 163.279 204.587C162.989 203.701 162.9 202.668 163.01 201.49C163.121 200.311 163.404 199.313 163.86 198.496C164.324 197.68 164.929 197.075 165.675 196.679C166.421 196.283 167.28 196.131 168.253 196.222C169.254 196.316 170.074 196.626 170.712 197.151C171.358 197.677 171.791 198.402 172.013 199.325L169.944 199.84C169.81 199.362 169.584 198.983 169.267 198.703C168.949 198.422 168.556 198.26 168.088 198.216C167.271 198.139 166.609 198.403 166.101 199.007C165.593 199.612 165.284 200.507 165.172 201.692C165.063 202.857 165.199 203.783 165.578 204.47C165.958 205.15 166.546 205.528 167.341 205.602C167.86 205.651 168.316 205.554 168.712 205.312C169.114 205.07 169.417 204.697 169.622 204.194L171.554 205.019C171.179 205.958 170.61 206.65 169.845 207.094C169.08 207.538 168.168 207.71 167.11 207.611Z" fill="#212735"/>
<path d="M155.124 206.487C153.618 206.346 152.48 205.727 151.709 204.631C150.939 203.527 150.636 202.099 150.8 200.345C150.91 199.173 151.2 198.18 151.671 197.364C152.148 196.55 152.771 195.945 153.538 195.552C154.313 195.152 155.198 194.998 156.192 195.092C157.193 195.185 158.034 195.497 158.715 196.026C159.404 196.549 159.903 197.255 160.214 198.144C160.525 199.032 160.625 200.063 160.515 201.234C160.405 202.413 160.111 203.409 159.633 204.224C159.163 205.04 158.544 205.644 157.776 206.038C157.009 206.431 156.125 206.581 155.124 206.487ZM155.311 204.485C156.163 204.565 156.858 204.301 157.395 203.692C157.939 203.084 158.265 202.198 158.375 201.033C158.484 199.869 158.328 198.938 157.906 198.239C157.492 197.541 156.858 197.152 156.006 197.072C155.154 196.993 154.456 197.257 153.912 197.865C153.375 198.473 153.051 199.367 152.941 200.545C152.832 201.703 152.985 202.63 153.4 203.328C153.822 204.02 154.459 204.405 155.311 204.485Z" fill="#212735"/>
<path d="M144.264 205.469C143.469 205.395 142.722 205.153 142.023 204.743C141.33 204.335 140.784 203.822 140.383 203.204L141.97 202.096C142.308 202.536 142.701 202.891 143.149 203.162C143.597 203.426 144.044 203.579 144.491 203.621C145.102 203.678 145.585 203.613 145.939 203.424C146.294 203.228 146.49 202.931 146.527 202.534C146.551 202.278 146.495 202.04 146.358 201.819C146.229 201.592 145.992 201.366 145.648 201.14C145.305 200.908 144.835 200.649 144.238 200.364C143.073 199.803 142.256 199.239 141.786 198.672C141.317 198.098 141.119 197.417 141.193 196.629C141.274 195.763 141.688 195.093 142.435 194.618C143.181 194.144 144.108 193.959 145.216 194.063C145.983 194.134 146.672 194.346 147.284 194.697C147.896 195.041 148.407 195.508 148.818 196.098L147.269 197.145C146.686 196.41 145.937 196 145.021 195.914C144.502 195.865 144.081 195.926 143.757 196.096C143.434 196.259 143.256 196.511 143.224 196.852C143.193 197.186 143.34 197.493 143.664 197.774C143.989 198.055 144.597 198.406 145.489 198.826C146.258 199.178 146.876 199.544 147.341 199.924C147.814 200.305 148.144 200.723 148.331 201.177C148.525 201.625 148.596 202.129 148.543 202.69C148.451 203.67 148.024 204.407 147.262 204.902C146.506 205.397 145.507 205.586 144.264 205.469Z" fill="#212735"/>
<path d="M366.641 194.924L367.989 180.546L370.203 179.744L369.45 187.774L373.147 184.554L375.671 184.79L372.438 187.528L375.758 195.779L373.447 195.562L370.782 188.92L369.218 190.245L368.761 195.123L366.641 194.924Z" fill="#212735"/>
<path d="M359.302 194.494C358.287 194.399 357.433 194.075 356.74 193.523C356.054 192.972 355.552 192.248 355.235 191.352C354.925 190.456 354.823 189.447 354.928 188.325C355.04 187.132 355.337 186.132 355.821 185.325C356.313 184.512 356.946 183.916 357.719 183.537C358.5 183.152 359.384 183.006 360.371 183.098C361.209 183.177 361.954 183.433 362.609 183.867C363.27 184.294 363.771 184.91 364.111 185.716C364.459 186.515 364.577 187.511 364.465 188.704C364.449 188.874 364.423 189.079 364.386 189.319C364.357 189.553 364.316 189.793 364.265 190.039L356.991 189.357C356.991 189.965 357.086 190.512 357.277 190.995C357.476 191.472 357.762 191.857 358.136 192.15C358.51 192.443 358.966 192.615 359.506 192.665C359.982 192.71 360.422 192.669 360.828 192.542C361.235 192.408 361.625 192.18 361.999 191.857L363.11 193.304C362.642 193.711 362.085 194.032 361.44 194.265C360.796 194.491 360.083 194.567 359.302 194.494ZM357.146 187.588L362.396 188.08C362.436 187.503 362.377 186.989 362.219 186.538C362.068 186.079 361.82 185.709 361.474 185.426C361.135 185.143 360.703 184.977 360.178 184.928C359.446 184.86 358.796 185.035 358.227 185.454C357.657 185.874 357.297 186.585 357.146 187.588Z" fill="#212735"/>
<path d="M347.321 193.371C346.306 193.276 345.451 192.952 344.758 192.4C344.072 191.849 343.571 191.125 343.253 190.228C342.944 189.333 342.841 188.324 342.946 187.202C343.058 186.009 343.356 185.009 343.84 184.202C344.332 183.389 344.964 182.793 345.737 182.414C346.518 182.029 347.402 181.882 348.389 181.975C349.227 182.054 349.973 182.31 350.627 182.743C351.289 183.171 351.79 183.787 352.13 184.593C352.478 185.392 352.595 186.388 352.484 187.58C352.468 187.751 352.441 187.956 352.404 188.196C352.375 188.43 352.335 188.669 352.283 188.915L345.009 188.233C345.009 188.842 345.105 189.388 345.296 189.872C345.495 190.349 345.781 190.734 346.155 191.027C346.528 191.32 346.985 191.491 347.525 191.542C348 191.586 348.441 191.545 348.847 191.419C349.253 191.285 349.644 191.057 350.018 190.733L351.128 192.181C350.66 192.588 350.104 192.908 349.459 193.141C348.815 193.368 348.102 193.444 347.321 193.371ZM345.164 186.464L350.415 186.957C350.455 186.38 350.395 185.866 350.237 185.414C350.087 184.956 349.838 184.586 349.493 184.302C349.154 184.02 348.722 183.854 348.196 183.805C347.465 183.736 346.815 183.912 346.245 184.331C345.676 184.75 345.316 185.461 345.164 186.464Z" fill="#212735"/>
<path d="M329.681 191.459L327.836 180.306L329.934 180.503L330.852 187.336C330.883 187.532 330.91 187.746 330.931 187.977C330.953 188.201 330.973 188.411 330.99 188.606C331.044 188.41 331.11 188.205 331.188 187.99C331.265 187.776 331.338 187.575 331.405 187.388L333.875 180.872L335.675 181.041L336.89 187.902C336.928 188.113 336.964 188.335 337 188.568C337.036 188.793 337.066 189.007 337.09 189.21C337.144 189.014 337.199 188.808 337.255 188.592C337.319 188.368 337.386 188.156 337.455 187.955L339.626 181.411L341.724 181.608L337.828 192.223L335.943 192.046L334.716 185.764C334.679 185.546 334.635 185.291 334.584 185C334.532 184.708 334.489 184.446 334.453 184.214C334.382 184.436 334.298 184.686 334.2 184.964C334.103 185.241 334.012 185.483 333.928 185.69L331.576 191.637L329.681 191.459Z" fill="#212735"/>
<path d="M319.65 185.157L319.841 183.123L324.996 183.607L324.805 185.641L319.65 185.157Z" fill="#212735"/>
<path d="M314.998 190.34C314.217 190.267 313.642 189.984 313.273 189.491C312.911 188.991 312.772 188.305 312.853 187.432L313.472 180.829L311.768 180.669L311.942 178.816L313.646 178.975L313.972 175.503L316.187 174.68L315.766 179.174L318.375 179.419L318.201 181.272L315.592 181.027L315.026 187.066C314.983 187.52 315.033 187.862 315.177 188.09C315.327 188.319 315.58 188.45 315.935 188.484C316.446 188.531 317.017 188.402 317.647 188.096L317.217 190.054C316.874 190.194 316.522 190.286 316.159 190.331C315.797 190.376 315.41 190.379 314.998 190.34Z" fill="#212735"/>
<path d="M305.352 189.436C304.557 189.361 303.81 189.119 303.11 188.71C302.418 188.301 301.872 187.788 301.471 187.17L303.058 186.062C303.396 186.502 303.789 186.858 304.236 187.129C304.684 187.393 305.132 187.546 305.579 187.588C306.19 187.645 306.672 187.579 307.027 187.39C307.382 187.194 307.578 186.898 307.615 186.5C307.639 186.244 307.583 186.006 307.446 185.786C307.316 185.559 307.08 185.333 306.736 185.107C306.392 184.874 305.922 184.615 305.326 184.33C304.161 183.77 303.343 183.206 302.874 182.639C302.405 182.065 302.207 181.384 302.281 180.596C302.362 179.73 302.776 179.059 303.522 178.585C304.269 178.111 305.196 177.925 306.303 178.029C307.07 178.101 307.759 178.312 308.371 178.663C308.984 179.007 309.495 179.474 309.905 180.064L308.357 181.112C307.774 180.377 307.024 179.966 306.108 179.88C305.59 179.832 305.169 179.892 304.845 180.063C304.522 180.226 304.344 180.478 304.312 180.818C304.281 181.152 304.427 181.46 304.752 181.741C305.077 182.022 305.685 182.373 306.577 182.793C307.346 183.144 307.963 183.51 308.429 183.89C308.902 184.271 309.232 184.689 309.418 185.144C309.613 185.591 309.683 186.096 309.631 186.657C309.539 187.637 309.112 188.374 308.349 188.868C307.594 189.363 306.595 189.552 305.352 189.436Z" fill="#212735"/>
<path d="M293.774 188.093L294.795 177.208L296.914 177.407L296.788 178.749C297.071 178.259 297.441 177.897 297.9 177.66C298.36 177.424 298.866 177.332 299.42 177.384C300.116 177.449 300.685 177.717 301.128 178.189L300.634 180.13C300.403 179.922 300.16 179.763 299.905 179.653C299.651 179.543 299.371 179.474 299.065 179.446C298.59 179.401 298.166 179.487 297.795 179.703C297.431 179.912 297.133 180.231 296.899 180.661C296.666 181.09 296.52 181.61 296.463 182.221L295.894 188.291L293.774 188.093Z" fill="#212735"/>
<path d="M281.357 186.929L282.204 177.897L280.575 177.744L280.748 175.891L282.378 176.044L282.544 174.276C282.619 173.474 282.89 172.876 283.356 172.483C283.824 172.082 284.451 171.919 285.239 171.993C285.637 172.03 286.006 172.108 286.346 172.226C286.693 172.344 287.021 172.508 287.331 172.716L287.166 174.473C286.881 174.31 286.617 174.185 286.374 174.098C286.132 174.011 285.89 173.956 285.648 173.933C285.329 173.903 285.087 173.963 284.923 174.112C284.759 174.254 284.66 174.503 284.627 174.858L284.497 176.243L286.979 176.475L286.805 178.328L284.323 178.096L283.477 187.127L281.357 186.929ZM288.173 187.568L289.194 176.683L291.313 176.882L290.293 187.766L288.173 187.568ZM290.415 175.003C290.06 174.97 289.766 174.817 289.534 174.545C289.31 174.266 289.214 173.949 289.247 173.594C289.281 173.232 289.434 172.934 289.707 172.702C289.979 172.47 290.297 172.371 290.659 172.405C291.028 172.439 291.325 172.596 291.549 172.875C291.774 173.154 291.869 173.474 291.835 173.836C291.801 174.198 291.648 174.492 291.377 174.717C291.105 174.943 290.784 175.038 290.415 175.003Z" fill="#212735"/>
<path d="M267.496 185.887C266.112 185.757 265.066 185.147 264.359 184.056C263.652 182.959 263.382 181.526 263.548 179.758C263.656 178.601 263.935 177.613 264.384 176.796C264.833 175.978 265.413 175.37 266.124 174.971C266.842 174.566 267.659 174.406 268.575 174.492C269.612 174.589 270.456 175.016 271.109 175.772L271.511 171.48L273.723 170.698L272.281 186.077L270.161 185.879L270.242 185.016C269.519 185.7 268.604 185.991 267.496 185.887ZM268.003 183.914C268.493 183.96 268.947 183.892 269.366 183.709C269.785 183.519 270.145 183.227 270.447 182.833L270.903 177.966C270.677 177.558 270.368 177.224 269.976 176.965C269.593 176.7 269.167 176.546 268.698 176.502C267.846 176.422 267.16 176.68 266.638 177.276C266.117 177.871 265.8 178.766 265.688 179.959C265.618 180.704 265.667 181.368 265.835 181.949C266.003 182.524 266.272 182.982 266.641 183.325C267.01 183.667 267.464 183.864 268.003 183.914Z" fill="#212735"/>
<path d="M251.215 184.103L252.235 173.218L254.355 173.417L254.253 174.503C254.636 174.081 255.073 173.781 255.562 173.605C256.058 173.43 256.612 173.37 257.222 173.428C258.507 173.548 259.436 174.029 260.009 174.871C260.582 175.712 260.795 176.921 260.647 178.498L260.044 184.93L257.925 184.732L258.523 178.352C258.608 177.436 258.485 176.726 258.153 176.222C257.82 175.719 257.296 175.433 256.579 175.366C255.783 175.291 255.166 175.462 254.725 175.88C254.285 176.297 254.022 176.963 253.936 177.879L253.334 184.301L251.215 184.103Z" fill="#212735"/>
<path d="M242.716 183.564C241.53 183.452 240.627 183.042 240.006 182.332C239.393 181.615 239.139 180.696 239.244 179.574C239.312 178.85 239.541 178.234 239.933 177.727C240.324 177.219 240.842 176.848 241.487 176.615C242.14 176.376 242.885 176.295 243.723 176.374C244.234 176.422 244.712 176.52 245.157 176.669C245.608 176.819 246.016 177.018 246.379 177.267L246.448 176.532C246.52 175.766 246.388 175.184 246.053 174.787C245.718 174.383 245.171 174.146 244.412 174.075C243.886 174.025 243.334 174.07 242.755 174.209C242.183 174.349 241.622 174.569 241.071 174.868L240.616 173.074C241.226 172.752 241.9 172.521 242.636 172.382C243.38 172.237 244.111 172.198 244.828 172.266C246.177 172.392 247.154 172.82 247.759 173.55C248.371 174.281 248.615 175.31 248.49 176.638L247.82 183.784L245.786 183.594L245.876 182.635C245.435 182.988 244.941 183.246 244.396 183.409C243.851 183.566 243.291 183.617 242.716 183.564ZM243.271 181.768C243.754 181.813 244.237 181.747 244.719 181.57C245.209 181.387 245.654 181.11 246.054 180.739L246.211 179.057C245.889 178.826 245.517 178.633 245.094 178.479C244.672 178.325 244.262 178.229 243.864 178.192C243.112 178.121 242.504 178.229 242.04 178.515C241.577 178.794 241.319 179.214 241.266 179.775C241.214 180.329 241.365 180.783 241.719 181.139C242.072 181.494 242.59 181.704 243.271 181.768Z" fill="#212735"/>
<path d="M229.345 185.082L228.613 184.53C228.751 184.428 228.92 184.272 229.118 184.061C229.324 183.852 229.516 183.604 229.693 183.32C229.87 183.036 229.991 182.736 230.057 182.42C229.672 182.326 229.353 182.135 229.1 181.846C228.856 181.551 228.753 181.198 228.792 180.786C228.837 180.303 229.026 179.934 229.357 179.679C229.697 179.417 230.069 179.305 230.474 179.343C230.921 179.385 231.297 179.581 231.601 179.932C231.912 180.284 232.037 180.779 231.977 181.418C231.925 181.972 231.773 182.484 231.521 182.954C231.269 183.432 230.95 183.85 230.566 184.208C230.188 184.574 229.781 184.865 229.345 185.082Z" fill="#212735"/>
<path d="M217.298 185.285L218.724 170.076L220.844 170.275L220.762 171.148C221.55 170.463 222.472 170.17 223.53 170.269C224.453 170.355 225.227 170.661 225.851 171.185C226.482 171.71 226.939 172.415 227.221 173.301C227.511 174.188 227.601 175.213 227.491 176.378C227.383 177.535 227.1 178.525 226.643 179.349C226.194 180.167 225.611 180.778 224.892 181.183C224.174 181.589 223.36 181.749 222.451 181.664C221.897 181.612 221.41 181.466 220.988 181.226C220.567 180.986 220.208 180.644 219.913 180.201L219.51 184.504L217.298 185.285ZM222.351 179.634C223.203 179.714 223.887 179.456 224.401 178.86C224.916 178.256 225.229 177.362 225.34 176.176C225.448 175.026 225.295 174.098 224.881 173.393C224.467 172.688 223.856 172.298 223.046 172.222C222.528 172.173 222.056 172.244 221.63 172.433C221.212 172.616 220.855 172.905 220.56 173.3L220.109 178.113C220.381 178.569 220.706 178.925 221.083 179.182C221.467 179.441 221.89 179.591 222.351 179.634Z" fill="#212735"/>
<path d="M209.205 180.422C208.019 180.311 207.116 179.9 206.495 179.19C205.882 178.473 205.628 177.554 205.733 176.433C205.801 175.708 206.03 175.092 206.422 174.585C206.813 174.077 207.331 173.707 207.976 173.473C208.629 173.234 209.374 173.153 210.212 173.232C210.723 173.28 211.201 173.378 211.646 173.527C212.097 173.677 212.505 173.876 212.868 174.125L212.937 173.391C213.009 172.624 212.877 172.042 212.542 171.645C212.207 171.241 211.66 171.004 210.901 170.933C210.375 170.883 209.823 170.928 209.244 171.067C208.672 171.207 208.111 171.427 207.56 171.726L207.105 169.932C207.715 169.61 208.389 169.379 209.125 169.241C209.869 169.095 210.6 169.057 211.317 169.124C212.666 169.25 213.643 169.678 214.248 170.408C214.86 171.139 215.104 172.168 214.979 173.496L214.309 180.642L212.275 180.452L212.365 179.493C211.924 179.846 211.43 180.104 210.885 180.268C210.34 180.424 209.78 180.476 209.205 180.422ZM209.76 178.626C210.243 178.671 210.726 178.605 211.208 178.428C211.698 178.245 212.143 177.968 212.543 177.597L212.7 175.915C212.378 175.684 212.006 175.491 211.583 175.337C211.161 175.183 210.751 175.087 210.353 175.05C209.601 174.979 208.993 175.087 208.529 175.373C208.066 175.652 207.808 176.072 207.755 176.633C207.703 177.187 207.854 177.641 208.208 177.997C208.561 178.352 209.079 178.562 209.76 178.626Z" fill="#212735"/>
<path d="M187.729 178.15L188.75 167.266L190.869 167.465L190.773 168.487C191.14 168.092 191.567 167.809 192.056 167.64C192.552 167.472 193.094 167.415 193.683 167.471C194.322 167.53 194.878 167.722 195.349 168.046C195.82 168.362 196.167 168.785 196.39 169.314C196.785 168.843 197.272 168.498 197.851 168.28C198.431 168.055 199.065 167.975 199.754 168.04C200.975 168.154 201.896 168.606 202.517 169.395C203.139 170.176 203.389 171.21 203.269 172.495L202.608 179.545L200.488 179.347L201.087 172.956C201.173 172.048 201.06 171.342 200.749 170.84C200.445 170.339 199.955 170.057 199.281 169.994C198.826 169.951 198.422 170.028 198.067 170.224C197.719 170.413 197.437 170.713 197.22 171.122C197.003 171.524 196.868 172.013 196.814 172.588L196.218 178.946L194.098 178.748L194.697 172.357C194.784 171.434 194.678 170.726 194.381 170.233C194.083 169.739 193.59 169.46 192.901 169.396C192.206 169.33 191.644 169.518 191.216 169.957C190.788 170.397 190.533 171.054 190.451 171.927L189.849 178.349L187.729 178.15Z" fill="#212735"/>
<path d="M179.486 177.636C178.101 177.506 177.055 176.896 176.348 175.805C175.642 174.707 175.371 173.275 175.537 171.507C175.646 170.349 175.924 169.362 176.374 168.545C176.823 167.727 177.403 167.119 178.113 166.72C178.832 166.315 179.649 166.155 180.565 166.241C181.601 166.338 182.446 166.765 183.099 167.52L183.501 163.228L185.712 162.447L184.27 177.826L182.151 177.628L182.232 176.765C181.509 177.449 180.593 177.739 179.486 177.636ZM179.993 175.663C180.483 175.709 180.937 175.641 181.355 175.458C181.774 175.268 182.135 174.976 182.437 174.582L182.893 169.714C182.666 169.306 182.357 168.973 181.966 168.714C181.583 168.449 181.157 168.295 180.688 168.251C179.836 168.171 179.149 168.429 178.628 169.024C178.106 169.62 177.79 170.514 177.678 171.707C177.608 172.453 177.657 173.116 177.824 173.698C177.992 174.272 178.261 174.731 178.63 175.073C178.999 175.416 179.453 175.613 179.993 175.663Z" fill="#212735"/>
<path d="M167.124 176.477C165.938 176.365 165.035 175.955 164.414 175.245C163.801 174.528 163.547 173.609 163.652 172.487C163.72 171.763 163.949 171.147 164.341 170.64C164.732 170.132 165.25 169.762 165.895 169.528C166.548 169.289 167.293 169.208 168.131 169.287C168.642 169.335 169.12 169.433 169.565 169.582C170.016 169.732 170.424 169.931 170.787 170.18L170.856 169.445C170.928 168.679 170.796 168.097 170.461 167.7C170.126 167.296 169.579 167.059 168.819 166.988C168.294 166.938 167.742 166.983 167.163 167.122C166.591 167.262 166.03 167.482 165.479 167.781L165.024 165.987C165.634 165.665 166.308 165.434 167.044 165.296C167.788 165.15 168.519 165.111 169.236 165.179C170.585 165.305 171.562 165.733 172.167 166.463C172.779 167.194 173.023 168.223 172.898 169.551L172.228 176.697L170.194 176.507L170.284 175.548C169.843 175.901 169.349 176.159 168.804 176.323C168.259 176.479 167.699 176.531 167.124 176.477ZM167.679 174.681C168.162 174.726 168.644 174.66 169.127 174.483C169.617 174.3 170.062 174.023 170.462 173.652L170.619 171.97C170.297 171.739 169.925 171.546 169.502 171.392C169.08 171.238 168.67 171.142 168.272 171.105C167.52 171.034 166.911 171.142 166.448 171.428C165.985 171.707 165.727 172.127 165.674 172.688C165.622 173.242 165.773 173.696 166.127 174.052C166.48 174.407 166.998 174.617 167.679 174.681Z" fill="#212735"/>
<path d="M156.02 175.436C154.515 175.294 153.377 174.676 152.606 173.579C151.836 172.475 151.533 171.047 151.697 169.293C151.807 168.121 152.097 167.128 152.567 166.313C153.045 165.498 153.667 164.894 154.435 164.5C155.21 164.1 156.095 163.947 157.089 164.04C158.09 164.134 158.931 164.445 159.612 164.975C160.301 165.498 160.8 166.203 161.111 167.092C161.421 167.981 161.522 169.011 161.412 170.182C161.302 171.361 161.008 172.358 160.53 173.172C160.06 173.988 159.441 174.592 158.673 174.986C157.906 175.38 157.021 175.529 156.02 175.436ZM156.208 173.433C157.06 173.513 157.755 173.249 158.291 172.64C158.836 172.032 159.162 171.146 159.271 169.982C159.38 168.817 159.224 167.886 158.803 167.187C158.388 166.489 157.755 166.101 156.903 166.021C156.051 165.941 155.353 166.205 154.809 166.813C154.272 167.421 153.948 168.315 153.838 169.494C153.729 170.651 153.882 171.579 154.297 172.276C154.719 172.968 155.356 173.353 156.208 173.433Z" fill="#212735"/>
<path d="M143.859 174.038L144.88 163.153L146.999 163.352L146.873 164.694C147.156 164.204 147.526 163.842 147.985 163.605C148.444 163.369 148.951 163.277 149.505 163.329C150.201 163.394 150.77 163.662 151.213 164.134L150.719 166.075C150.488 165.867 150.245 165.708 149.99 165.598C149.736 165.488 149.456 165.419 149.15 165.391C148.675 165.346 148.251 165.432 147.88 165.648C147.516 165.857 147.218 166.176 146.984 166.606C146.751 167.035 146.605 167.555 146.548 168.166L145.979 174.236L143.859 174.038Z" fill="#212735"/>
<path d="M384.242 165.438L385.591 151.039L387.803 150.258L387.278 155.86C387.661 155.438 388.101 155.135 388.598 154.952C389.095 154.77 389.645 154.707 390.249 154.763C391.158 154.849 391.879 155.106 392.411 155.536C392.951 155.966 393.319 156.545 393.516 157.272C393.713 158 393.766 158.853 393.674 159.833L393.071 166.266L390.951 166.067L391.549 159.688C391.63 158.822 391.517 158.127 391.207 157.604C390.899 157.073 390.365 156.773 389.605 156.701C388.81 156.627 388.192 156.798 387.752 157.215C387.312 157.632 387.049 158.299 386.963 159.215L386.361 165.637L384.242 165.438Z" fill="#212735"/>
<path d="M377.291 165.045C376.333 164.955 375.527 164.65 374.874 164.13C374.228 163.604 373.757 162.901 373.46 162.021C373.171 161.134 373.081 160.102 373.192 158.923C373.302 157.745 373.585 156.747 374.042 155.93C374.505 155.114 375.11 154.508 375.856 154.113C376.602 153.717 377.461 153.565 378.434 153.656C379.435 153.75 380.255 154.059 380.893 154.585C381.539 155.111 381.972 155.836 382.194 156.759L380.126 157.274C379.991 156.796 379.766 156.417 379.448 156.136C379.13 155.856 378.737 155.693 378.269 155.65C377.452 155.573 376.79 155.837 376.282 156.441C375.774 157.045 375.465 157.94 375.354 159.126C375.244 160.29 375.38 161.216 375.759 161.904C376.14 162.584 376.727 162.961 377.523 163.036C378.041 163.084 378.498 162.988 378.893 162.745C379.295 162.504 379.599 162.131 379.803 161.627L381.735 162.453C381.361 163.392 380.791 164.084 380.026 164.528C379.261 164.972 378.349 165.144 377.291 165.045Z" fill="#212735"/>
<path d="M360.861 163.246L361.881 152.362L364.001 152.561L363.899 153.647C364.282 153.224 364.719 152.925 365.208 152.749C365.704 152.573 366.258 152.514 366.868 152.572C368.153 152.692 369.082 153.173 369.655 154.015C370.228 154.856 370.441 156.065 370.293 157.641L369.69 164.074L367.571 163.875L368.169 157.496C368.254 156.58 368.131 155.87 367.799 155.366C367.466 154.862 366.942 154.577 366.225 154.51C365.429 154.435 364.812 154.606 364.371 155.023C363.931 155.441 363.668 156.107 363.582 157.023L362.98 163.445L360.861 163.246Z" fill="#212735"/>
<path d="M352.345 162.706C351.046 162.584 350.106 162.102 349.526 161.26C348.946 160.417 348.73 159.215 348.876 157.653L349.481 151.199L351.601 151.398L351.004 157.756C350.918 158.679 351.037 159.392 351.363 159.896C351.696 160.392 352.228 160.675 352.959 160.744C353.754 160.818 354.369 160.646 354.802 160.229C355.243 159.804 355.506 159.138 355.591 158.229L356.191 151.828L358.31 152.027L357.29 162.912L355.17 162.713L355.267 161.68C354.885 162.088 354.457 162.377 353.983 162.548C353.509 162.711 352.963 162.764 352.345 162.706Z" fill="#212735"/>
<path d="M340.297 161.576C339.111 161.465 338.208 161.054 337.587 160.344C336.974 159.628 336.72 158.709 336.825 157.587C336.893 156.863 337.122 156.247 337.514 155.739C337.905 155.232 338.423 154.861 339.068 154.628C339.721 154.388 340.466 154.308 341.304 154.386C341.815 154.434 342.293 154.533 342.738 154.682C343.189 154.832 343.597 155.031 343.96 155.28L344.029 154.545C344.101 153.778 343.969 153.196 343.634 152.8C343.299 152.396 342.752 152.158 341.993 152.087C341.467 152.038 340.915 152.083 340.336 152.222C339.764 152.362 339.203 152.581 338.652 152.881L338.197 151.087C338.807 150.764 339.481 150.534 340.217 150.395C340.961 150.25 341.692 150.211 342.409 150.278C343.758 150.405 344.735 150.833 345.34 151.563C345.952 152.294 346.196 153.323 346.071 154.651L345.401 161.797L343.367 161.606L343.457 160.648C343.016 161 342.522 161.258 341.977 161.422C341.432 161.579 340.872 161.63 340.297 161.576ZM340.852 159.78C341.335 159.826 341.818 159.76 342.3 159.583C342.79 159.4 343.235 159.123 343.635 158.752L343.792 157.069C343.47 156.838 343.098 156.646 342.675 156.492C342.253 156.338 341.843 156.242 341.445 156.205C340.693 156.134 340.085 156.242 339.621 156.528C339.158 156.807 338.9 157.226 338.847 157.787C338.795 158.341 338.946 158.796 339.3 159.151C339.653 159.507 340.171 159.716 340.852 159.78Z" fill="#212735"/>
<path d="M331.471 160.491L332.821 146.092L335.032 145.311L333.59 160.69L331.471 160.491Z" fill="#212735"/>
<path d="M321.143 162.553L320.411 162C320.549 161.899 320.718 161.743 320.917 161.532C321.123 161.322 321.314 161.075 321.491 160.791C321.668 160.507 321.79 160.206 321.855 159.89C321.47 159.797 321.151 159.606 320.899 159.317C320.654 159.022 320.551 158.669 320.59 158.257C320.635 157.774 320.824 157.405 321.156 157.15C321.495 156.888 321.868 156.776 322.272 156.814C322.72 156.856 323.095 157.052 323.399 157.403C323.71 157.754 323.835 158.25 323.775 158.889C323.723 159.442 323.572 159.955 323.32 160.425C323.067 160.903 322.749 161.321 322.364 161.679C321.986 162.044 321.579 162.336 321.143 162.553Z" fill="#212735"/>
<path d="M314.041 159.115C313.026 159.019 312.171 158.696 311.478 158.144C310.792 157.592 310.291 156.869 309.973 155.972C309.663 155.076 309.561 154.068 309.666 152.946C309.778 151.753 310.076 150.753 310.56 149.946C311.052 149.133 311.684 148.537 312.457 148.158C313.238 147.773 314.122 147.626 315.109 147.719C315.947 147.797 316.693 148.054 317.347 148.487C318.009 148.915 318.51 149.531 318.85 150.337C319.197 151.136 319.315 152.131 319.204 153.324C319.188 153.495 319.161 153.7 319.124 153.94C319.095 154.174 319.055 154.413 319.003 154.659L311.729 153.977C311.729 154.586 311.825 155.132 312.016 155.616C312.215 156.093 312.501 156.478 312.875 156.771C313.248 157.063 313.705 157.235 314.245 157.286C314.72 157.33 315.161 157.289 315.567 157.163C315.973 157.029 316.364 156.8 316.738 156.477L317.848 157.924C317.38 158.332 316.824 158.652 316.179 158.885C315.535 159.111 314.822 159.188 314.041 159.115ZM311.884 152.208L317.135 152.701C317.174 152.124 317.115 151.61 316.957 151.158C316.807 150.7 316.558 150.329 316.213 150.046C315.874 149.764 315.442 149.598 314.916 149.549C314.185 149.48 313.535 149.656 312.965 150.075C312.396 150.494 312.036 151.205 311.884 152.208Z" fill="#212735"/>
<path d="M300.891 162.201L299.964 160.395C300.964 160.424 301.771 160.371 302.386 160.235C303.007 160.1 303.469 159.871 303.772 159.549C304.074 159.226 304.25 158.798 304.3 158.266L304.417 157.02C303.725 157.75 302.804 158.061 301.654 157.953C300.745 157.868 299.976 157.56 299.345 157.028C298.714 156.496 298.254 155.787 297.965 154.9C297.684 154.007 297.597 152.982 297.706 151.824C297.814 150.667 298.093 149.68 298.542 148.862C298.998 148.046 299.585 147.438 300.303 147.04C301.028 146.635 301.853 146.476 302.776 146.563C303.301 146.612 303.779 146.75 304.209 146.976C304.646 147.203 305.002 147.498 305.276 147.861L305.35 147.062L307.47 147.261L306.498 157.623C306.42 158.461 306.252 159.176 305.996 159.768C305.747 160.361 305.395 160.84 304.938 161.205C304.48 161.578 303.918 161.844 303.251 162.003C302.585 162.163 301.798 162.229 300.891 162.201ZM302.247 155.989C302.68 156.03 303.11 155.948 303.537 155.745C303.972 155.535 304.333 155.239 304.62 154.858L305.068 150.076C304.876 149.678 304.578 149.339 304.175 149.057C303.772 148.776 303.364 148.616 302.952 148.577C302.058 148.494 301.343 148.745 300.808 149.333C300.28 149.921 299.959 150.818 299.846 152.025C299.775 152.785 299.823 153.456 299.991 154.037C300.166 154.612 300.446 155.068 300.829 155.405C301.213 155.742 301.686 155.936 302.247 155.989Z" fill="#212735"/>
<path d="M289.292 156.794C288.107 156.683 287.203 156.273 286.582 155.562C285.969 154.846 285.715 153.927 285.82 152.805C285.888 152.081 286.118 151.465 286.509 150.957C286.901 150.45 287.419 150.079 288.064 149.846C288.717 149.606 289.462 149.526 290.3 149.604C290.811 149.652 291.289 149.751 291.733 149.9C292.185 150.05 292.592 150.249 292.956 150.498L293.024 149.763C293.096 148.996 292.965 148.415 292.629 148.018C292.295 147.614 291.748 147.376 290.988 147.305C290.463 147.256 289.91 147.301 289.331 147.44C288.76 147.58 288.198 147.799 287.647 148.099L287.192 146.305C287.803 145.982 288.476 145.752 289.213 145.613C289.957 145.468 290.688 145.429 291.405 145.496C292.754 145.623 293.731 146.051 294.335 146.781C294.947 147.512 295.191 148.541 295.067 149.869L294.397 157.015L292.362 156.824L292.452 155.866C292.011 156.218 291.518 156.476 290.972 156.64C290.428 156.797 289.868 156.848 289.292 156.794ZM289.848 154.998C290.33 155.044 290.813 154.978 291.295 154.801C291.785 154.618 292.23 154.341 292.63 153.97L292.788 152.287C292.466 152.056 292.093 151.864 291.671 151.71C291.248 151.556 290.838 151.46 290.441 151.423C289.688 151.352 289.08 151.46 288.616 151.746C288.153 152.025 287.895 152.445 287.843 153.005C287.791 153.559 287.942 154.014 288.295 154.369C288.648 154.725 289.166 154.934 289.848 154.998Z" fill="#212735"/>
<path d="M273.381 159.407L274.807 144.198L276.926 144.397L276.845 145.27C277.632 144.585 278.555 144.292 279.613 144.391C280.536 144.477 281.31 144.783 281.934 145.307C282.565 145.832 283.022 146.537 283.304 147.423C283.593 148.31 283.683 149.335 283.574 150.5C283.466 151.657 283.183 152.647 282.726 153.471C282.277 154.289 281.693 154.9 280.975 155.305C280.256 155.711 279.443 155.871 278.534 155.786C277.98 155.734 277.492 155.588 277.071 155.348C276.649 155.108 276.291 154.766 275.996 154.323L275.592 158.626L273.381 159.407ZM278.434 153.757C279.286 153.836 279.969 153.578 280.484 152.982C280.999 152.378 281.312 151.484 281.423 150.298C281.531 149.148 281.378 148.22 280.964 147.515C280.55 146.81 279.939 146.42 279.129 146.344C278.611 146.295 278.139 146.366 277.713 146.555C277.294 146.738 276.938 147.027 276.643 147.422L276.192 152.236C276.464 152.691 276.789 153.047 277.166 153.305C277.55 153.563 277.973 153.713 278.434 153.757Z" fill="#212735"/>
<path d="M259.642 158.334L258.715 156.528C259.715 156.557 260.522 156.504 261.137 156.368C261.758 156.233 262.22 156.004 262.523 155.681C262.825 155.359 263.001 154.931 263.051 154.399L263.168 153.153C262.476 153.883 261.555 154.194 260.405 154.086C259.496 154.001 258.727 153.692 258.096 153.161C257.465 152.629 257.005 151.92 256.716 151.033C256.435 150.14 256.348 149.115 256.457 147.957C256.565 146.8 256.844 145.813 257.293 144.995C257.749 144.178 258.336 143.571 259.054 143.173C259.779 142.768 260.604 142.609 261.527 142.695C262.052 142.745 262.53 142.883 262.96 143.109C263.397 143.336 263.753 143.631 264.027 143.993L264.101 143.195L266.221 143.393L265.249 153.756C265.171 154.594 265.003 155.309 264.747 155.901C264.498 156.493 264.146 156.972 263.689 157.338C263.231 157.71 262.669 157.976 262.002 158.136C261.336 158.295 260.549 158.361 259.642 158.334ZM260.998 152.122C261.431 152.162 261.861 152.081 262.288 151.878C262.723 151.668 263.084 151.372 263.371 150.991L263.819 146.209C263.627 145.811 263.329 145.472 262.926 145.19C262.523 144.909 262.115 144.749 261.703 144.71C260.809 144.626 260.094 144.878 259.559 145.465C259.031 146.053 258.71 146.951 258.597 148.158C258.526 148.918 258.574 149.588 258.742 150.17C258.917 150.745 259.197 151.201 259.58 151.538C259.964 151.875 260.437 152.069 260.998 152.122Z" fill="#212735"/>
<path d="M244.124 152.302L245.144 141.417L247.264 141.616L247.162 142.702C247.545 142.28 247.982 141.98 248.471 141.804C248.967 141.629 249.521 141.57 250.131 141.627C251.417 141.747 252.346 142.228 252.919 143.07C253.491 143.912 253.704 145.121 253.556 146.697L252.953 153.13L250.834 152.931L251.432 146.551C251.518 145.635 251.394 144.926 251.062 144.422C250.73 143.918 250.205 143.632 249.488 143.565C248.693 143.49 248.075 143.662 247.635 144.079C247.194 144.496 246.931 145.162 246.846 146.078L246.243 152.501L244.124 152.302Z" fill="#212735"/>
<path d="M238.529 151.777L239.549 140.893L241.669 141.091L240.648 151.976L238.529 151.777ZM240.77 139.213C240.415 139.18 240.122 139.027 239.889 138.754C239.665 138.475 239.569 138.158 239.603 137.803C239.636 137.441 239.79 137.144 240.062 136.912C240.335 136.679 240.652 136.58 241.014 136.614C241.383 136.649 241.68 136.806 241.905 137.085C242.129 137.363 242.224 137.684 242.191 138.046C242.157 138.408 242.004 138.702 241.732 138.927C241.46 139.152 241.14 139.248 240.77 139.213Z" fill="#212735"/>
<path d="M230.264 151.26C228.88 151.13 227.834 150.52 227.127 149.43C226.42 148.332 226.15 146.899 226.315 145.131C226.424 143.974 226.703 142.987 227.152 142.169C227.601 141.352 228.181 140.744 228.892 140.345C229.61 139.939 230.427 139.78 231.343 139.866C232.38 139.963 233.224 140.389 233.877 141.145L234.279 136.853L236.491 136.072L235.049 151.451L232.929 151.252L233.01 150.39C232.287 151.074 231.372 151.364 230.264 151.26ZM230.771 149.288C231.261 149.334 231.715 149.265 232.134 149.083C232.552 148.893 232.913 148.601 233.215 148.206L233.671 143.339C233.444 142.931 233.135 142.598 232.744 142.339C232.361 142.074 231.935 141.919 231.466 141.875C230.614 141.796 229.927 142.053 229.406 142.649C228.885 143.245 228.568 144.139 228.456 145.332C228.386 146.078 228.435 146.741 228.603 147.323C228.771 147.897 229.039 148.356 229.408 148.698C229.777 149.041 230.232 149.237 230.771 149.288Z" fill="#212735"/>
<path d="M213.983 149.476L215.003 138.591L217.123 138.79L217.021 139.876C217.404 139.454 217.841 139.155 218.33 138.978C218.826 138.803 219.38 138.744 219.99 138.801C221.276 138.921 222.205 139.403 222.777 140.244C223.35 141.086 223.563 142.295 223.415 143.871L222.812 150.304L220.693 150.105L221.291 143.725C221.377 142.809 221.253 142.1 220.921 141.596C220.589 141.092 220.064 140.806 219.347 140.739C218.551 140.664 217.934 140.836 217.494 141.253C217.053 141.67 216.79 142.337 216.704 143.252L216.102 149.675L213.983 149.476Z" fill="#212735"/>
<path d="M205.484 148.937C204.298 148.826 203.395 148.415 202.774 147.705C202.16 146.989 201.906 146.07 202.012 144.948C202.079 144.224 202.309 143.608 202.701 143.1C203.092 142.592 203.61 142.222 204.255 141.989C204.908 141.749 205.653 141.669 206.491 141.747C207.002 141.795 207.48 141.894 207.925 142.043C208.376 142.192 208.784 142.392 209.147 142.641L209.216 141.906C209.288 141.139 209.156 140.557 208.821 140.161C208.486 139.757 207.939 139.519 207.179 139.448C206.654 139.399 206.102 139.444 205.523 139.583C204.951 139.723 204.39 139.942 203.839 140.241L203.384 138.448C203.994 138.125 204.668 137.895 205.404 137.756C206.148 137.611 206.879 137.572 207.596 137.639C208.945 137.766 209.922 138.194 210.527 138.924C211.139 139.655 211.383 140.684 211.258 142.011L210.588 149.158L208.554 148.967L208.644 148.009C208.202 148.361 207.709 148.619 207.164 148.783C206.619 148.94 206.059 148.991 205.484 148.937ZM206.039 147.141C206.522 147.186 207.004 147.121 207.486 146.944C207.976 146.761 208.421 146.484 208.821 146.113L208.979 144.43C208.657 144.199 208.285 144.007 207.862 143.853C207.44 143.698 207.03 143.603 206.632 143.565C205.88 143.495 205.271 143.603 204.808 143.889C204.345 144.167 204.087 144.587 204.034 145.148C203.982 145.702 204.133 146.157 204.486 146.512C204.84 146.868 205.357 147.077 206.039 147.141Z" fill="#212735"/>
<path d="M196.658 147.852L198.008 133.452L200.219 132.671L198.777 148.05L196.658 147.852Z" fill="#212735"/>
<path d="M182.947 146.566L183.968 135.682L186.087 135.88L185.961 137.222C186.244 136.733 186.614 136.37 187.073 136.134C187.532 135.898 188.039 135.805 188.593 135.857C189.288 135.923 189.858 136.191 190.301 136.662L189.807 138.603C189.576 138.396 189.333 138.237 189.078 138.127C188.823 138.017 188.543 137.948 188.238 137.919C187.762 137.875 187.339 137.96 186.968 138.176C186.604 138.386 186.306 138.705 186.072 139.134C185.839 139.564 185.693 140.084 185.636 140.694L185.067 146.765L182.947 146.566Z" fill="#212735"/>
<path d="M174.432 146.026C173.133 145.904 172.193 145.422 171.613 144.58C171.033 143.737 170.816 142.535 170.963 140.973L171.568 134.519L173.687 134.718L173.091 141.076C173.004 141.999 173.124 142.712 173.449 143.215C173.782 143.712 174.314 143.995 175.046 144.063C175.841 144.138 176.455 143.966 176.888 143.549C177.329 143.124 177.592 142.458 177.677 141.549L178.277 135.148L180.397 135.347L179.376 146.231L177.257 146.033L177.354 145C176.972 145.408 176.543 145.697 176.069 145.868C175.595 146.031 175.05 146.084 174.432 146.026Z" fill="#212735"/>
<path d="M162.929 144.947C161.423 144.806 160.285 144.187 159.514 143.091C158.744 141.987 158.441 140.558 158.605 138.805C158.715 137.633 159.005 136.64 159.476 135.824C159.953 135.01 160.575 134.405 161.343 134.012C162.118 133.612 163.003 133.458 163.997 133.552C164.998 133.645 165.839 133.957 166.52 134.486C167.209 135.009 167.708 135.715 168.019 136.604C168.33 137.492 168.43 138.523 168.32 139.694C168.21 140.873 167.916 141.869 167.438 142.684C166.968 143.5 166.349 144.104 165.581 144.498C164.814 144.891 163.93 145.041 162.929 144.947ZM163.116 142.945C163.968 143.025 164.663 142.761 165.2 142.152C165.744 141.544 166.07 140.658 166.18 139.493C166.289 138.329 166.132 137.397 165.711 136.699C165.296 136.001 164.663 135.612 163.811 135.532C162.959 135.453 162.261 135.717 161.717 136.325C161.18 136.933 160.856 137.827 160.746 139.005C160.637 140.163 160.79 141.09 161.205 141.788C161.627 142.48 162.264 142.865 163.116 142.945Z" fill="#212735"/>
<path d="M150.939 143.565L151.487 137.718L147.139 128.168L149.567 128.395L152.754 135.656L157.268 129.117L159.653 129.341L153.641 137.888L153.09 143.767L150.939 143.565Z" fill="#212735"/>
<rect x="128.64" y="347.153" width="151.728" height="37.7295" rx="9" transform="rotate(5.36 128.64 347.153)" fill="#6941C7"/>
<path d="M243.516 383.659L241.754 373.734L244.083 373.952L244.803 378.9C244.831 379.075 244.855 379.287 244.876 379.537C244.904 379.782 244.924 380.01 244.936 380.221C245 380.023 245.071 379.804 245.151 379.563C245.231 379.322 245.301 379.119 245.361 378.952L247.112 374.236L249.176 374.43L250.009 379.388C250.037 379.569 250.068 379.786 250.101 380.037C250.141 380.289 250.171 380.518 250.19 380.723C250.247 380.519 250.309 380.298 250.376 380.063C250.442 379.827 250.506 379.62 250.568 379.441L252.224 374.716L254.553 374.935L250.947 384.357L248.855 384.16L248.04 379.204C248.013 379.023 247.978 378.784 247.936 378.487C247.893 378.19 247.858 377.926 247.828 377.694C247.763 377.917 247.682 378.171 247.585 378.454C247.489 378.738 247.41 378.966 247.349 379.139L245.617 383.857L243.516 383.659Z" fill="white"/>
<path d="M234.962 383.086C233.599 382.958 232.565 382.406 231.861 381.429C231.157 380.453 230.878 379.182 231.025 377.617C231.122 376.582 231.386 375.702 231.817 374.979C232.248 374.249 232.812 373.71 233.506 373.361C234.208 373.007 235.01 372.872 235.913 372.957C236.809 373.041 237.566 373.319 238.184 373.79C238.802 374.262 239.252 374.893 239.534 375.684C239.817 376.474 239.909 377.39 239.811 378.432C239.713 379.479 239.452 380.365 239.027 381.089C238.609 381.814 238.052 382.351 237.358 382.7C236.663 383.042 235.865 383.171 234.962 383.086ZM235.175 380.823C235.812 380.883 236.331 380.684 236.73 380.224C237.13 379.765 237.371 379.094 237.454 378.21C237.537 377.327 237.422 376.622 237.108 376.096C236.801 375.564 236.333 375.269 235.701 375.21C235.064 375.15 234.542 375.352 234.135 375.817C233.729 376.282 233.484 376.956 233.401 377.84C233.32 378.711 233.435 379.412 233.748 379.945C234.062 380.471 234.537 380.764 235.175 380.823Z" fill="white"/>
<path d="M219.786 381.433L220.694 371.758L223.06 371.98L222.973 372.908C223.319 372.552 223.715 372.299 224.162 372.15C224.616 371.995 225.12 371.944 225.676 371.996C226.755 372.097 227.557 372.51 228.081 373.234C228.606 373.952 228.809 374.935 228.692 376.185L228.126 382.215L225.769 381.994L226.266 376.693C226.343 375.879 226.257 375.272 226.007 374.873C225.765 374.468 225.348 374.238 224.754 374.183C224.111 374.122 223.616 374.267 223.272 374.616C222.934 374.96 222.728 375.527 222.654 376.316L222.153 381.655L219.786 381.433Z" fill="white"/>
<path d="M203.848 379.938L205.028 367.356L207.497 366.49L207.034 371.422C207.38 371.059 207.776 370.804 208.223 370.655C208.677 370.5 209.182 370.449 209.737 370.501C210.482 370.571 211.089 370.787 211.558 371.149C212.034 371.506 212.371 371.986 212.569 372.59C212.767 373.188 212.829 373.888 212.754 374.69L212.188 380.72L209.831 380.499L210.328 375.197C210.403 374.402 210.322 373.799 210.087 373.389C209.852 372.979 209.428 372.745 208.816 372.687C208.172 372.627 207.678 372.771 207.333 373.121C206.995 373.465 206.789 374.031 206.715 374.82L206.214 380.16L203.848 379.938Z" fill="white"/>
<path d="M197.417 379.563C196.527 379.48 195.776 379.203 195.165 378.731C194.553 378.26 194.106 377.632 193.823 376.848C193.541 376.058 193.448 375.142 193.546 374.1C193.644 373.059 193.905 372.176 194.329 371.452C194.76 370.729 195.323 370.192 196.018 369.844C196.713 369.489 197.506 369.353 198.396 369.437C199.399 369.531 200.21 369.842 200.829 370.372C201.455 370.895 201.873 371.625 202.085 372.562L199.77 373.109C199.657 372.691 199.465 372.361 199.195 372.119C198.925 371.871 198.601 371.729 198.222 371.693C197.61 371.636 197.097 371.842 196.684 372.313C196.277 372.784 196.032 373.455 195.95 374.326C195.87 375.184 195.983 375.883 196.289 376.421C196.595 376.959 197.048 377.256 197.647 377.312C198.07 377.352 198.441 377.266 198.76 377.054C199.086 376.842 199.343 376.513 199.531 376.066L201.702 376.948C201.325 377.912 200.772 378.614 200.043 379.055C199.321 379.491 198.446 379.66 197.417 379.563Z" fill="white"/>
<path d="M182.307 377.917L183.215 368.241L185.581 368.464L185.494 369.391C185.84 369.035 186.236 368.783 186.683 368.634C187.136 368.479 187.641 368.428 188.196 368.48C189.276 368.581 190.077 368.994 190.602 369.718C191.126 370.435 191.33 371.419 191.213 372.669L190.647 378.699L188.29 378.478L188.787 373.177C188.864 372.362 188.777 371.756 188.528 371.357C188.286 370.952 187.868 370.722 187.275 370.666C186.631 370.606 186.137 370.75 185.792 371.1C185.454 371.444 185.248 372.01 185.174 372.799L184.673 378.139L182.307 377.917Z" fill="white"/>
<path d="M174.366 377.401C173.287 377.299 172.482 376.887 171.951 376.162C171.422 375.431 171.214 374.45 171.33 373.219L171.896 367.18L174.263 367.402L173.766 372.703C173.689 373.517 173.773 374.123 174.015 374.522C174.258 374.92 174.679 375.148 175.279 375.204C175.923 375.264 176.413 375.123 176.751 374.779C177.096 374.429 177.305 373.863 177.379 373.08L177.88 367.741L180.237 367.962L179.329 377.637L176.972 377.416L177.057 376.507C176.725 376.858 176.332 377.108 175.879 377.256C175.432 377.405 174.928 377.453 174.366 377.401Z" fill="white"/>
<path d="M163.382 376.37C162.328 376.271 161.518 375.909 160.953 375.283C160.395 374.651 160.162 373.846 160.253 372.868C160.313 372.237 160.522 371.699 160.882 371.255C161.249 370.806 161.729 370.479 162.321 370.273C162.92 370.062 163.601 369.992 164.365 370.064C164.788 370.103 165.191 370.183 165.575 370.301C165.965 370.414 166.302 370.557 166.585 370.73L166.642 370.125C166.693 369.582 166.576 369.16 166.293 368.86C166.016 368.554 165.581 368.373 164.987 368.317C164.514 368.273 164.02 368.312 163.506 368.436C162.991 368.56 162.462 368.765 161.92 369.051L161.385 367.12C161.974 366.806 162.619 366.583 163.319 366.451C164.02 366.313 164.717 366.277 165.411 366.342C166.712 366.464 167.655 366.864 168.24 367.543C168.827 368.216 169.063 369.161 168.948 370.379L168.364 376.608L166.054 376.392L166.127 375.615C165.768 375.913 165.353 376.125 164.883 376.253C164.419 376.381 163.918 376.42 163.382 376.37ZM164.118 374.424C164.51 374.461 164.892 374.42 165.266 374.303C165.647 374.179 165.993 373.989 166.304 373.731L166.411 372.586C166.152 372.428 165.859 372.299 165.531 372.198C165.21 372.091 164.885 372.023 164.557 371.992C163.97 371.937 163.495 372.007 163.133 372.202C162.778 372.392 162.582 372.685 162.544 373.083C162.509 373.455 162.63 373.759 162.908 373.995C163.185 374.231 163.588 374.374 164.118 374.424Z" fill="white"/>
<path d="M149.915 374.877L151.158 361.624L153.61 361.854L152.59 372.731L158.999 373.333L158.776 375.709L149.915 374.877Z" fill="white"/>
<path d="M136.595 244.156C137.208 237.62 143.004 232.819 149.539 233.433L218.576 239.91C225.111 240.523 229.912 246.318 229.299 252.854L222.075 329.845C221.462 336.381 215.667 341.182 209.132 340.569L140.095 334.091C133.559 333.478 128.758 327.683 129.372 321.148L136.595 244.156Z" fill="#6941C7" fill-opacity="0.08"/>
<path d="M239.949 253.853C240.562 247.317 246.358 242.516 252.893 243.13L321.93 249.607C328.465 250.22 333.266 256.015 332.653 262.551L325.43 339.542C324.816 346.078 319.021 350.879 312.486 350.266L243.449 343.788C236.913 343.175 232.112 337.38 232.726 330.845L239.949 253.853Z" fill="#6941C7" fill-opacity="0.08"/>
<path d="M343.304 263.55C343.917 257.014 349.712 252.213 356.247 252.827L425.284 259.304C431.82 259.917 436.621 265.712 436.007 272.248L428.784 349.239C428.171 355.775 422.375 360.576 415.84 359.963L346.803 353.485C340.268 352.872 335.467 347.077 336.08 340.542L343.304 263.55Z" fill="#6941C7" fill-opacity="0.08"/>
</g>
</g>
<defs>
<filter id="filter0_d_386_9504" x="34.5269" y="81.9663" width="502.095" height="462.822" filterUnits="userSpaceOnUse" color-interpolation-filters="sRGB">
<feFlood flood-opacity="0" result="BackgroundImageFix"/>
<feColorMatrix in="SourceAlpha" type="matrix" values="0 0 0 0 0 0 0 0 0 0 0 0 0 0 0 0 0 0 127 0" result="hardAlpha"/>
<feOffset dy="42.7727"/>
<feGaussianBlur stdDeviation="28.5151"/>
<feColorMatrix type="matrix" values="0 0 0 0 0.831373 0 0 0 0 0.85098 0 0 0 0 0.909804 0 0 0 0.2 0"/>
<feBlend mode="normal" in2="BackgroundImageFix" result="effect1_dropShadow_386_9504"/>
<feBlend mode="normal" in="SourceGraphic" in2="effect1_dropShadow_386_9504" result="shape"/>
</filter>
<clipPath id="clip0_386_9504">
<rect width="388" height="388" fill="white"/>
</clipPath>
</defs>
</svg>
