<svg width="388" height="388" viewBox="0 0 388 388" fill="none" xmlns="http://www.w3.org/2000/svg">
<g clip-path="url(#clip0_386_9391)">
<rect x="32.8975" y="101" width="57.8778" height="57.8778" rx="28.9389" transform="rotate(2.53906 32.8975 101)" fill="white"/>
<path d="M58.8558 118.275L58.7031 121.719L58.9068 121.728C59.6884 121.763 60.8741 122.025 61.6465 122.336C61.7852 122.39 61.9562 122.458 62.0269 122.488C62.1007 122.515 62.2742 122.595 62.4152 122.664C64.3973 123.643 65.9378 125.242 66.862 127.272C67.0506 127.689 67.3117 128.432 67.3916 128.796C67.4168 128.905 67.4545 129.069 67.4745 129.16C67.7254 130.269 67.7308 131.77 67.4905 132.927C67.383 133.456 67.3436 133.601 67.1592 134.172C67.0307 134.566 66.6779 135.348 66.4444 135.743C65.5028 137.352 64.1929 138.605 62.5836 139.437C61.1708 140.169 59.5071 140.537 57.9318 140.467C57.1861 140.434 56.5961 140.272 55.9513 139.926C54.8931 139.36 54.1173 138.38 53.7858 137.195C53.5394 136.323 53.5929 135.251 53.9249 134.395C54.003 134.192 54.2518 133.723 54.3767 133.545C55.2327 132.311 56.4995 131.623 58.005 131.576L58.2665 131.566L58.4127 128.134L58.556 124.698L58.1962 124.691C57.6777 124.677 56.6543 124.749 56.2849 124.823C56.2274 124.835 56.0579 124.867 55.9066 124.896C53.1014 125.426 50.5563 127.059 48.8458 129.429C48.5039 129.9 48.0263 130.722 47.7642 131.287C47.1206 132.671 46.7686 134.249 46.7457 135.848C46.7296 136.888 46.8062 137.597 47.0568 138.712C47.2319 139.5 47.6542 140.602 48.087 141.398C48.872 142.847 50.0138 144.167 51.3126 145.124C51.8269 145.504 52.6157 145.986 53.0713 146.202C53.136 146.232 53.2564 146.291 53.3358 146.327C53.609 146.46 54.5124 146.794 54.8857 146.903C55.7449 147.151 56.7607 147.319 57.6232 147.358C57.9706 147.373 59.1628 147.354 59.3379 147.329C59.3801 147.325 59.5428 147.311 59.6993 147.3C60.4339 147.245 61.1593 147.127 62.2233 146.887C62.6354 146.797 63.4785 146.528 64.0644 146.308C65.3433 145.822 66.5635 145.171 67.7529 144.332C68.7316 143.646 70.0214 142.44 70.8709 141.419C71.5333 140.623 72.3121 139.436 72.7795 138.505C72.8188 138.432 72.878 138.315 72.9111 138.244C73.987 136.11 74.6118 133.32 74.5611 130.878C74.5478 130.23 74.4683 129.113 74.4198 128.922C74.412 128.894 74.3982 128.801 74.3872 128.71C74.3428 128.357 74.2112 127.67 74.0916 127.188C73.5926 125.176 72.6525 123.166 71.4246 121.488C69.8342 119.323 67.7185 117.567 65.2856 116.4C64.3923 115.973 63.1163 115.514 62.2283 115.307C62.1214 115.281 61.976 115.245 61.9016 115.229C61.2695 115.072 59.8621 114.869 59.2272 114.841L59.0086 114.831L58.8558 118.275Z" fill="#6941C7"/>
<g filter="url(#filter0_d_386_9391)">
<rect x="106.533" y="101" width="364.336" height="314" rx="11.5012" fill="white"/>
<rect x="105.814" y="100.281" width="365.774" height="315.438" rx="12.2201" stroke="#3D3D3D" stroke-opacity="0.1" stroke-width="1.43766"/>
<path d="M383.686 145.598C382.658 145.598 381.77 145.353 381.022 144.864C380.281 144.375 379.71 143.696 379.307 142.826C378.912 141.956 378.714 140.952 378.714 139.816C378.714 138.608 378.919 137.576 379.329 136.721C379.746 135.858 380.325 135.2 381.065 134.747C381.813 134.287 382.687 134.056 383.686 134.056C384.535 134.056 385.308 134.243 386.005 134.617C386.71 134.984 387.271 135.556 387.688 136.332C388.112 137.102 388.324 138.09 388.324 139.299C388.324 139.471 388.317 139.68 388.303 139.924C388.296 140.161 388.278 140.406 388.249 140.658H380.882C380.939 141.269 381.087 141.808 381.324 142.276C381.569 142.736 381.892 143.095 382.295 143.354C382.698 143.613 383.172 143.742 383.719 143.742C384.2 143.742 384.639 143.66 385.035 143.494C385.43 143.322 385.8 143.056 386.146 142.696L387.397 144.044C386.965 144.497 386.437 144.871 385.811 145.166C385.186 145.454 384.477 145.598 383.686 145.598ZM380.871 138.867H386.189C386.174 138.285 386.067 137.774 385.865 137.335C385.671 136.89 385.387 136.541 385.013 136.289C384.646 136.037 384.197 135.912 383.665 135.912C382.924 135.912 382.288 136.149 381.756 136.624C381.223 137.098 380.929 137.846 380.871 138.867Z" fill="#212735"/>
<path d="M368.301 145.339V130.777L370.447 129.763V137.896L373.855 134.315H376.412L373.424 137.368L377.534 145.339H375.193L371.892 138.921L370.447 140.399V145.339H368.301Z" fill="#212735"/>
<path d="M359.811 145.339V134.315H361.957V135.674C362.194 135.157 362.532 134.758 362.971 134.477C363.41 134.197 363.909 134.056 364.47 134.056C365.175 134.056 365.772 134.272 366.261 134.704L365.948 136.699C365.696 136.512 365.437 136.375 365.171 136.289C364.905 136.203 364.618 136.16 364.308 136.16C363.827 136.16 363.41 136.286 363.057 136.537C362.712 136.782 362.442 137.13 362.248 137.584C362.054 138.037 361.957 138.572 361.957 139.191V145.339H359.811Z" fill="#212735"/>
<path d="M351.227 145.598C350.027 145.598 349.081 145.271 348.391 144.616C347.708 143.955 347.366 143.056 347.366 141.92C347.366 141.186 347.539 140.546 347.884 140C348.229 139.453 348.714 139.032 349.34 138.738C349.973 138.436 350.713 138.285 351.562 138.285C352.08 138.285 352.569 138.339 353.029 138.446C353.496 138.554 353.924 138.716 354.312 138.932V138.188C354.312 137.411 354.125 136.839 353.751 136.473C353.378 136.099 352.806 135.912 352.036 135.912C351.504 135.912 350.954 136.009 350.386 136.203C349.825 136.397 349.282 136.67 348.757 137.023L348.132 135.264C348.714 134.883 349.369 134.589 350.095 134.38C350.828 134.164 351.558 134.056 352.285 134.056C353.651 134.056 354.672 134.394 355.348 135.07C356.031 135.746 356.372 136.757 356.372 138.101V145.339H354.312V144.368C353.902 144.764 353.431 145.069 352.899 145.285C352.367 145.493 351.81 145.598 351.227 145.598ZM351.616 143.742C352.105 143.742 352.583 143.631 353.05 143.408C353.525 143.178 353.946 142.858 354.312 142.448V140.744C353.967 140.543 353.575 140.384 353.137 140.269C352.698 140.154 352.277 140.097 351.875 140.097C351.112 140.097 350.512 140.262 350.073 140.593C349.635 140.916 349.415 141.362 349.415 141.93C349.415 142.491 349.61 142.933 349.998 143.257C350.386 143.581 350.925 143.742 351.616 143.742Z" fill="#212735"/>
<path d="M329.453 145.339V134.315H331.6V135.351C331.93 134.919 332.333 134.596 332.808 134.38C333.289 134.164 333.829 134.056 334.426 134.056C335.073 134.056 335.648 134.197 336.151 134.477C336.655 134.75 337.043 135.142 337.316 135.653C337.669 135.142 338.125 134.75 338.686 134.477C339.247 134.197 339.876 134.056 340.574 134.056C341.811 134.056 342.778 134.423 343.475 135.157C344.173 135.883 344.522 136.897 344.522 138.198V145.339H342.375V138.867C342.375 137.947 342.195 137.249 341.836 136.775C341.483 136.3 340.966 136.063 340.283 136.063C339.822 136.063 339.423 136.178 339.085 136.408C338.754 136.631 338.499 136.958 338.319 137.389C338.14 137.814 338.05 138.317 338.05 138.899V145.339H335.903V138.867C335.903 137.932 335.731 137.231 335.386 136.764C335.04 136.296 334.519 136.063 333.822 136.063C333.117 136.063 332.57 136.304 332.182 136.785C331.794 137.267 331.6 137.95 331.6 138.835V145.339H329.453Z" fill="#212735"/>
<path d="M316.862 145.598C315.834 145.598 314.946 145.353 314.198 144.864C313.457 144.375 312.886 143.696 312.483 142.826C312.087 141.956 311.89 140.952 311.89 139.816C311.89 138.608 312.095 137.576 312.504 136.721C312.922 135.858 313.5 135.2 314.241 134.747C314.989 134.287 315.863 134.056 316.862 134.056C317.711 134.056 318.484 134.243 319.181 134.617C319.886 134.984 320.447 135.556 320.864 136.332C321.288 137.102 321.5 138.09 321.5 139.299C321.5 139.471 321.493 139.68 321.479 139.924C321.471 140.161 321.453 140.406 321.425 140.658H314.058C314.115 141.269 314.263 141.808 314.5 142.276C314.744 142.736 315.068 143.095 315.471 143.354C315.873 143.613 316.348 143.742 316.894 143.742C317.376 143.742 317.815 143.66 318.21 143.494C318.606 143.322 318.976 143.056 319.321 142.696L320.573 144.044C320.141 144.497 319.613 144.871 318.987 145.166C318.361 145.454 317.653 145.598 316.862 145.598ZM314.047 138.867H319.365C319.35 138.285 319.242 137.774 319.041 137.335C318.847 136.89 318.563 136.541 318.189 136.289C317.822 136.037 317.373 135.912 316.841 135.912C316.1 135.912 315.464 136.149 314.931 136.624C314.399 137.098 314.104 137.846 314.047 138.867Z" fill="#212735"/>
<path d="M299.917 145.339V130.756L302.064 129.763V135.437C302.409 134.977 302.822 134.632 303.304 134.402C303.786 134.171 304.332 134.056 304.944 134.056C305.864 134.056 306.612 134.247 307.187 134.628C307.77 135.009 308.194 135.556 308.46 136.268C308.726 136.979 308.859 137.832 308.859 138.824V145.339H306.713V138.878C306.713 138.001 306.533 137.314 306.173 136.818C305.814 136.314 305.249 136.063 304.48 136.063C303.674 136.063 303.07 136.293 302.668 136.753C302.265 137.213 302.064 137.907 302.064 138.835V145.339H299.917Z" fill="#212735"/>
<path d="M295.187 145.598C294.396 145.598 293.792 145.368 293.375 144.907C292.965 144.44 292.76 143.764 292.76 142.88V136.192H291.034V134.315H292.76V130.799L294.906 129.763V134.315H297.549V136.192H294.906V142.308C294.906 142.768 294.989 143.106 295.155 143.322C295.327 143.537 295.593 143.645 295.953 143.645C296.47 143.645 297.031 143.462 297.635 143.095L297.387 145.101C297.057 145.274 296.711 145.4 296.352 145.479C295.992 145.558 295.604 145.598 295.187 145.598Z" fill="#212735"/>
<path d="M278.573 145.598C277.171 145.598 276.064 145.084 275.251 144.055C274.439 143.02 274.032 141.607 274.032 139.816C274.032 138.644 274.219 137.627 274.593 136.764C274.967 135.901 275.492 135.236 276.168 134.768C276.851 134.294 277.657 134.056 278.584 134.056C279.634 134.056 280.522 134.405 281.248 135.103V130.756L283.395 129.763V145.339H281.248V144.465C280.587 145.22 279.695 145.598 278.573 145.598ZM278.897 143.57C279.393 143.57 279.843 143.458 280.245 143.235C280.648 143.005 280.982 142.678 281.248 142.254V137.325C280.982 136.936 280.641 136.631 280.224 136.408C279.814 136.178 279.372 136.063 278.897 136.063C278.034 136.063 277.369 136.386 276.902 137.033C276.434 137.681 276.201 138.608 276.201 139.816C276.201 140.571 276.312 141.233 276.535 141.801C276.758 142.362 277.071 142.797 277.473 143.106C277.876 143.415 278.351 143.57 278.897 143.57Z" fill="#212735"/>
<path d="M266.87 145.598C265.842 145.598 264.954 145.353 264.206 144.864C263.466 144.375 262.894 143.696 262.491 142.826C262.096 141.956 261.898 140.952 261.898 139.816C261.898 138.608 262.103 137.576 262.513 136.721C262.93 135.858 263.509 135.2 264.249 134.747C264.997 134.287 265.871 134.056 266.87 134.056C267.719 134.056 268.492 134.243 269.189 134.617C269.894 134.984 270.455 135.556 270.872 136.332C271.296 137.102 271.508 138.09 271.508 139.299C271.508 139.471 271.501 139.68 271.487 139.924C271.48 140.161 271.462 140.406 271.433 140.658H264.066C264.124 141.269 264.271 141.808 264.508 142.276C264.753 142.736 265.076 143.095 265.479 143.354C265.882 143.613 266.356 143.742 266.903 143.742C267.385 143.742 267.823 143.66 268.219 143.494C268.614 143.322 268.985 143.056 269.33 142.696L270.581 144.044C270.149 144.497 269.621 144.871 268.995 145.166C268.37 145.454 267.661 145.598 266.87 145.598ZM264.055 138.867H269.373C269.358 138.285 269.251 137.774 269.049 137.335C268.855 136.89 268.571 136.541 268.197 136.289C267.83 136.037 267.381 135.912 266.849 135.912C266.108 135.912 265.472 136.149 264.94 136.624C264.408 137.098 264.113 137.846 264.055 138.867Z" fill="#212735"/>
<path d="M251.137 145.339V143.742L256.843 136.224H251.558V134.315H259.561V135.868L253.845 143.419H259.54V145.339H251.137Z" fill="#212735"/>
<path d="M241.456 149.524L243.139 145.091L239.04 134.315H241.219L243.84 141.466C243.919 141.646 243.984 141.819 244.034 141.984C244.084 142.15 244.135 142.329 244.185 142.524C244.243 142.329 244.297 142.153 244.347 141.995C244.404 141.83 244.466 141.653 244.53 141.466L247.194 134.315H249.395L243.646 149.524H241.456Z" fill="#212735"/>
<path d="M234.381 145.339V130.756L236.527 129.763V145.339H234.381Z" fill="#212735"/>
<path d="M225.922 145.598C224.721 145.598 223.775 145.271 223.085 144.616C222.402 143.955 222.06 143.056 222.06 141.92C222.06 141.186 222.233 140.546 222.578 140C222.923 139.453 223.408 139.032 224.034 138.738C224.667 138.436 225.407 138.285 226.256 138.285C226.774 138.285 227.263 138.339 227.723 138.446C228.19 138.554 228.618 138.716 229.006 138.932V138.188C229.006 137.411 228.819 136.839 228.446 136.473C228.072 136.099 227.5 135.912 226.731 135.912C226.198 135.912 225.648 136.009 225.08 136.203C224.519 136.397 223.976 136.67 223.451 137.023L222.826 135.264C223.408 134.883 224.063 134.589 224.789 134.38C225.522 134.164 226.252 134.056 226.979 134.056C228.345 134.056 229.366 134.394 230.042 135.07C230.725 135.746 231.067 136.757 231.067 138.101V145.339H229.006V144.368C228.597 144.764 228.126 145.069 227.593 145.285C227.061 145.493 226.504 145.598 225.922 145.598ZM226.31 143.742C226.799 143.742 227.277 143.631 227.744 143.408C228.219 143.178 228.64 142.858 229.006 142.448V140.744C228.661 140.543 228.269 140.384 227.831 140.269C227.392 140.154 226.971 140.097 226.569 140.097C225.806 140.097 225.206 140.262 224.767 140.593C224.329 140.916 224.109 141.362 224.109 141.93C224.109 142.491 224.304 142.933 224.692 143.257C225.08 143.581 225.62 143.742 226.31 143.742Z" fill="#212735"/>
<path d="M210.278 145.339V134.315H212.424V135.415C212.769 134.955 213.179 134.614 213.654 134.391C214.135 134.168 214.686 134.056 215.304 134.056C216.606 134.056 217.583 134.452 218.238 135.243C218.892 136.034 219.219 137.228 219.219 138.824V145.339H217.073V138.878C217.073 137.95 216.882 137.249 216.501 136.775C216.12 136.3 215.566 136.063 214.84 136.063C214.035 136.063 213.431 136.293 213.028 136.753C212.625 137.213 212.424 137.907 212.424 138.835V145.339H210.278Z" fill="#212735"/>
<path d="M201.694 145.598C200.494 145.598 199.548 145.271 198.858 144.616C198.175 143.955 197.833 143.056 197.833 141.92C197.833 141.186 198.006 140.546 198.351 140C198.696 139.453 199.181 139.032 199.807 138.738C200.44 138.436 201.18 138.285 202.029 138.285C202.547 138.285 203.036 138.339 203.496 138.446C203.963 138.554 204.391 138.716 204.779 138.932V138.188C204.779 137.411 204.592 136.839 204.218 136.473C203.845 136.099 203.273 135.912 202.503 135.912C201.971 135.912 201.421 136.009 200.853 136.203C200.292 136.397 199.749 136.67 199.224 137.023L198.599 135.264C199.181 134.883 199.836 134.589 200.562 134.38C201.295 134.164 202.025 134.056 202.752 134.056C204.118 134.056 205.139 134.394 205.815 135.07C206.498 135.746 206.84 136.757 206.84 138.101V145.339H204.779V144.368C204.369 144.764 203.898 145.069 203.366 145.285C202.834 145.493 202.277 145.598 201.694 145.598ZM202.083 143.742C202.572 143.742 203.05 143.631 203.517 143.408C203.992 143.178 204.413 142.858 204.779 142.448V140.744C204.434 140.543 204.042 140.384 203.604 140.269C203.165 140.154 202.744 140.097 202.342 140.097C201.579 140.097 200.979 140.262 200.54 140.593C200.102 140.916 199.882 141.362 199.882 141.93C199.882 142.491 200.077 142.933 200.465 143.257C200.853 143.581 201.392 143.742 202.083 143.742Z" fill="#212735"/>
<path d="M185.889 145.598C184.861 145.598 183.973 145.353 183.225 144.864C182.484 144.375 181.913 143.696 181.51 142.826C181.114 141.956 180.917 140.952 180.917 139.816C180.917 138.608 181.122 137.576 181.532 136.721C181.949 135.858 182.527 135.2 183.268 134.747C184.016 134.287 184.89 134.056 185.889 134.056C186.738 134.056 187.511 134.243 188.208 134.617C188.913 134.984 189.474 135.556 189.891 136.332C190.315 137.102 190.527 138.09 190.527 139.299C190.527 139.471 190.52 139.68 190.506 139.924C190.499 140.161 190.481 140.406 190.452 140.658H183.085C183.142 141.269 183.29 141.808 183.527 142.276C183.772 142.736 184.095 143.095 184.498 143.354C184.9 143.613 185.375 143.742 185.922 143.742C186.403 143.742 186.842 143.66 187.237 143.494C187.633 143.322 188.003 143.056 188.348 142.696L189.6 144.044C189.168 144.497 188.64 144.871 188.014 145.166C187.389 145.454 186.68 145.598 185.889 145.598ZM183.074 138.867H188.392C188.377 138.285 188.269 137.774 188.068 137.335C187.874 136.89 187.59 136.541 187.216 136.289C186.849 136.037 186.4 135.912 185.868 135.912C185.127 135.912 184.491 136.149 183.958 136.624C183.426 137.098 183.132 137.846 183.074 138.867Z" fill="#212735"/>
<path d="M173.279 145.339L169.245 134.315H171.446L173.948 141.402C174.013 141.574 174.074 141.751 174.131 141.93C174.189 142.103 174.243 142.283 174.293 142.47C174.343 142.283 174.394 142.103 174.444 141.93C174.502 141.751 174.563 141.574 174.627 141.402L177.098 134.315H179.276L175.242 145.339H173.279Z" fill="#212735"/>
<path d="M162.068 145.598C160.867 145.598 159.921 145.271 159.231 144.616C158.548 143.955 158.206 143.056 158.206 141.92C158.206 141.186 158.379 140.546 158.724 140C159.069 139.453 159.554 139.032 160.18 138.738C160.813 138.436 161.553 138.285 162.402 138.285C162.92 138.285 163.409 138.339 163.869 138.446C164.336 138.554 164.764 138.716 165.152 138.932V138.188C165.152 137.411 164.965 136.839 164.592 136.473C164.218 136.099 163.646 135.912 162.877 135.912C162.344 135.912 161.794 136.009 161.226 136.203C160.665 136.397 160.122 136.67 159.597 137.023L158.972 135.264C159.554 134.883 160.209 134.589 160.935 134.38C161.668 134.164 162.398 134.056 163.125 134.056C164.491 134.056 165.512 134.394 166.188 135.07C166.871 135.746 167.213 136.757 167.213 138.101V145.339H165.152V144.368C164.743 144.764 164.272 145.069 163.739 145.285C163.207 145.493 162.65 145.598 162.068 145.598ZM162.456 143.742C162.945 143.742 163.423 143.631 163.89 143.408C164.365 143.178 164.786 142.858 165.152 142.448V140.744C164.807 140.543 164.415 140.384 163.977 140.269C163.538 140.154 163.117 140.097 162.715 140.097C161.952 140.097 161.352 140.262 160.913 140.593C160.475 140.916 160.255 141.362 160.255 141.93C160.255 142.491 160.45 142.933 160.838 143.257C161.226 143.581 161.766 143.742 162.456 143.742Z" fill="#212735"/>
<path d="M146.424 145.339V130.756L148.57 129.763V135.437C148.915 134.977 149.329 134.632 149.811 134.402C150.292 134.171 150.839 134.056 151.45 134.056C152.371 134.056 153.118 134.247 153.694 134.628C154.276 135.009 154.7 135.556 154.967 136.268C155.233 136.979 155.366 137.832 155.366 138.824V145.339H153.219V138.878C153.219 138.001 153.039 137.314 152.68 136.818C152.32 136.314 151.756 136.063 150.986 136.063C150.181 136.063 149.577 136.293 149.174 136.753C148.772 137.213 148.57 137.907 148.57 138.835V145.339H146.424Z" fill="#212735"/>
<path d="M135.296 145.339V130.238H137.475V145.339H135.296Z" fill="#212735"/>
<path d="M294.195 172.152C293.749 172.152 293.372 172.001 293.063 171.699C292.761 171.39 292.61 171.023 292.61 170.599C292.61 170.182 292.761 169.815 293.063 169.499C293.372 169.175 293.749 169.013 294.195 169.013C294.648 169.013 295.029 169.175 295.339 169.499C295.648 169.815 295.802 170.182 295.802 170.599C295.802 171.023 295.648 171.39 295.339 171.699C295.029 172.001 294.648 172.152 294.195 172.152ZM294.195 179.756C293.749 179.756 293.372 179.602 293.063 179.292C292.761 178.983 292.61 178.617 292.61 178.192C292.61 177.775 292.761 177.408 293.063 177.092C293.372 176.776 293.749 176.617 294.195 176.617C294.648 176.617 295.029 176.776 295.339 177.092C295.648 177.408 295.802 177.775 295.802 178.192C295.802 178.617 295.648 178.983 295.339 179.292C295.029 179.602 294.648 179.756 294.195 179.756Z" fill="#212735" fill-opacity="0.6"/>
<path d="M286.064 179.735C285.036 179.735 284.148 179.49 283.4 179.001C282.659 178.512 282.087 177.833 281.685 176.963C281.289 176.092 281.092 175.089 281.092 173.953C281.092 172.745 281.296 171.713 281.706 170.858C282.123 169.995 282.702 169.337 283.443 168.884C284.191 168.423 285.064 168.193 286.064 168.193C286.913 168.193 287.686 168.38 288.383 168.754C289.088 169.121 289.649 169.693 290.066 170.469C290.49 171.239 290.702 172.227 290.702 173.435C290.702 173.608 290.695 173.817 290.681 174.061C290.673 174.298 290.655 174.543 290.627 174.795H283.26C283.317 175.406 283.465 175.945 283.702 176.412C283.946 176.873 284.27 177.232 284.673 177.491C285.075 177.75 285.55 177.879 286.096 177.879C286.578 177.879 287.017 177.797 287.412 177.631C287.808 177.459 288.178 177.193 288.523 176.833L289.774 178.181C289.343 178.634 288.815 179.008 288.189 179.303C287.563 179.591 286.855 179.735 286.064 179.735ZM283.249 173.004H288.566C288.552 172.422 288.444 171.911 288.243 171.472C288.049 171.027 287.765 170.678 287.391 170.426C287.024 170.174 286.575 170.049 286.042 170.049C285.302 170.049 284.665 170.286 284.133 170.76C283.601 171.235 283.306 171.983 283.249 173.004Z" fill="#212735" fill-opacity="0.6"/>
<path d="M274.597 179.735C273.626 179.735 272.789 179.505 272.084 179.044C271.386 178.577 270.847 177.915 270.466 177.06C270.092 176.197 269.905 175.168 269.905 173.975C269.905 172.781 270.096 171.753 270.477 170.89C270.865 170.027 271.415 169.362 272.127 168.894C272.839 168.427 273.687 168.193 274.673 168.193C275.686 168.193 276.539 168.427 277.229 168.894C277.926 169.362 278.43 170.049 278.739 170.955L276.711 171.667C276.531 171.199 276.269 170.84 275.924 170.588C275.579 170.336 275.169 170.21 274.694 170.21C273.867 170.21 273.227 170.538 272.774 171.192C272.321 171.846 272.095 172.774 272.095 173.975C272.095 175.154 272.318 176.071 272.763 176.725C273.209 177.372 273.835 177.696 274.64 177.696C275.165 177.696 275.615 177.556 275.988 177.275C276.37 176.995 276.639 176.592 276.797 176.067L278.814 176.715C278.527 177.692 278.02 178.44 277.294 178.958C276.567 179.476 275.668 179.735 274.597 179.735Z" fill="#212735" fill-opacity="0.6"/>
<path d="M257.933 179.476V168.452H260.079V169.552C260.424 169.092 260.834 168.751 261.309 168.528C261.791 168.305 262.341 168.193 262.959 168.193C264.261 168.193 265.239 168.589 265.893 169.38C266.547 170.171 266.874 171.365 266.874 172.961V179.476H264.728V173.015C264.728 172.087 264.537 171.386 264.156 170.911C263.775 170.437 263.221 170.2 262.495 170.2C261.69 170.2 261.086 170.43 260.683 170.89C260.28 171.35 260.079 172.044 260.079 172.972V179.476H257.933Z" fill="#212735" fill-opacity="0.6"/>
<path d="M250.356 179.735C249.327 179.735 248.439 179.49 247.691 179.001C246.951 178.512 246.379 177.833 245.976 176.963C245.581 176.092 245.383 175.089 245.383 173.953C245.383 172.745 245.588 171.713 245.998 170.858C246.415 169.995 246.994 169.337 247.734 168.884C248.482 168.423 249.356 168.193 250.356 168.193C251.204 168.193 251.977 168.38 252.675 168.754C253.379 169.121 253.94 169.693 254.357 170.469C254.781 171.239 254.994 172.227 254.994 173.435C254.994 173.608 254.986 173.817 254.972 174.061C254.965 174.298 254.947 174.543 254.918 174.795H247.551C247.609 175.406 247.756 175.945 247.993 176.412C248.238 176.873 248.561 177.232 248.964 177.491C249.367 177.75 249.841 177.879 250.388 177.879C250.87 177.879 251.308 177.797 251.704 177.631C252.099 177.459 252.47 177.193 252.815 176.833L254.066 178.181C253.635 178.634 253.106 179.008 252.48 179.303C251.855 179.591 251.147 179.735 250.356 179.735ZM247.54 173.004H252.858C252.844 172.422 252.736 171.911 252.534 171.472C252.34 171.027 252.056 170.678 251.682 170.426C251.315 170.174 250.866 170.049 250.334 170.049C249.593 170.049 248.957 170.286 248.425 170.76C247.893 171.235 247.598 171.983 247.54 173.004Z" fill="#212735" fill-opacity="0.6"/>
<path d="M240.342 179.476V168.452H242.489V179.476H240.342ZM241.41 166.651C241.051 166.651 240.741 166.525 240.482 166.273C240.231 166.015 240.105 165.705 240.105 165.346C240.105 164.979 240.231 164.666 240.482 164.407C240.734 164.148 241.043 164.019 241.41 164.019C241.784 164.019 242.097 164.148 242.349 164.407C242.6 164.666 242.726 164.979 242.726 165.346C242.726 165.712 242.6 166.022 242.349 166.273C242.097 166.525 241.784 166.651 241.41 166.651Z" fill="#212735" fill-opacity="0.6"/>
<path d="M231.996 179.735C230.594 179.735 229.487 179.22 228.674 178.192C227.862 177.157 227.455 175.744 227.455 173.953C227.455 172.781 227.642 171.764 228.016 170.901C228.39 170.038 228.915 169.373 229.591 168.905C230.274 168.431 231.08 168.193 232.007 168.193C233.057 168.193 233.945 168.542 234.671 169.24V164.893L236.818 163.9V179.476H234.671V178.602C234.01 179.357 233.118 179.735 231.996 179.735ZM232.32 177.707C232.816 177.707 233.266 177.595 233.668 177.372C234.071 177.142 234.405 176.815 234.671 176.391V171.462C234.405 171.073 234.064 170.768 233.647 170.545C233.237 170.315 232.795 170.2 232.32 170.2C231.457 170.2 230.792 170.523 230.324 171.17C229.857 171.818 229.623 172.745 229.623 173.953C229.623 174.708 229.735 175.37 229.958 175.938C230.181 176.499 230.493 176.934 230.896 177.243C231.299 177.552 231.773 177.707 232.32 177.707Z" fill="#212735" fill-opacity="0.6"/>
<path d="M219.734 179.735C218.418 179.735 217.429 179.339 216.767 178.548C216.106 177.757 215.775 176.571 215.775 174.989V168.452H217.922V174.892C217.922 175.827 218.109 176.531 218.482 177.006C218.864 177.473 219.424 177.707 220.165 177.707C220.971 177.707 221.571 177.477 221.966 177.017C222.369 176.549 222.57 175.855 222.57 174.935V168.452H224.717V179.476H222.57V178.43C222.225 178.876 221.823 179.206 221.362 179.422C220.902 179.631 220.359 179.735 219.734 179.735Z" fill="#212735" fill-opacity="0.6"/>
<path d="M207.532 179.735C206.331 179.735 205.385 179.407 204.695 178.753C204.012 178.092 203.67 177.193 203.67 176.057C203.67 175.323 203.843 174.683 204.188 174.137C204.533 173.59 205.018 173.169 205.644 172.875C206.277 172.573 207.018 172.422 207.866 172.422C208.384 172.422 208.873 172.476 209.333 172.583C209.8 172.691 210.228 172.853 210.617 173.069V172.324C210.617 171.548 210.43 170.976 210.056 170.609C209.682 170.236 209.11 170.049 208.341 170.049C207.808 170.049 207.258 170.146 206.69 170.34C206.129 170.534 205.587 170.807 205.062 171.16L204.436 169.401C205.018 169.02 205.673 168.725 206.399 168.517C207.133 168.301 207.862 168.193 208.589 168.193C209.955 168.193 210.976 168.531 211.652 169.207C212.335 169.883 212.677 170.894 212.677 172.238V179.476H210.617V178.505C210.207 178.901 209.736 179.206 209.204 179.422C208.671 179.63 208.114 179.735 207.532 179.735ZM207.92 177.879C208.409 177.879 208.887 177.768 209.355 177.545C209.829 177.315 210.25 176.995 210.617 176.585V174.881C210.271 174.679 209.879 174.521 209.441 174.406C209.002 174.291 208.582 174.234 208.179 174.234C207.417 174.234 206.816 174.399 206.378 174.73C205.939 175.053 205.72 175.499 205.72 176.067C205.72 176.628 205.914 177.07 206.302 177.394C206.69 177.718 207.23 177.879 207.92 177.879Z" fill="#212735" fill-opacity="0.6"/>
<path d="M193.983 179.735C193.192 179.735 192.588 179.505 192.171 179.044C191.761 178.577 191.556 177.901 191.556 177.016V170.329H189.83V168.452H191.556V164.936L193.703 163.9V168.452H196.345V170.329H193.703V176.445C193.703 176.905 193.785 177.243 193.951 177.459C194.123 177.674 194.389 177.782 194.749 177.782C195.267 177.782 195.827 177.599 196.432 177.232L196.183 179.238C195.853 179.411 195.507 179.537 195.148 179.616C194.788 179.695 194.4 179.735 193.983 179.735Z" fill="#212735" fill-opacity="0.6"/>
<path d="M183.637 179.735C182.608 179.735 181.72 179.49 180.973 179.001C180.232 178.512 179.66 177.833 179.258 176.963C178.862 176.092 178.664 175.089 178.664 173.953C178.664 172.745 178.869 171.713 179.279 170.858C179.696 169.995 180.275 169.337 181.016 168.884C181.764 168.423 182.637 168.193 183.637 168.193C184.485 168.193 185.258 168.38 185.956 168.754C186.661 169.121 187.221 169.693 187.638 170.469C188.063 171.239 188.275 172.227 188.275 173.435C188.275 173.608 188.268 173.817 188.253 174.061C188.246 174.298 188.228 174.543 188.199 174.795H180.832C180.89 175.406 181.037 175.945 181.275 176.412C181.519 176.873 181.843 177.232 182.245 177.491C182.648 177.75 183.123 177.879 183.669 177.879C184.151 177.879 184.59 177.797 184.985 177.631C185.381 177.459 185.751 177.193 186.096 176.833L187.347 178.181C186.916 178.634 186.387 179.008 185.762 179.303C185.136 179.591 184.428 179.735 183.637 179.735ZM180.822 173.004H186.139C186.125 172.422 186.017 171.911 185.816 171.472C185.621 171.027 185.337 170.678 184.963 170.426C184.597 170.174 184.147 170.049 183.615 170.049C182.875 170.049 182.238 170.286 181.706 170.76C181.174 171.235 180.879 171.983 180.822 173.004Z" fill="#212735" fill-opacity="0.6"/>
<path d="M170.725 184.071L169.625 182.345C170.632 182.28 171.437 182.151 172.041 181.957C172.652 181.762 173.094 181.489 173.368 181.137C173.641 180.785 173.778 180.339 173.778 179.799V178.537C173.152 179.336 172.257 179.735 171.092 179.735C170.171 179.735 169.37 179.497 168.686 179.023C168.003 178.548 167.475 177.879 167.101 177.017C166.734 176.146 166.551 175.125 166.551 173.953C166.551 172.781 166.738 171.764 167.112 170.901C167.493 170.038 168.025 169.373 168.708 168.905C169.398 168.431 170.211 168.193 171.146 168.193C171.678 168.193 172.17 168.287 172.623 168.474C173.084 168.661 173.468 168.923 173.778 169.261V168.452H175.924V178.947C175.924 179.796 175.823 180.529 175.622 181.148C175.428 181.766 175.119 182.28 174.694 182.69C174.27 183.107 173.731 183.427 173.076 183.65C172.422 183.873 171.638 184.013 170.725 184.071ZM171.502 177.707C171.94 177.707 172.365 177.585 172.774 177.34C173.192 177.088 173.526 176.758 173.778 176.348V171.505C173.547 171.124 173.217 170.811 172.785 170.566C172.354 170.322 171.93 170.2 171.512 170.2C170.606 170.2 169.912 170.52 169.431 171.16C168.956 171.8 168.719 172.731 168.719 173.953C168.719 174.723 168.83 175.391 169.053 175.959C169.283 176.52 169.607 176.952 170.024 177.254C170.441 177.556 170.934 177.707 171.502 177.707Z" fill="#212735" fill-opacity="0.6"/>
<path d="M159.129 179.476V168.452H161.275V169.811C161.513 169.294 161.851 168.894 162.289 168.614C162.728 168.334 163.228 168.193 163.789 168.193C164.493 168.193 165.09 168.409 165.579 168.841L165.266 170.836C165.015 170.649 164.756 170.512 164.49 170.426C164.224 170.34 163.936 170.297 163.627 170.297C163.145 170.297 162.728 170.423 162.376 170.674C162.03 170.919 161.761 171.267 161.567 171.72C161.372 172.173 161.275 172.709 161.275 173.328V179.476H159.129Z" fill="#212735" fill-opacity="0.6"/>
<path d="M150.546 179.735C149.345 179.735 148.399 179.407 147.709 178.753C147.026 178.092 146.684 177.193 146.684 176.057C146.684 175.323 146.857 174.683 147.202 174.137C147.547 173.59 148.032 173.169 148.658 172.875C149.291 172.573 150.031 172.422 150.88 172.422C151.398 172.422 151.887 172.476 152.347 172.583C152.814 172.691 153.242 172.853 153.63 173.069V172.324C153.63 171.548 153.443 170.976 153.07 170.609C152.696 170.236 152.124 170.049 151.355 170.049C150.822 170.049 150.272 170.146 149.704 170.34C149.143 170.534 148.6 170.807 148.076 171.16L147.45 169.401C148.032 169.02 148.687 168.725 149.413 168.517C150.146 168.301 150.876 168.193 151.603 168.193C152.969 168.193 153.99 168.531 154.666 169.207C155.349 169.883 155.691 170.894 155.691 172.238V179.476H153.63V178.505C153.221 178.901 152.75 179.206 152.217 179.422C151.685 179.63 151.128 179.735 150.546 179.735ZM150.934 177.879C151.423 177.879 151.901 177.768 152.368 177.545C152.843 177.315 153.264 176.995 153.63 176.585V174.881C153.285 174.679 152.893 174.521 152.455 174.406C152.016 174.291 151.595 174.234 151.193 174.234C150.431 174.234 149.83 174.399 149.391 174.73C148.953 175.053 148.733 175.499 148.733 176.067C148.733 176.628 148.928 177.07 149.316 177.394C149.704 177.718 150.244 177.879 150.934 177.879Z" fill="#212735" fill-opacity="0.6"/>
<path d="M139.524 179.476V166.468H135.296V164.375H145.942V166.468H141.703V179.476H139.524Z" fill="#212735" fill-opacity="0.6"/>
<rect x="135.296" y="188.865" width="287.634" height="39.8038" rx="11.9847" fill="#6941C7" fill-opacity="0.08"/>
<path d="M319.636 216.684C318.219 216.684 317.108 216.173 316.303 215.152C315.497 214.131 315.095 212.714 315.095 210.902C315.095 209.752 315.285 208.745 315.666 207.882C316.048 207.019 316.58 206.347 317.263 205.865C317.953 205.383 318.755 205.142 319.668 205.142C320.646 205.142 321.448 205.502 322.073 206.221V202.068L324.759 200.849V216.425H322.073V215.519C321.541 216.295 320.729 216.684 319.636 216.684ZM320.078 214.106C320.538 214.106 320.93 214.027 321.254 213.868C321.577 213.703 321.851 213.459 322.073 213.135V208.68C321.851 208.378 321.559 208.141 321.2 207.968C320.847 207.796 320.473 207.709 320.078 207.709C319.352 207.709 318.791 207.986 318.395 208.54C318 209.086 317.802 209.874 317.802 210.902C317.802 211.578 317.892 212.157 318.072 212.639C318.252 213.113 318.51 213.476 318.848 213.728C319.186 213.98 319.596 214.106 320.078 214.106Z" fill="#212735"/>
<path d="M309.507 216.425V202.068L312.204 200.849V216.425H309.507Z" fill="#212735"/>
<path d="M301.624 216.684C300.071 216.684 298.845 216.169 297.946 215.141C297.047 214.113 296.598 212.707 296.598 210.924C296.598 209.744 296.803 208.723 297.213 207.86C297.623 206.99 298.201 206.322 298.949 205.854C299.704 205.38 300.596 205.142 301.624 205.142C302.645 205.142 303.53 205.376 304.278 205.843C305.026 206.311 305.601 206.976 306.004 207.839C306.406 208.702 306.608 209.726 306.608 210.913C306.608 212.107 306.406 213.135 306.004 213.998C305.608 214.861 305.036 215.526 304.288 215.993C303.541 216.454 302.653 216.684 301.624 216.684ZM301.624 214.106C302.351 214.106 302.915 213.825 303.318 213.264C303.72 212.704 303.922 211.92 303.922 210.913C303.922 209.906 303.717 209.122 303.307 208.562C302.904 207.994 302.343 207.709 301.624 207.709C300.898 207.709 300.33 207.994 299.92 208.562C299.51 209.13 299.305 209.917 299.305 210.924C299.305 211.916 299.51 212.696 299.92 213.264C300.33 213.825 300.898 214.106 301.624 214.106Z" fill="#212735"/>
<path d="M284.772 216.684C283.909 216.684 283.082 216.5 282.291 216.134C281.508 215.767 280.886 215.274 280.425 214.656L282.194 213.167C282.561 213.556 282.985 213.865 283.467 214.095C283.949 214.318 284.409 214.429 284.848 214.429C285.394 214.429 285.815 214.339 286.11 214.16C286.404 213.973 286.552 213.714 286.552 213.383C286.552 213.167 286.48 212.977 286.336 212.811C286.2 212.639 285.955 212.466 285.603 212.294C285.25 212.114 284.754 211.909 284.114 211.679C282.877 211.226 282 210.737 281.482 210.212C280.965 209.68 280.706 209.007 280.706 208.195C280.706 207.289 281.072 206.555 281.806 205.994C282.539 205.426 283.496 205.142 284.675 205.142C285.48 205.142 286.221 205.293 286.897 205.595C287.58 205.897 288.166 206.34 288.655 206.922L286.897 208.378C286.25 207.724 285.495 207.397 284.632 207.397C284.193 207.397 283.841 207.479 283.575 207.645C283.309 207.803 283.176 208.019 283.176 208.292C283.176 208.558 283.33 208.795 283.64 209.004C283.956 209.212 284.542 209.457 285.398 209.737C286.246 210.003 286.933 210.305 287.458 210.643C287.99 210.981 288.378 211.373 288.623 211.819C288.875 212.265 289 212.779 289 213.361C289 214.397 288.623 215.21 287.868 215.799C287.12 216.389 286.088 216.684 284.772 216.684Z" fill="#212735"/>
<path d="M272.385 216.425V205.401H275.081V206.588C275.283 206.163 275.599 205.818 276.031 205.552C276.462 205.279 276.915 205.142 277.39 205.142C278.173 205.142 278.835 205.412 279.374 205.951L278.997 208.421C278.702 208.177 278.414 208.004 278.134 207.904C277.853 207.803 277.544 207.753 277.206 207.753C276.76 207.753 276.379 207.857 276.063 208.065C275.746 208.274 275.502 208.576 275.329 208.971C275.164 209.367 275.081 209.842 275.081 210.395V216.425H272.385Z" fill="#212735"/>
<path d="M263.508 216.684C262.307 216.684 261.354 216.36 260.649 215.713C259.952 215.059 259.603 214.174 259.603 213.059C259.603 212.34 259.783 211.711 260.142 211.172C260.509 210.625 261.016 210.205 261.663 209.91C262.318 209.608 263.08 209.457 263.95 209.457C264.432 209.457 264.895 209.504 265.341 209.597C265.794 209.683 266.19 209.809 266.528 209.975V209.284C266.528 208.666 266.352 208.202 265.999 207.893C265.654 207.576 265.144 207.418 264.468 207.418C263.928 207.418 263.375 207.515 262.807 207.709C262.238 207.904 261.663 208.191 261.081 208.572L260.272 206.447C260.905 206.03 261.609 205.71 262.386 205.487C263.162 205.257 263.946 205.142 264.737 205.142C266.219 205.142 267.326 205.495 268.059 206.199C268.793 206.897 269.16 207.94 269.16 209.327V216.425H266.528V215.54C266.154 215.914 265.708 216.198 265.19 216.392C264.68 216.587 264.119 216.684 263.508 216.684ZM264.133 214.408C264.579 214.408 265.007 214.321 265.417 214.149C265.834 213.969 266.204 213.717 266.528 213.394V212.089C266.219 211.938 265.873 211.823 265.492 211.744C265.118 211.657 264.744 211.614 264.371 211.614C263.702 211.614 263.173 211.744 262.785 212.002C262.404 212.254 262.213 212.606 262.213 213.059C262.213 213.484 262.382 213.814 262.72 214.052C263.058 214.289 263.529 214.408 264.133 214.408Z" fill="#212735"/>
<path d="M252.888 216.684C251.831 216.684 250.918 216.446 250.149 215.972C249.386 215.497 248.797 214.828 248.38 213.965C247.97 213.095 247.765 212.074 247.765 210.902C247.765 209.716 247.973 208.691 248.39 207.828C248.815 206.965 249.408 206.304 250.17 205.843C250.94 205.376 251.846 205.142 252.888 205.142C253.78 205.142 254.589 205.329 255.315 205.703C256.042 206.077 256.62 206.652 257.052 207.429C257.483 208.198 257.699 209.18 257.699 210.374C257.699 210.561 257.692 210.791 257.677 211.064C257.67 211.33 257.652 211.6 257.624 211.873H250.429C250.458 212.376 250.573 212.819 250.774 213.2C250.983 213.574 251.267 213.865 251.626 214.073C251.986 214.282 252.41 214.386 252.899 214.386C253.424 214.386 253.881 214.3 254.269 214.127C254.657 213.948 255.024 213.663 255.369 213.275L256.922 214.882C256.448 215.422 255.876 215.857 255.207 216.187C254.539 216.518 253.766 216.684 252.888 216.684ZM250.44 209.77H255.089C255.053 209.288 254.945 208.874 254.765 208.529C254.585 208.177 254.334 207.907 254.01 207.72C253.687 207.533 253.295 207.44 252.834 207.44C252.202 207.44 251.662 207.634 251.216 208.022C250.771 208.411 250.512 208.993 250.44 209.77Z" fill="#212735"/>
<path d="M239.895 216.425V210.535L234.362 201.324H237.511L241.276 207.623L245.051 201.324H248.179L242.667 210.514V216.425H239.895Z" fill="#212735"/>
<path d="M222.254 216.684C221.491 216.684 220.805 216.605 220.193 216.446C219.582 216.295 219.05 216.101 218.597 215.864C218.144 215.619 217.774 215.375 217.486 215.13L218.985 212.941C219.244 213.135 219.532 213.318 219.848 213.491C220.172 213.656 220.528 213.793 220.916 213.901C221.312 214.009 221.754 214.063 222.243 214.063C222.825 214.063 223.336 213.955 223.774 213.739C224.22 213.523 224.569 213.218 224.821 212.822C225.072 212.427 225.198 211.959 225.198 211.42C225.198 210.953 225.108 210.543 224.929 210.19C224.756 209.831 224.504 209.55 224.174 209.349C223.85 209.14 223.451 209.036 222.976 209.036C222.379 209.036 221.88 209.144 221.477 209.36C221.074 209.568 220.726 209.842 220.431 210.179L217.95 208.982L218.468 201.324H227.032V203.988H221.013L220.744 206.965C221.089 206.793 221.452 206.656 221.833 206.555C222.214 206.447 222.62 206.394 223.052 206.394C224.109 206.394 225.004 206.616 225.738 207.062C226.478 207.508 227.039 208.109 227.42 208.864C227.809 209.619 228.003 210.46 228.003 211.388C228.003 212.437 227.755 213.361 227.258 214.16C226.769 214.951 226.094 215.569 225.231 216.015C224.368 216.461 223.375 216.684 222.254 216.684Z" fill="#212735"/>
<path d="M210.387 216.425V213.297H202.675V211.549L210.441 201.324H213.116V210.719H215.025V213.297H213.116V216.425H210.387ZM206.299 210.719H210.387V205.196L206.299 210.719Z" fill="#212735"/>
<path d="M187.262 211.409V209.047H195.783V211.409H187.262Z" fill="#212735"/>
<path d="M173.932 216.684C172.839 216.684 171.89 216.482 171.085 216.08C170.279 215.677 169.654 215.116 169.208 214.397C168.769 213.678 168.55 212.844 168.55 211.895C168.55 211.017 168.776 210.259 169.229 209.619C169.69 208.972 170.304 208.479 171.074 208.141C170.75 207.976 170.441 207.749 170.146 207.461C169.851 207.174 169.61 206.829 169.423 206.426C169.244 206.016 169.154 205.556 169.154 205.045C169.154 204.269 169.344 203.582 169.726 202.985C170.114 202.388 170.664 201.921 171.376 201.583C172.095 201.238 172.947 201.065 173.932 201.065C174.924 201.065 175.777 201.238 176.488 201.583C177.208 201.921 177.761 202.388 178.15 202.985C178.538 203.582 178.732 204.269 178.732 205.045C178.732 205.541 178.639 205.995 178.452 206.404C178.265 206.807 178.024 207.156 177.729 207.451C177.434 207.738 177.121 207.961 176.791 208.119C177.546 208.45 178.16 208.946 178.635 209.608C179.11 210.269 179.347 211.032 179.347 211.895C179.347 212.844 179.128 213.678 178.689 214.397C178.25 215.116 177.625 215.677 176.812 216.08C176 216.482 175.04 216.684 173.932 216.684ZM173.932 214.181C174.436 214.181 174.885 214.084 175.28 213.89C175.676 213.689 175.985 213.412 176.208 213.06C176.438 212.7 176.553 212.286 176.553 211.819C176.553 211.366 176.442 210.963 176.219 210.611C175.996 210.251 175.687 209.971 175.291 209.77C174.896 209.568 174.443 209.468 173.932 209.468C173.414 209.468 172.958 209.568 172.562 209.77C172.174 209.971 171.872 210.251 171.656 210.611C171.441 210.963 171.333 211.366 171.333 211.819C171.333 212.286 171.441 212.7 171.656 213.06C171.879 213.412 172.185 213.689 172.573 213.89C172.969 214.084 173.422 214.181 173.932 214.181ZM173.932 206.998C174.543 206.998 175.032 206.832 175.399 206.501C175.773 206.171 175.96 205.757 175.96 205.261C175.96 204.743 175.769 204.323 175.388 203.999C175.014 203.675 174.529 203.514 173.932 203.514C173.314 203.514 172.825 203.675 172.465 203.999C172.106 204.323 171.926 204.743 171.926 205.261C171.926 205.757 172.102 206.171 172.454 206.501C172.807 206.832 173.299 206.998 173.932 206.998Z" fill="#212735"/>
<path d="M161.584 216.425V205.153H159.265V202.963C159.747 202.963 160.182 202.913 160.57 202.812C160.959 202.712 161.286 202.543 161.552 202.306C161.825 202.068 162.03 201.741 162.167 201.324H164.378V216.425H161.584Z" fill="#212735"/>
<path d="M345.406 256.096C344.961 256.096 344.583 255.945 344.274 255.643C343.972 255.333 343.821 254.967 343.821 254.542C343.821 254.125 343.972 253.759 344.274 253.442C344.583 253.119 344.961 252.957 345.406 252.957C345.859 252.957 346.241 253.119 346.55 253.442C346.859 253.759 347.014 254.125 347.014 254.542C347.014 254.967 346.859 255.333 346.55 255.643C346.241 255.945 345.859 256.096 345.406 256.096ZM345.406 263.7C344.961 263.7 344.583 263.545 344.274 263.236C343.972 262.927 343.821 262.56 343.821 262.136C343.821 261.719 343.972 261.352 344.274 261.036C344.583 260.719 344.961 260.561 345.406 260.561C345.859 260.561 346.241 260.719 346.55 261.036C346.859 261.352 347.014 261.719 347.014 262.136C347.014 262.56 346.859 262.927 346.55 263.236C346.241 263.545 345.859 263.7 345.406 263.7Z" fill="#212735" fill-opacity="0.6"/>
<path d="M335.718 268.014L334.618 266.289C335.625 266.224 336.43 266.094 337.034 265.9C337.646 265.706 338.088 265.433 338.361 265.08C338.634 264.728 338.771 264.282 338.771 263.743V262.481C338.145 263.279 337.25 263.678 336.085 263.678C335.165 263.678 334.363 263.441 333.68 262.966C332.997 262.492 332.468 261.823 332.094 260.96C331.728 260.09 331.544 259.069 331.544 257.897C331.544 256.725 331.731 255.707 332.105 254.844C332.486 253.981 333.018 253.316 333.701 252.849C334.392 252.374 335.204 252.137 336.139 252.137C336.671 252.137 337.164 252.23 337.617 252.417C338.077 252.604 338.462 252.867 338.771 253.205V252.396H340.917V262.891C340.917 263.739 340.817 264.473 340.615 265.091C340.421 265.71 340.112 266.224 339.688 266.634C339.264 267.051 338.724 267.371 338.07 267.594C337.416 267.817 336.632 267.957 335.718 268.014ZM336.495 261.65C336.934 261.65 337.358 261.528 337.768 261.284C338.185 261.032 338.519 260.701 338.771 260.291V255.448C338.541 255.067 338.21 254.754 337.779 254.51C337.347 254.265 336.923 254.143 336.506 254.143C335.6 254.143 334.906 254.463 334.424 255.103C333.95 255.743 333.712 256.674 333.712 257.897C333.712 258.666 333.824 259.335 334.047 259.903C334.277 260.464 334.6 260.895 335.017 261.197C335.434 261.499 335.927 261.65 336.495 261.65Z" fill="#212735" fill-opacity="0.6"/>
<path d="M319.572 263.419V252.396H321.718V253.496C322.063 253.036 322.473 252.694 322.948 252.471C323.43 252.248 323.98 252.137 324.598 252.137C325.9 252.137 326.878 252.532 327.532 253.323C328.186 254.114 328.514 255.308 328.514 256.904V263.419H326.367V256.958C326.367 256.031 326.177 255.33 325.795 254.855C325.414 254.381 324.861 254.143 324.134 254.143C323.329 254.143 322.725 254.373 322.322 254.834C321.92 255.294 321.718 255.988 321.718 256.915V263.419H319.572Z" fill="#212735" fill-opacity="0.6"/>
<path d="M313.905 263.419V252.396H316.052V263.419H313.905ZM314.973 250.594C314.614 250.594 314.304 250.469 314.045 250.217C313.794 249.958 313.668 249.649 313.668 249.289C313.668 248.923 313.794 248.61 314.045 248.351C314.297 248.092 314.606 247.963 314.973 247.963C315.347 247.963 315.66 248.092 315.912 248.351C316.163 248.61 316.289 248.923 316.289 249.289C316.289 249.656 316.163 249.965 315.912 250.217C315.66 250.469 315.347 250.594 314.973 250.594Z" fill="#212735" fill-opacity="0.6"/>
<path d="M309.153 263.678C308.362 263.678 307.758 263.448 307.341 262.988C306.931 262.52 306.727 261.845 306.727 260.96V254.273H305.001V252.396H306.727V248.879L308.873 247.844V252.396H311.516V254.273H308.873V260.388C308.873 260.849 308.956 261.187 309.121 261.402C309.294 261.618 309.56 261.726 309.919 261.726C310.437 261.726 310.998 261.543 311.602 261.176L311.354 263.182C311.023 263.355 310.678 263.48 310.318 263.56C309.959 263.639 309.571 263.678 309.153 263.678Z" fill="#212735" fill-opacity="0.6"/>
<path d="M298.807 263.678C297.779 263.678 296.891 263.434 296.143 262.945C295.402 262.456 294.83 261.776 294.428 260.906C294.032 260.036 293.834 259.033 293.834 257.897C293.834 256.689 294.039 255.657 294.449 254.801C294.866 253.938 295.445 253.28 296.186 252.827C296.934 252.367 297.807 252.137 298.807 252.137C299.655 252.137 300.428 252.324 301.126 252.698C301.831 253.065 302.392 253.636 302.809 254.413C303.233 255.182 303.445 256.171 303.445 257.379C303.445 257.552 303.438 257.76 303.423 258.005C303.416 258.242 303.398 258.486 303.37 258.738H296.003C296.06 259.349 296.207 259.889 296.445 260.356C296.689 260.816 297.013 261.176 297.416 261.435C297.818 261.694 298.293 261.823 298.839 261.823C299.321 261.823 299.76 261.74 300.155 261.575C300.551 261.402 300.921 261.136 301.266 260.777L302.517 262.125C302.086 262.578 301.557 262.952 300.932 263.247C300.306 263.534 299.598 263.678 298.807 263.678ZM295.992 256.948H301.309C301.295 256.365 301.187 255.855 300.986 255.416C300.792 254.97 300.508 254.621 300.134 254.37C299.767 254.118 299.317 253.992 298.785 253.992C298.045 253.992 297.408 254.229 296.876 254.704C296.344 255.179 296.049 255.927 295.992 256.948Z" fill="#212735" fill-opacity="0.6"/>
<path d="M283.421 263.419V248.858L285.567 247.844V255.977L288.976 252.396H291.532L288.544 255.448L292.654 263.419H290.313L287.013 257.002L285.567 258.479V263.419H283.421Z" fill="#212735" fill-opacity="0.6"/>
<path d="M274.931 263.419V252.396H277.078V253.755C277.315 253.237 277.653 252.838 278.092 252.558C278.53 252.277 279.03 252.137 279.591 252.137C280.296 252.137 280.892 252.353 281.381 252.784L281.069 254.78C280.817 254.593 280.558 254.456 280.292 254.37C280.026 254.283 279.738 254.24 279.429 254.24C278.947 254.24 278.53 254.366 278.178 254.618C277.833 254.862 277.563 255.211 277.369 255.664C277.175 256.117 277.078 256.653 277.078 257.271V263.419H274.931Z" fill="#212735" fill-opacity="0.6"/>
<path d="M266.348 263.678C265.147 263.678 264.201 263.351 263.511 262.697C262.828 262.035 262.486 261.136 262.486 260C262.486 259.267 262.659 258.627 263.004 258.08C263.349 257.534 263.835 257.113 264.46 256.818C265.093 256.516 265.834 256.365 266.682 256.365C267.2 256.365 267.689 256.419 268.149 256.527C268.617 256.635 269.044 256.797 269.433 257.012V256.268C269.433 255.491 269.246 254.92 268.872 254.553C268.498 254.179 267.926 253.992 267.157 253.992C266.625 253.992 266.075 254.089 265.506 254.283C264.946 254.478 264.403 254.751 263.878 255.103L263.252 253.345C263.835 252.964 264.489 252.669 265.215 252.461C265.949 252.245 266.679 252.137 267.405 252.137C268.771 252.137 269.792 252.475 270.468 253.151C271.151 253.827 271.493 254.837 271.493 256.182V263.419H269.433V262.449C269.023 262.844 268.552 263.15 268.02 263.365C267.488 263.574 266.93 263.678 266.348 263.678ZM266.736 261.823C267.225 261.823 267.703 261.712 268.171 261.489C268.645 261.259 269.066 260.939 269.433 260.529V258.824C269.088 258.623 268.696 258.465 268.257 258.35C267.818 258.235 267.398 258.177 266.995 258.177C266.233 258.177 265.632 258.343 265.194 258.673C264.755 258.997 264.536 259.443 264.536 260.011C264.536 260.572 264.73 261.014 265.118 261.338C265.506 261.661 266.046 261.823 266.736 261.823Z" fill="#212735" fill-opacity="0.6"/>
<path d="M244.574 263.419V252.396H246.72V253.431C247.051 253 247.454 252.676 247.928 252.461C248.41 252.245 248.949 252.137 249.546 252.137C250.193 252.137 250.769 252.277 251.272 252.558C251.775 252.831 252.164 253.223 252.437 253.733C252.789 253.223 253.246 252.831 253.807 252.558C254.368 252.277 254.997 252.137 255.694 252.137C256.931 252.137 257.898 252.504 258.596 253.237C259.293 253.963 259.642 254.977 259.642 256.279V263.419H257.496V256.948C257.496 256.027 257.316 255.33 256.956 254.855C256.604 254.381 256.086 254.143 255.403 254.143C254.943 254.143 254.544 254.258 254.206 254.488C253.875 254.711 253.62 255.038 253.44 255.47C253.26 255.894 253.17 256.398 253.17 256.98V263.419H251.024V256.948C251.024 256.013 250.851 255.312 250.506 254.844C250.161 254.377 249.64 254.143 248.942 254.143C248.237 254.143 247.691 254.384 247.303 254.866C246.914 255.348 246.72 256.031 246.72 256.915V263.419H244.574Z" fill="#212735" fill-opacity="0.6"/>
<path d="M231.067 263.678C229.664 263.678 228.557 263.164 227.744 262.136C226.932 261.1 226.526 259.687 226.526 257.897C226.526 256.725 226.713 255.707 227.087 254.844C227.46 253.981 227.985 253.316 228.661 252.849C229.344 252.374 230.15 252.137 231.077 252.137C232.127 252.137 233.015 252.486 233.742 253.183V248.836L235.888 247.844V263.419H233.742V262.546C233.08 263.301 232.188 263.678 231.067 263.678ZM231.39 261.65C231.886 261.65 232.336 261.539 232.739 261.316C233.141 261.086 233.476 260.759 233.742 260.334V255.405C233.476 255.017 233.134 254.711 232.717 254.488C232.307 254.258 231.865 254.143 231.39 254.143C230.527 254.143 229.862 254.467 229.395 255.114C228.927 255.761 228.694 256.689 228.694 257.897C228.694 258.652 228.805 259.313 229.028 259.881C229.251 260.442 229.564 260.877 229.966 261.187C230.369 261.496 230.844 261.65 231.39 261.65Z" fill="#212735" fill-opacity="0.6"/>
<path d="M219.364 263.678C218.335 263.678 217.447 263.434 216.699 262.945C215.959 262.456 215.387 261.776 214.984 260.906C214.589 260.036 214.391 259.033 214.391 257.897C214.391 256.689 214.596 255.657 215.006 254.801C215.423 253.938 216.002 253.28 216.743 252.827C217.49 252.367 218.364 252.137 219.364 252.137C220.212 252.137 220.985 252.324 221.683 252.698C222.387 253.065 222.948 253.636 223.365 254.413C223.79 255.182 224.002 256.171 224.002 257.379C224.002 257.552 223.994 257.76 223.98 258.005C223.973 258.242 223.955 258.486 223.926 258.738H216.559C216.617 259.349 216.764 259.889 217.001 260.356C217.246 260.816 217.569 261.176 217.972 261.435C218.375 261.694 218.849 261.823 219.396 261.823C219.878 261.823 220.316 261.74 220.712 261.575C221.107 261.402 221.478 261.136 221.823 260.777L223.074 262.125C222.643 262.578 222.114 262.952 221.488 263.247C220.863 263.534 220.155 263.678 219.364 263.678ZM216.548 256.948H221.866C221.852 256.365 221.744 255.855 221.542 255.416C221.348 254.97 221.064 254.621 220.69 254.37C220.324 254.118 219.874 253.992 219.342 253.992C218.601 253.992 217.965 254.229 217.433 254.704C216.901 255.179 216.606 255.927 216.548 256.948Z" fill="#212735" fill-opacity="0.6"/>
<path d="M210.034 263.678C209.243 263.678 208.639 263.448 208.221 262.988C207.812 262.52 207.607 261.845 207.607 260.96V254.273H205.881V252.396H207.607V248.879L209.753 247.844V252.396H212.396V254.273H209.753V260.388C209.753 260.849 209.836 261.187 210.001 261.402C210.174 261.618 210.44 261.726 210.799 261.726C211.317 261.726 211.878 261.543 212.482 261.176L212.234 263.182C211.903 263.355 211.558 263.48 211.198 263.56C210.839 263.639 210.451 263.678 210.034 263.678Z" fill="#212735" fill-opacity="0.6"/>
<path d="M200.265 263.678C199.459 263.678 198.686 263.506 197.946 263.161C197.212 262.815 196.615 262.352 196.155 261.769L197.644 260.507C198.025 260.917 198.453 261.237 198.927 261.467C199.402 261.69 199.866 261.801 200.319 261.801C200.937 261.801 201.415 261.69 201.753 261.467C202.091 261.237 202.26 260.921 202.26 260.518C202.26 260.259 202.181 260.025 202.023 259.817C201.872 259.601 201.613 259.396 201.246 259.202C200.879 259.001 200.383 258.785 199.758 258.555C198.535 258.102 197.662 257.613 197.137 257.088C196.612 256.556 196.349 255.891 196.349 255.092C196.349 254.215 196.702 253.503 197.406 252.957C198.111 252.41 199.024 252.137 200.146 252.137C200.923 252.137 201.634 252.284 202.282 252.579C202.929 252.867 203.486 253.287 203.953 253.841L202.497 255.038C201.843 254.355 201.052 254.014 200.124 254.014C199.599 254.014 199.182 254.114 198.873 254.316C198.564 254.51 198.409 254.78 198.409 255.125C198.409 255.463 198.586 255.758 198.938 256.009C199.29 256.261 199.934 256.556 200.869 256.894C201.674 257.174 202.328 257.483 202.832 257.821C203.342 258.159 203.713 258.548 203.943 258.986C204.18 259.418 204.299 259.917 204.299 260.486C204.299 261.478 203.939 262.258 203.22 262.826C202.508 263.394 201.523 263.678 200.265 263.678Z" fill="#212735" fill-opacity="0.6"/>
<path d="M189.701 263.678C188.673 263.678 187.785 263.434 187.037 262.945C186.297 262.456 185.725 261.776 185.322 260.906C184.927 260.036 184.729 259.033 184.729 257.897C184.729 256.689 184.934 255.657 185.344 254.801C185.761 253.938 186.34 253.28 187.08 252.827C187.828 252.367 188.702 252.137 189.701 252.137C190.55 252.137 191.323 252.324 192.021 252.698C192.725 253.065 193.286 253.636 193.703 254.413C194.127 255.182 194.34 256.171 194.34 257.379C194.34 257.552 194.332 257.76 194.318 258.005C194.311 258.242 194.293 258.486 194.264 258.738H186.897C186.955 259.349 187.102 259.889 187.339 260.356C187.584 260.816 187.907 261.176 188.31 261.435C188.713 261.694 189.187 261.823 189.734 261.823C190.216 261.823 190.654 261.74 191.05 261.575C191.445 261.402 191.816 261.136 192.161 260.777L193.412 262.125C192.98 262.578 192.452 262.952 191.826 263.247C191.201 263.534 190.492 263.678 189.701 263.678ZM186.886 256.948H192.204C192.189 256.365 192.082 255.855 191.88 255.416C191.686 254.97 191.402 254.621 191.028 254.37C190.661 254.118 190.212 253.992 189.68 253.992C188.939 253.992 188.303 254.229 187.771 254.704C187.239 255.179 186.944 255.927 186.886 256.948Z" fill="#212735" fill-opacity="0.6"/>
<path d="M176.79 268.014L175.689 266.289C176.696 266.224 177.501 266.094 178.105 265.9C178.717 265.706 179.159 265.433 179.432 265.08C179.705 264.728 179.842 264.282 179.842 263.743V262.481C179.216 263.279 178.321 263.678 177.156 263.678C176.236 263.678 175.434 263.441 174.751 262.966C174.068 262.492 173.539 261.823 173.165 260.96C172.799 260.09 172.615 259.069 172.615 257.897C172.615 256.725 172.802 255.707 173.176 254.844C173.557 253.981 174.089 253.316 174.772 252.849C175.463 252.374 176.275 252.137 177.21 252.137C177.742 252.137 178.235 252.23 178.688 252.417C179.148 252.604 179.533 252.867 179.842 253.205V252.396H181.988V262.891C181.988 263.739 181.888 264.473 181.686 265.091C181.492 265.71 181.183 266.224 180.759 266.634C180.335 267.051 179.795 267.371 179.141 267.594C178.487 267.817 177.703 267.957 176.79 268.014ZM177.566 261.65C178.005 261.65 178.429 261.528 178.839 261.284C179.256 261.032 179.59 260.701 179.842 260.291V255.448C179.612 255.067 179.281 254.754 178.85 254.51C178.418 254.265 177.994 254.143 177.577 254.143C176.671 254.143 175.977 254.463 175.495 255.103C175.021 255.743 174.783 256.674 174.783 257.897C174.783 258.666 174.895 259.335 175.118 259.903C175.348 260.464 175.671 260.895 176.088 261.197C176.505 261.499 176.998 261.65 177.566 261.65Z" fill="#212735" fill-opacity="0.6"/>
<path d="M164.676 268.014L163.576 266.289C164.583 266.224 165.388 266.094 165.992 265.9C166.603 265.706 167.046 265.433 167.319 265.08C167.592 264.728 167.729 264.282 167.729 263.743V262.481C167.103 263.279 166.208 263.678 165.043 263.678C164.123 263.678 163.321 263.441 162.638 262.966C161.955 262.492 161.426 261.823 161.052 260.96C160.685 260.09 160.502 259.069 160.502 257.897C160.502 256.725 160.689 255.707 161.063 254.844C161.444 253.981 161.976 253.316 162.659 252.849C163.35 252.374 164.162 252.137 165.097 252.137C165.629 252.137 166.122 252.23 166.575 252.417C167.035 252.604 167.42 252.867 167.729 253.205V252.396H169.875V262.891C169.875 263.739 169.775 264.473 169.573 265.091C169.379 265.71 169.07 266.224 168.646 266.634C168.221 267.051 167.682 267.371 167.028 267.594C166.373 267.817 165.589 267.957 164.676 268.014ZM165.453 261.65C165.891 261.65 166.316 261.528 166.726 261.284C167.143 261.032 167.477 260.701 167.729 260.291V255.448C167.499 255.067 167.168 254.754 166.736 254.51C166.305 254.265 165.881 254.143 165.464 254.143C164.558 254.143 163.864 254.463 163.382 255.103C162.907 255.743 162.67 256.674 162.67 257.897C162.67 258.666 162.781 259.335 163.004 259.903C163.234 260.464 163.558 260.895 163.975 261.197C164.392 261.499 164.885 261.65 165.453 261.65Z" fill="#212735" fill-opacity="0.6"/>
<path d="M152.78 263.678C151.464 263.678 150.476 263.283 149.814 262.492C149.153 261.701 148.822 260.514 148.822 258.932V252.396H150.968V258.835C150.968 259.77 151.155 260.475 151.529 260.95C151.91 261.417 152.471 261.651 153.212 261.651C154.017 261.651 154.618 261.421 155.013 260.96C155.416 260.493 155.617 259.799 155.617 258.879V252.396H157.764V263.42H155.617V262.373C155.272 262.819 154.869 263.15 154.409 263.366C153.949 263.574 153.406 263.678 152.78 263.678Z" fill="#212735" fill-opacity="0.6"/>
<path d="M140.732 263.678C139.833 263.678 139.017 263.527 138.284 263.225C137.557 262.916 136.935 262.492 136.418 261.953C135.907 261.413 135.533 260.791 135.296 260.086L137.324 259.342C137.633 260.018 138.086 260.568 138.683 260.993C139.287 261.41 139.988 261.618 140.786 261.618C141.642 261.618 142.325 261.42 142.835 261.025C143.353 260.629 143.612 260.051 143.612 259.288C143.612 258.763 143.458 258.321 143.148 257.962C142.846 257.602 142.444 257.3 141.94 257.056C141.444 256.804 140.905 256.574 140.322 256.365C139.79 256.171 139.254 255.959 138.715 255.729C138.176 255.492 137.687 255.208 137.248 254.877C136.81 254.546 136.454 254.14 136.18 253.658C135.914 253.176 135.781 252.594 135.781 251.911C135.781 251.213 135.968 250.573 136.342 249.991C136.723 249.408 137.27 248.941 137.982 248.588C138.694 248.236 139.553 248.06 140.56 248.06C141.387 248.06 142.113 248.189 142.738 248.448C143.371 248.7 143.893 249.049 144.302 249.494C144.712 249.933 144.996 250.433 145.155 250.994L143.17 251.652C142.983 251.22 142.659 250.853 142.199 250.551C141.746 250.249 141.153 250.098 140.419 250.098C139.672 250.098 139.082 250.26 138.65 250.584C138.226 250.907 138.014 251.353 138.014 251.921C138.014 252.338 138.158 252.691 138.445 252.978C138.733 253.259 139.111 253.507 139.578 253.723C140.053 253.938 140.567 254.147 141.12 254.348C141.674 254.55 142.228 254.78 142.782 255.039C143.335 255.29 143.842 255.599 144.302 255.966C144.77 256.333 145.144 256.786 145.424 257.325C145.705 257.857 145.845 258.501 145.845 259.256C145.845 260.198 145.618 261 145.165 261.661C144.719 262.316 144.112 262.815 143.342 263.161C142.573 263.506 141.703 263.678 140.732 263.678Z" fill="#212735" fill-opacity="0.6"/>
<rect x="135.296" y="272.808" width="287.634" height="111.814" rx="11.9847" fill="#6941C7" fill-opacity="0.08"/>
<path d="M340.215 372.638C339.711 372.638 339.29 372.472 338.953 372.142C338.615 371.804 338.446 371.39 338.446 370.901C338.446 370.419 338.615 370.006 338.953 369.661C339.29 369.308 339.711 369.132 340.215 369.132C340.718 369.132 341.142 369.308 341.487 369.661C341.832 370.006 342.005 370.419 342.005 370.901C342.005 371.39 341.832 371.804 341.487 372.142C341.142 372.472 340.718 372.638 340.215 372.638Z" fill="#212735"/>
<path d="M332.272 372.627C331.409 372.627 330.582 372.444 329.791 372.077C329.007 371.71 328.385 371.218 327.925 370.599L329.694 369.111C330.06 369.499 330.485 369.808 330.967 370.038C331.448 370.261 331.909 370.373 332.347 370.373C332.894 370.373 333.314 370.283 333.609 370.103C333.904 369.916 334.051 369.657 334.051 369.326C334.051 369.111 333.979 368.92 333.836 368.755C333.699 368.582 333.455 368.41 333.102 368.237C332.75 368.057 332.254 367.852 331.614 367.622C330.377 367.169 329.5 366.68 328.982 366.155C328.464 365.623 328.205 364.951 328.205 364.138C328.205 363.232 328.572 362.499 329.305 361.938C330.039 361.37 330.995 361.086 332.175 361.086C332.98 361.086 333.721 361.237 334.397 361.539C335.08 361.841 335.666 362.283 336.155 362.865L334.397 364.322C333.749 363.667 332.994 363.34 332.131 363.34C331.693 363.34 331.34 363.423 331.074 363.588C330.808 363.746 330.675 363.962 330.675 364.235C330.675 364.501 330.83 364.739 331.139 364.947C331.456 365.156 332.042 365.4 332.897 365.681C333.746 365.947 334.433 366.249 334.957 366.587C335.49 366.925 335.878 367.317 336.122 367.762C336.374 368.208 336.5 368.722 336.5 369.305C336.5 370.34 336.122 371.153 335.367 371.743C334.619 372.332 333.588 372.627 332.272 372.627Z" fill="#212735"/>
<path d="M321.413 372.627C320.91 372.627 320.475 372.537 320.108 372.357C319.748 372.178 319.414 371.886 319.105 371.484V372.368H316.408V358.012L319.105 356.793V362.207C319.385 361.848 319.73 361.571 320.14 361.377C320.557 361.183 321.01 361.086 321.499 361.086C322.413 361.086 323.211 361.327 323.894 361.808C324.577 362.29 325.109 362.966 325.49 363.836C325.879 364.699 326.073 365.702 326.073 366.846C326.073 368.665 325.659 370.085 324.832 371.106C324.013 372.12 322.873 372.627 321.413 372.627ZM321.089 370.049C321.823 370.049 322.384 369.772 322.772 369.218C323.168 368.665 323.365 367.874 323.365 366.846C323.365 365.817 323.168 365.03 322.772 364.483C322.384 363.93 321.823 363.653 321.089 363.653C320.687 363.653 320.306 363.743 319.946 363.922C319.587 364.095 319.306 364.329 319.105 364.624V369.078C319.328 369.395 319.601 369.636 319.925 369.801C320.248 369.966 320.636 370.049 321.089 370.049Z" fill="#212735"/>
<path d="M307.658 372.627C306.457 372.627 305.504 372.303 304.799 371.656C304.102 371.002 303.753 370.117 303.753 369.003C303.753 368.284 303.933 367.655 304.292 367.115C304.659 366.569 305.166 366.148 305.813 365.853C306.467 365.551 307.23 365.4 308.1 365.4C308.582 365.4 309.045 365.447 309.491 365.54C309.944 365.627 310.34 365.753 310.678 365.918V365.228C310.678 364.609 310.502 364.145 310.149 363.836C309.804 363.52 309.293 363.362 308.618 363.362C308.078 363.362 307.525 363.459 306.956 363.653C306.388 363.847 305.813 364.135 305.231 364.516L304.422 362.391C305.054 361.974 305.759 361.654 306.536 361.431C307.312 361.201 308.096 361.086 308.887 361.086C310.369 361.086 311.476 361.438 312.209 362.143C312.943 362.84 313.31 363.883 313.31 365.271V372.368H310.678V371.484C310.304 371.858 309.858 372.142 309.34 372.336C308.83 372.53 308.269 372.627 307.658 372.627ZM308.283 370.351C308.729 370.351 309.157 370.265 309.567 370.092C309.984 369.912 310.354 369.661 310.678 369.337V368.032C310.369 367.881 310.023 367.766 309.642 367.687C309.268 367.601 308.894 367.557 308.52 367.557C307.852 367.557 307.323 367.687 306.935 367.946C306.554 368.197 306.363 368.55 306.363 369.003C306.363 369.427 306.532 369.758 306.87 369.995C307.208 370.232 307.679 370.351 308.283 370.351Z" fill="#212735"/>
<path d="M298.23 372.368V358.012L300.927 356.793V372.368H298.23Z" fill="#212735"/>
<path d="M291.952 372.368V358.012L294.648 356.793V372.368H291.952Z" fill="#212735"/>
<path d="M284.069 372.627C282.516 372.627 281.29 372.113 280.391 371.085C279.492 370.056 279.043 368.65 279.043 366.867C279.043 365.688 279.248 364.667 279.658 363.804C280.068 362.934 280.647 362.265 281.394 361.798C282.149 361.323 283.041 361.086 284.069 361.086C285.09 361.086 285.975 361.319 286.723 361.787C287.471 362.254 288.046 362.919 288.449 363.782C288.851 364.645 289.053 365.67 289.053 366.856C289.053 368.05 288.851 369.078 288.449 369.941C288.053 370.804 287.481 371.469 286.734 371.937C285.986 372.397 285.098 372.627 284.069 372.627ZM284.069 370.049C284.796 370.049 285.36 369.769 285.763 369.208C286.165 368.647 286.367 367.863 286.367 366.856C286.367 365.85 286.162 365.066 285.752 364.505C285.349 363.937 284.788 363.653 284.069 363.653C283.343 363.653 282.775 363.937 282.365 364.505C281.955 365.073 281.75 365.86 281.75 366.867C281.75 367.859 281.955 368.64 282.365 369.208C282.775 369.769 283.343 370.049 284.069 370.049Z" fill="#212735"/>
<path d="M272.365 372.627C271.351 372.627 270.474 372.393 269.733 371.926C268.992 371.458 268.421 370.797 268.018 369.941C267.615 369.078 267.414 368.054 267.414 366.867C267.414 365.681 267.615 364.656 268.018 363.793C268.428 362.93 269.007 362.265 269.754 361.798C270.502 361.323 271.383 361.086 272.397 361.086C273.54 361.086 274.49 361.352 275.245 361.884C276.007 362.409 276.557 363.189 276.895 364.224L274.339 365.087C274.166 364.627 273.914 364.275 273.584 364.03C273.253 363.779 272.872 363.653 272.44 363.653C271.743 363.653 271.185 363.94 270.768 364.516C270.358 365.091 270.154 365.875 270.154 366.867C270.154 367.845 270.355 368.622 270.758 369.197C271.16 369.772 271.703 370.06 272.386 370.06C272.868 370.06 273.278 369.923 273.616 369.65C273.961 369.377 274.216 368.978 274.382 368.453L276.927 369.219C276.604 370.347 276.054 371.2 275.277 371.775C274.508 372.343 273.537 372.627 272.365 372.627Z" fill="#212735"/>
<path d="M253.629 372.368V361.345H256.325V362.531C256.527 362.107 256.843 361.762 257.274 361.496C257.706 361.222 258.159 361.086 258.633 361.086C259.417 361.086 260.079 361.355 260.618 361.895L260.241 364.365C259.946 364.12 259.658 363.948 259.378 363.847C259.097 363.746 258.788 363.696 258.45 363.696C258.004 363.696 257.623 363.8 257.307 364.009C256.99 364.217 256.746 364.519 256.573 364.915C256.408 365.31 256.325 365.785 256.325 366.339V372.368H253.629Z" fill="#212735"/>
<path d="M246.098 372.627C245.041 372.627 244.128 372.39 243.359 371.915C242.596 371.44 242.007 370.772 241.59 369.909C241.18 369.039 240.975 368.018 240.975 366.846C240.975 365.659 241.183 364.634 241.6 363.771C242.025 362.909 242.618 362.247 243.38 361.787C244.15 361.319 245.056 361.086 246.098 361.086C246.99 361.086 247.799 361.273 248.525 361.647C249.252 362.02 249.83 362.596 250.262 363.372C250.693 364.142 250.909 365.123 250.909 366.317C250.909 366.504 250.902 366.734 250.887 367.007C250.88 367.273 250.862 367.543 250.833 367.816H243.639C243.668 368.32 243.783 368.762 243.984 369.143C244.193 369.517 244.477 369.808 244.836 370.017C245.196 370.225 245.62 370.33 246.109 370.33C246.634 370.33 247.091 370.243 247.479 370.071C247.867 369.891 248.234 369.607 248.579 369.219L250.132 370.826C249.658 371.365 249.086 371.8 248.417 372.131C247.749 372.462 246.976 372.627 246.098 372.627ZM243.65 365.713H248.299C248.263 365.231 248.155 364.818 247.975 364.473C247.795 364.12 247.544 363.851 247.22 363.664C246.897 363.477 246.505 363.383 246.044 363.383C245.412 363.383 244.872 363.577 244.426 363.966C243.981 364.354 243.722 364.936 243.65 365.713Z" fill="#212735"/>
<path d="M234.297 372.627C233.283 372.627 232.406 372.393 231.665 371.926C230.924 371.458 230.353 370.797 229.95 369.941C229.547 369.078 229.346 368.054 229.346 366.867C229.346 365.681 229.547 364.656 229.95 363.793C230.36 362.93 230.939 362.265 231.687 361.798C232.434 361.323 233.315 361.086 234.329 361.086C235.473 361.086 236.422 361.352 237.177 361.884C237.939 362.409 238.489 363.189 238.827 364.224L236.271 365.087C236.098 364.627 235.846 364.275 235.516 364.03C235.185 363.779 234.804 363.653 234.372 363.653C233.675 363.653 233.118 363.94 232.7 364.516C232.291 365.091 232.086 365.875 232.086 366.867C232.086 367.845 232.287 368.622 232.69 369.197C233.092 369.772 233.635 370.06 234.318 370.06C234.8 370.06 235.21 369.923 235.548 369.65C235.893 369.377 236.148 368.978 236.314 368.453L238.859 369.219C238.536 370.347 237.986 371.2 237.209 371.775C236.44 372.343 235.469 372.627 234.297 372.627Z" fill="#212735"/>
<path d="M217.057 372.368V361.345H219.753V362.402C220.106 361.963 220.526 361.636 221.015 361.42C221.511 361.197 222.076 361.086 222.709 361.086C223.938 361.086 224.887 361.467 225.556 362.229C226.225 362.984 226.559 364.073 226.559 365.497V372.368H223.874V366.328C223.874 365.4 223.712 364.724 223.388 364.3C223.072 363.869 222.576 363.653 221.9 363.653C221.166 363.653 220.623 363.869 220.271 364.3C219.926 364.724 219.753 365.386 219.753 366.285V372.368H217.057Z" fill="#212735"/>
<path d="M209.526 372.627C208.469 372.627 207.556 372.39 206.787 371.915C206.024 371.44 205.435 370.772 205.018 369.909C204.608 369.039 204.403 368.018 204.403 366.846C204.403 365.659 204.611 364.634 205.028 363.771C205.453 362.909 206.046 362.247 206.808 361.787C207.578 361.319 208.484 361.086 209.526 361.086C210.418 361.086 211.227 361.273 211.953 361.647C212.679 362.02 213.258 362.596 213.69 363.372C214.121 364.142 214.337 365.123 214.337 366.317C214.337 366.504 214.33 366.734 214.315 367.007C214.308 367.273 214.29 367.543 214.261 367.816H207.067C207.096 368.32 207.211 368.762 207.412 369.143C207.621 369.517 207.905 369.808 208.264 370.017C208.624 370.225 209.048 370.33 209.537 370.33C210.062 370.33 210.519 370.243 210.907 370.071C211.295 369.891 211.662 369.607 212.007 369.219L213.56 370.826C213.086 371.365 212.514 371.8 211.845 372.131C211.177 372.462 210.404 372.627 209.526 372.627ZM207.078 365.713H211.727C211.691 365.231 211.583 364.818 211.403 364.473C211.223 364.12 210.972 363.851 210.648 363.664C210.324 363.477 209.933 363.383 209.472 363.383C208.84 363.383 208.3 363.577 207.854 363.966C207.409 364.354 207.15 364.936 207.078 365.713Z" fill="#212735"/>
<path d="M196.194 372.627C194.964 372.627 194.011 372.246 193.335 371.484C192.66 370.714 192.322 369.628 192.322 368.226V361.344H195.018V367.385C195.018 368.312 195.176 368.988 195.493 369.413C195.809 369.837 196.309 370.049 196.992 370.049C197.725 370.049 198.265 369.837 198.61 369.413C198.962 368.981 199.138 368.32 199.138 367.428V361.344H201.824V372.368H199.138V371.333C198.8 371.764 198.383 372.088 197.887 372.303C197.398 372.519 196.834 372.627 196.194 372.627Z" fill="#212735"/>
<path d="M178.626 372.368V363.707H177.073V361.345H178.626V359.64C178.626 358.777 178.853 358.123 179.306 357.677C179.766 357.231 180.431 357.008 181.301 357.008C181.79 357.008 182.225 357.055 182.606 357.149C182.995 357.235 183.365 357.368 183.717 357.548V359.748C183.423 359.626 183.142 359.532 182.876 359.468C182.61 359.396 182.365 359.36 182.143 359.36C181.869 359.36 181.664 359.428 181.528 359.565C181.391 359.694 181.323 359.896 181.323 360.169V361.345H183.717V363.707H181.323V372.368H178.626ZM186.274 372.368V358.012L188.97 356.793V372.368H186.274Z" fill="#212735"/>
<path d="M165.59 372.368V361.345H168.287V362.402C168.639 361.963 169.06 361.636 169.549 361.42C170.045 361.197 170.61 361.086 171.242 361.086C172.472 361.086 173.421 361.467 174.09 362.229C174.759 362.984 175.093 364.073 175.093 365.497V372.368H172.407V366.328C172.407 365.4 172.245 364.724 171.922 364.3C171.605 363.869 171.109 363.653 170.433 363.653C169.7 363.653 169.157 363.869 168.805 364.3C168.459 364.724 168.287 365.386 168.287 366.285V372.368H165.59Z" fill="#212735"/>
<path d="M159.502 372.368V361.345H162.199V372.368H159.502ZM160.851 359.964C160.419 359.964 160.045 359.809 159.729 359.5C159.42 359.184 159.265 358.81 159.265 358.378C159.265 357.947 159.42 357.58 159.729 357.278C160.038 356.969 160.412 356.814 160.851 356.814C161.304 356.814 161.681 356.965 161.983 357.267C162.285 357.569 162.436 357.94 162.436 358.378C162.436 358.817 162.282 359.191 161.972 359.5C161.67 359.809 161.297 359.964 160.851 359.964Z" fill="#212735"/>
<path d="M242.737 336.368V325.345H245.434V326.369C245.786 325.923 246.181 325.6 246.62 325.398C247.066 325.19 247.569 325.086 248.13 325.086C248.785 325.086 249.345 325.219 249.813 325.485C250.28 325.751 250.643 326.139 250.902 326.65C251.269 326.146 251.74 325.762 252.315 325.496C252.891 325.222 253.541 325.086 254.268 325.086C255.619 325.086 256.641 325.449 257.331 326.175C258.021 326.901 258.366 327.98 258.366 329.411V336.368H255.681V330.339C255.681 329.418 255.53 328.742 255.228 328.311C254.926 327.872 254.458 327.653 253.825 327.653C253.394 327.653 253.034 327.75 252.747 327.944C252.466 328.138 252.254 328.433 252.11 328.829C251.967 329.217 251.895 329.709 251.895 330.306V336.368H249.209V330.339C249.209 329.411 249.061 328.731 248.767 328.3C248.472 327.869 248.004 327.653 247.364 327.653C246.71 327.653 246.225 327.865 245.908 328.289C245.592 328.713 245.434 329.371 245.434 330.263V336.368H242.737Z" fill="#212735"/>
<path d="M233.86 336.627C232.659 336.627 231.706 336.303 231.002 335.656C230.304 335.002 229.955 334.117 229.955 333.003C229.955 332.284 230.135 331.655 230.495 331.115C230.861 330.569 231.368 330.148 232.015 329.853C232.67 329.551 233.432 329.4 234.302 329.4C234.784 329.4 235.248 329.447 235.694 329.54C236.147 329.627 236.542 329.753 236.88 329.918V329.228C236.88 328.609 236.704 328.145 236.352 327.836C236.006 327.52 235.496 327.362 234.82 327.362C234.281 327.362 233.727 327.459 233.159 327.653C232.591 327.847 232.015 328.135 231.433 328.516L230.624 326.391C231.257 325.974 231.962 325.654 232.738 325.431C233.515 325.201 234.299 325.086 235.09 325.086C236.571 325.086 237.678 325.438 238.412 326.143C239.145 326.84 239.512 327.883 239.512 329.271V336.368H236.88V335.484C236.506 335.858 236.06 336.142 235.543 336.336C235.032 336.53 234.471 336.627 233.86 336.627ZM234.486 334.351C234.931 334.351 235.359 334.265 235.769 334.092C236.186 333.912 236.557 333.661 236.88 333.337V332.032C236.571 331.881 236.226 331.766 235.845 331.687C235.471 331.601 235.097 331.557 234.723 331.557C234.054 331.557 233.526 331.687 233.137 331.946C232.756 332.197 232.566 332.55 232.566 333.003C232.566 333.427 232.735 333.758 233.073 333.995C233.411 334.232 233.882 334.351 234.486 334.351Z" fill="#212735"/>
<path d="M221.86 336.368V325.345H224.556V326.531C224.758 326.107 225.074 325.762 225.506 325.496C225.937 325.222 226.39 325.086 226.865 325.086C227.648 325.086 228.31 325.355 228.849 325.895L228.472 328.365C228.177 328.12 227.889 327.948 227.609 327.847C227.328 327.746 227.019 327.696 226.681 327.696C226.235 327.696 225.854 327.8 225.538 328.009C225.222 328.217 224.977 328.519 224.805 328.915C224.639 329.31 224.556 329.785 224.556 330.339V336.368H221.86Z" fill="#212735"/>
<path d="M213.282 340.963L211.793 338.709C212.843 338.63 213.656 338.511 214.231 338.353C214.814 338.195 215.22 337.968 215.45 337.673C215.68 337.378 215.795 336.994 215.795 336.519V335.721C215.234 336.325 214.443 336.627 213.422 336.627C212.466 336.627 211.642 336.397 210.952 335.937C210.262 335.469 209.73 334.804 209.356 333.941C208.989 333.071 208.806 332.039 208.806 330.846C208.806 329.681 208.996 328.667 209.377 327.804C209.766 326.941 210.305 326.272 210.995 325.798C211.693 325.323 212.509 325.086 213.444 325.086C213.933 325.086 214.379 325.161 214.781 325.312C215.191 325.463 215.529 325.683 215.795 325.97V325.345H218.481V335.376C218.481 336.354 218.391 337.181 218.211 337.857C218.032 338.533 217.737 339.086 217.327 339.518C216.924 339.949 216.392 340.276 215.73 340.499C215.069 340.729 214.253 340.884 213.282 340.963ZM213.864 334.049C214.246 334.049 214.601 333.963 214.932 333.79C215.27 333.61 215.558 333.37 215.795 333.068V328.624C215.594 328.343 215.317 328.113 214.965 327.933C214.612 327.746 214.256 327.653 213.897 327.653C213.12 327.653 212.527 327.926 212.117 328.473C211.714 329.012 211.513 329.803 211.513 330.846C211.513 331.521 211.603 332.1 211.783 332.582C211.97 333.057 212.239 333.42 212.592 333.672C212.944 333.923 213.368 334.049 213.864 334.049Z" fill="#212735"/>
<path d="M200.532 336.627C199.331 336.627 198.379 336.303 197.674 335.656C196.976 335.002 196.628 334.117 196.628 333.003C196.628 332.284 196.807 331.655 197.167 331.115C197.534 330.569 198.041 330.148 198.688 329.853C199.342 329.551 200.104 329.4 200.975 329.4C201.456 329.4 201.92 329.447 202.366 329.54C202.819 329.627 203.214 329.753 203.552 329.918V329.228C203.552 328.609 203.376 328.145 203.024 327.836C202.679 327.52 202.168 327.362 201.492 327.362C200.953 327.362 200.399 327.459 199.831 327.653C199.263 327.847 198.688 328.135 198.105 328.516L197.296 326.391C197.929 325.974 198.634 325.654 199.411 325.431C200.187 325.201 200.971 325.086 201.762 325.086C203.243 325.086 204.351 325.438 205.084 326.143C205.818 326.84 206.184 327.883 206.184 329.271V336.368H203.552V335.484C203.179 335.858 202.733 336.142 202.215 336.336C201.704 336.53 201.144 336.627 200.532 336.627ZM201.158 334.351C201.604 334.351 202.032 334.265 202.441 334.092C202.859 333.912 203.229 333.661 203.552 333.337V332.032C203.243 331.881 202.898 331.766 202.517 331.687C202.143 331.601 201.769 331.557 201.395 331.557C200.726 331.557 200.198 331.687 199.81 331.946C199.429 332.197 199.238 332.55 199.238 333.003C199.238 333.427 199.407 333.758 199.745 333.995C200.083 334.232 200.554 334.351 201.158 334.351Z" fill="#212735"/>
<path d="M192.125 336.627C191.248 336.627 190.59 336.386 190.152 335.904C189.713 335.422 189.494 334.703 189.494 333.747V327.707H187.886V325.345H189.494V322.076L192.169 320.793V325.345H194.671V327.707H192.169V333.262C192.169 333.607 192.237 333.862 192.374 334.027C192.517 334.193 192.74 334.276 193.042 334.276C193.574 334.276 194.157 334.11 194.79 333.779L194.477 336.131C194.146 336.296 193.787 336.418 193.398 336.498C193.01 336.584 192.586 336.627 192.125 336.627Z" fill="#212735"/>
<path d="M182.212 336.627C181.349 336.627 180.522 336.444 179.731 336.077C178.947 335.71 178.325 335.218 177.865 334.599L179.634 333.111C180.001 333.499 180.425 333.808 180.907 334.038C181.389 334.261 181.849 334.373 182.288 334.373C182.834 334.373 183.255 334.283 183.55 334.103C183.844 333.916 183.992 333.657 183.992 333.326C183.992 333.111 183.92 332.92 183.776 332.755C183.639 332.582 183.395 332.41 183.043 332.237C182.69 332.057 182.194 331.852 181.554 331.622C180.317 331.169 179.44 330.68 178.922 330.155C178.405 329.623 178.146 328.951 178.146 328.138C178.146 327.232 178.512 326.499 179.246 325.938C179.979 325.37 180.936 325.086 182.115 325.086C182.92 325.086 183.661 325.237 184.337 325.539C185.02 325.841 185.606 326.283 186.095 326.865L184.337 328.322C183.69 327.667 182.935 327.34 182.072 327.34C181.633 327.34 181.281 327.423 181.015 327.588C180.749 327.746 180.616 327.962 180.616 328.235C180.616 328.501 180.77 328.739 181.08 328.947C181.396 329.156 181.982 329.4 182.838 329.681C183.686 329.947 184.373 330.249 184.898 330.587C185.43 330.925 185.818 331.317 186.063 331.762C186.314 332.208 186.44 332.722 186.44 333.305C186.44 334.34 186.063 335.153 185.308 335.743C184.56 336.332 183.528 336.627 182.212 336.627Z" fill="#212735"/>
<path d="M165.843 336.368V325.345H168.539V326.402C168.892 325.963 169.312 325.636 169.801 325.42C170.297 325.197 170.862 325.086 171.495 325.086C172.724 325.086 173.674 325.467 174.342 326.229C175.011 326.984 175.345 328.073 175.345 329.497V336.368H172.66V330.328C172.66 329.4 172.498 328.724 172.174 328.3C171.858 327.869 171.362 327.653 170.686 327.653C169.952 327.653 169.409 327.869 169.057 328.3C168.712 328.724 168.539 329.386 168.539 330.285V336.368H165.843Z" fill="#212735"/>
<path d="M159.588 336.368V321.267H162.382V336.368H159.588Z" fill="#212735"/>
<path d="M287.432 300.627C286.375 300.627 285.461 300.39 284.692 299.915C283.93 299.441 283.34 298.772 282.923 297.909C282.513 297.039 282.308 296.018 282.308 294.846C282.308 293.659 282.517 292.634 282.934 291.771C283.358 290.909 283.951 290.247 284.713 289.787C285.483 289.319 286.389 289.086 287.432 289.086C288.323 289.086 289.132 289.273 289.858 289.647C290.585 290.021 291.164 290.596 291.595 291.372C292.027 292.142 292.242 293.123 292.242 294.317C292.242 294.504 292.235 294.734 292.221 295.007C292.213 295.273 292.196 295.543 292.167 295.816H284.972C285.001 296.32 285.116 296.762 285.317 297.143C285.526 297.517 285.81 297.808 286.17 298.017C286.529 298.225 286.953 298.33 287.442 298.33C287.967 298.33 288.424 298.243 288.812 298.071C289.201 297.891 289.567 297.607 289.912 297.219L291.466 298.826C290.991 299.365 290.419 299.8 289.751 300.131C289.082 300.462 288.309 300.627 287.432 300.627ZM284.983 293.713H289.632C289.596 293.231 289.488 292.818 289.308 292.473C289.129 292.12 288.877 291.851 288.553 291.664C288.23 291.477 287.838 291.383 287.378 291.383C286.745 291.383 286.206 291.577 285.76 291.966C285.314 292.354 285.055 292.936 284.983 293.713Z" fill="#212735"/>
<path d="M274.545 304.963L273.056 302.709C274.106 302.63 274.919 302.511 275.494 302.353C276.076 302.195 276.483 301.968 276.713 301.673C276.943 301.378 277.058 300.994 277.058 300.519V299.721C276.497 300.325 275.706 300.627 274.685 300.627C273.729 300.627 272.905 300.397 272.215 299.937C271.525 299.469 270.992 298.804 270.618 297.941C270.252 297.071 270.068 296.039 270.068 294.846C270.068 293.681 270.259 292.667 270.64 291.804C271.028 290.941 271.568 290.272 272.258 289.798C272.955 289.323 273.772 289.086 274.706 289.086C275.195 289.086 275.641 289.161 276.044 289.312C276.454 289.463 276.792 289.683 277.058 289.97V289.345H279.744V299.376C279.744 300.354 279.654 301.181 279.474 301.857C279.294 302.533 278.999 303.086 278.59 303.518C278.187 303.949 277.655 304.276 276.993 304.499C276.332 304.729 275.515 304.884 274.545 304.963ZM275.127 298.049C275.508 298.049 275.864 297.963 276.195 297.79C276.533 297.61 276.821 297.37 277.058 297.068V292.624C276.857 292.343 276.58 292.113 276.227 291.933C275.875 291.746 275.519 291.653 275.159 291.653C274.383 291.653 273.79 291.926 273.38 292.473C272.977 293.012 272.776 293.803 272.776 294.846C272.776 295.521 272.866 296.1 273.045 296.582C273.232 297.057 273.502 297.42 273.854 297.672C274.207 297.923 274.631 298.049 275.127 298.049Z" fill="#212735"/>
<path d="M261.795 300.627C260.594 300.627 259.641 300.303 258.936 299.656C258.239 299.002 257.89 298.117 257.89 297.003C257.89 296.284 258.07 295.655 258.429 295.115C258.796 294.569 259.303 294.148 259.95 293.853C260.605 293.551 261.367 293.4 262.237 293.4C262.719 293.4 263.183 293.447 263.628 293.54C264.081 293.627 264.477 293.753 264.815 293.918V293.228C264.815 292.609 264.639 292.145 264.286 291.836C263.941 291.52 263.431 291.362 262.755 291.362C262.215 291.362 261.662 291.459 261.094 291.653C260.526 291.847 259.95 292.135 259.368 292.516L258.559 290.391C259.192 289.974 259.896 289.654 260.673 289.431C261.45 289.201 262.233 289.086 263.024 289.086C264.506 289.086 265.613 289.438 266.347 290.143C267.08 290.84 267.447 291.883 267.447 293.271V300.368H264.815V299.484C264.441 299.858 263.995 300.142 263.477 300.336C262.967 300.53 262.406 300.627 261.795 300.627ZM262.42 298.351C262.866 298.351 263.294 298.265 263.704 298.092C264.121 297.912 264.491 297.661 264.815 297.337V296.032C264.506 295.881 264.161 295.766 263.779 295.687C263.406 295.601 263.032 295.557 262.658 295.557C261.989 295.557 261.46 295.687 261.072 295.946C260.691 296.197 260.5 296.55 260.5 297.003C260.5 297.427 260.669 297.758 261.007 297.995C261.345 298.232 261.816 298.351 262.42 298.351Z" fill="#212735"/>
<path d="M245.981 304.747V289.345H248.678V290.154C249.282 289.442 250.091 289.086 251.105 289.086C252.047 289.086 252.859 289.319 253.543 289.787C254.226 290.247 254.751 290.909 255.117 291.771C255.484 292.634 255.668 293.663 255.668 294.856C255.668 296.014 255.477 297.028 255.096 297.898C254.715 298.761 254.179 299.433 253.489 299.915C252.798 300.39 251.993 300.627 251.073 300.627C250.569 300.627 250.116 300.537 249.713 300.357C249.311 300.17 248.966 299.897 248.678 299.538V303.528L245.981 304.747ZM250.673 298.049C251.407 298.049 251.971 297.772 252.367 297.219C252.762 296.658 252.96 295.87 252.96 294.856C252.96 293.842 252.759 293.055 252.356 292.494C251.953 291.933 251.393 291.653 250.673 291.653C250.235 291.653 249.85 291.732 249.519 291.89C249.196 292.048 248.915 292.289 248.678 292.613V297.068C248.872 297.377 249.145 297.618 249.498 297.79C249.857 297.963 250.249 298.049 250.673 298.049Z" fill="#212735"/>
<path d="M232.032 304.963L230.543 302.709C231.593 302.63 232.406 302.511 232.981 302.353C233.563 302.195 233.97 301.968 234.2 301.673C234.43 301.378 234.545 300.994 234.545 300.519V299.721C233.984 300.325 233.193 300.627 232.172 300.627C231.216 300.627 230.392 300.397 229.702 299.937C229.012 299.469 228.479 298.804 228.106 297.941C227.739 297.071 227.555 296.039 227.555 294.846C227.555 293.681 227.746 292.667 228.127 291.804C228.515 290.941 229.055 290.272 229.745 289.798C230.443 289.323 231.259 289.086 232.194 289.086C232.682 289.086 233.128 289.161 233.531 289.312C233.941 289.463 234.279 289.683 234.545 289.97V289.345H237.231V299.376C237.231 300.354 237.141 301.181 236.961 301.857C236.781 302.533 236.486 303.086 236.077 303.518C235.674 303.949 235.142 304.276 234.48 304.499C233.819 304.729 233.002 304.884 232.032 304.963ZM232.614 298.049C232.995 298.049 233.351 297.963 233.682 297.79C234.02 297.61 234.308 297.37 234.545 297.068V292.624C234.344 292.343 234.067 292.113 233.714 291.933C233.362 291.746 233.006 291.653 232.647 291.653C231.87 291.653 231.277 291.926 230.867 292.473C230.464 293.012 230.263 293.803 230.263 294.846C230.263 295.521 230.353 296.1 230.532 296.582C230.719 297.057 230.989 297.42 231.341 297.672C231.694 297.923 232.118 298.049 232.614 298.049Z" fill="#212735"/>
<path d="M215.266 300.368V289.345H217.962V290.402C218.315 289.963 218.735 289.636 219.224 289.42C219.721 289.197 220.285 289.086 220.918 289.086C222.148 289.086 223.097 289.467 223.765 290.229C224.434 290.984 224.769 292.073 224.769 293.497V300.368H222.083V294.328C222.083 293.4 221.921 292.724 221.597 292.3C221.281 291.869 220.785 291.653 220.109 291.653C219.375 291.653 218.833 291.869 218.48 292.3C218.135 292.724 217.962 293.386 217.962 294.285V300.368H215.266Z" fill="#212735"/>
<path d="M209.178 300.368V289.344H211.875V300.368H209.178ZM210.526 287.964C210.095 287.964 209.721 287.809 209.404 287.5C209.095 287.184 208.941 286.81 208.941 286.378C208.941 285.947 209.095 285.58 209.404 285.278C209.714 284.969 210.088 284.814 210.526 284.814C210.979 284.814 211.357 284.965 211.659 285.267C211.961 285.569 212.112 285.94 212.112 286.378C212.112 286.817 211.957 287.191 211.648 287.5C211.346 287.809 210.972 287.964 210.526 287.964Z" fill="#212735"/>
<path d="M200.665 300.627C199.248 300.627 198.137 300.116 197.332 299.095C196.526 298.074 196.124 296.658 196.124 294.846C196.124 293.695 196.314 292.688 196.695 291.825C197.076 290.962 197.608 290.29 198.292 289.808C198.982 289.327 199.784 289.086 200.697 289.086C201.675 289.086 202.477 289.445 203.102 290.164V286.012L205.788 284.793V300.368H203.102V299.462C202.57 300.239 201.758 300.627 200.665 300.627ZM201.107 298.049C201.567 298.049 201.959 297.97 202.282 297.812C202.606 297.646 202.879 297.402 203.102 297.078V292.624C202.879 292.322 202.588 292.084 202.229 291.912C201.876 291.739 201.502 291.653 201.107 291.653C200.381 291.653 199.82 291.93 199.424 292.483C199.029 293.03 198.831 293.817 198.831 294.846C198.831 295.521 198.921 296.1 199.101 296.582C199.28 297.057 199.539 297.42 199.877 297.672C200.215 297.923 200.625 298.049 201.107 298.049Z" fill="#212735"/>
<path d="M183.834 300.368V289.345H186.531V290.402C186.883 289.963 187.304 289.636 187.793 289.42C188.289 289.197 188.853 289.086 189.486 289.086C190.716 289.086 191.665 289.467 192.334 290.229C193.002 290.984 193.337 292.073 193.337 293.497V300.368H190.651V294.328C190.651 293.4 190.489 292.724 190.166 292.3C189.849 291.869 189.353 291.653 188.677 291.653C187.944 291.653 187.401 291.869 187.048 292.3C186.703 292.724 186.531 293.386 186.531 294.285V300.368H183.834Z" fill="#212735"/>
<path d="M174.957 300.627C173.756 300.627 172.803 300.303 172.099 299.656C171.401 299.002 171.052 298.117 171.052 297.003C171.052 296.284 171.232 295.655 171.592 295.115C171.958 294.569 172.465 294.148 173.112 293.853C173.767 293.551 174.529 293.4 175.399 293.4C175.881 293.4 176.345 293.447 176.791 293.54C177.244 293.627 177.639 293.753 177.977 293.918V293.228C177.977 292.609 177.801 292.145 177.448 291.836C177.103 291.52 176.593 291.362 175.917 291.362C175.378 291.362 174.824 291.459 174.256 291.653C173.688 291.847 173.112 292.135 172.53 292.516L171.721 290.391C172.354 289.974 173.058 289.654 173.835 289.431C174.612 289.201 175.396 289.086 176.187 289.086C177.668 289.086 178.775 289.438 179.509 290.143C180.242 290.84 180.609 291.883 180.609 293.271V300.368H177.977V299.484C177.603 299.858 177.157 300.142 176.64 300.336C176.129 300.53 175.568 300.627 174.957 300.627ZM175.582 298.351C176.028 298.351 176.456 298.265 176.866 298.092C177.283 297.912 177.653 297.661 177.977 297.337V296.032C177.668 295.881 177.323 295.766 176.942 295.687C176.568 295.601 176.194 295.557 175.82 295.557C175.151 295.557 174.622 295.687 174.234 295.946C173.853 296.197 173.663 296.55 173.663 297.003C173.663 297.427 173.832 297.758 174.169 297.995C174.507 298.232 174.978 298.351 175.582 298.351Z" fill="#212735"/>
<path d="M159.588 300.368V285.267H162.382V297.661H169.684V300.368H159.588Z" fill="#212735"/>
</g>
</g>
<defs>
<filter id="filter0_d_386_9391" x="47.589" y="85.1857" width="482.223" height="431.888" filterUnits="userSpaceOnUse" color-interpolation-filters="sRGB">
<feFlood flood-opacity="0" result="BackgroundImageFix"/>
<feColorMatrix in="SourceAlpha" type="matrix" values="0 0 0 0 0 0 0 0 0 0 0 0 0 0 0 0 0 0 127 0" result="hardAlpha"/>
<feOffset dy="43.1297"/>
<feGaussianBlur stdDeviation="28.7531"/>
<feColorMatrix type="matrix" values="0 0 0 0 0.831373 0 0 0 0 0.85098 0 0 0 0 0.909804 0 0 0 0.2 0"/>
<feBlend mode="normal" in2="BackgroundImageFix" result="effect1_dropShadow_386_9391"/>
<feBlend mode="normal" in="SourceGraphic" in2="effect1_dropShadow_386_9391" result="shape"/>
</filter>
<clipPath id="clip0_386_9391">
<rect width="388" height="388" fill="white"/>
</clipPath>
</defs>
</svg>
