<svg width="16" height="16" viewBox="0 0 16 16" fill="none" xmlns="http://www.w3.org/2000/svg">
<path d="M3.00008 11.0003L3.40208 11.4789L3.40284 11.4782L3.00008 11.0003ZM1.66675 14.3337L1.04726 14.2508C1.02145 14.4439 1.0871 14.6379 1.22481 14.7756C1.36251 14.9133 1.55654 14.979 1.74957 14.9531L1.66675 14.3337ZM5.00008 13.0003L4.52275 12.5969L4.52152 12.5983L5.00008 13.0003ZM4.94008 11.0603L5.37926 10.6155L5.37161 10.6082L4.94008 11.0603ZM7.33342 5.36699L7.8598 5.70402L7.86331 5.69841L7.33342 5.36699ZM14.6667 1.33366H15.2917C15.2917 0.989996 15.0143 0.710805 14.6706 0.708673L14.6667 1.33366ZM2.66675 8.00033L2.0518 7.8887C2.0187 8.07102 2.06821 8.25862 2.18696 8.40087C2.30571 8.54311 2.48145 8.62533 2.66675 8.62533V8.00033ZM4.00008 5.33366L3.65339 4.81363L3.65257 4.81418L4.00008 5.33366ZM7.14319 5.92901C7.47199 6.03407 7.8237 5.85269 7.92876 5.52389C8.03382 5.19509 7.85245 4.84338 7.52364 4.73831L7.14319 5.92901ZM8.00008 13.3337H7.37508C7.37508 13.519 7.4573 13.6947 7.59954 13.8134C7.74179 13.9322 7.92939 13.9817 8.11171 13.9486L8.00008 13.3337ZM10.6667 12.0003L11.1862 12.3478L11.1868 12.347L10.6667 12.0003ZM3.00008 11.0003L2.59809 10.5218C2.25303 10.8116 1.99815 11.2125 1.80829 11.6012C1.61493 11.9971 1.46769 12.425 1.35751 12.8101C1.24677 13.1973 1.16977 13.5545 1.12043 13.8144C1.09567 13.9447 1.07767 14.0517 1.06573 14.127C1.05976 14.1647 1.05529 14.1946 1.05224 14.2155C1.05072 14.226 1.04955 14.2343 1.04872 14.2402C1.04831 14.2432 1.04798 14.2455 1.04774 14.2473C1.04762 14.2482 1.04751 14.2489 1.04744 14.2495C1.0474 14.2498 1.04736 14.2501 1.04733 14.2503C1.04732 14.2504 1.0473 14.2505 1.04729 14.2506C1.04728 14.2507 1.04726 14.2508 1.66675 14.3337C2.28624 14.4165 2.28622 14.4166 2.28621 14.4167C2.28621 14.4167 2.2862 14.4168 2.28619 14.4168C2.28619 14.4169 2.28618 14.4169 2.28618 14.4169C2.28619 14.4169 2.28621 14.4167 2.28625 14.4164C2.28634 14.4158 2.2865 14.4146 2.28675 14.4128C2.28725 14.4092 2.28807 14.4034 2.28923 14.3954C2.29155 14.3794 2.29522 14.3549 2.30032 14.3227C2.31051 14.2584 2.32637 14.164 2.34849 14.0475C2.39289 13.8137 2.46172 13.4951 2.55932 13.1539C2.65748 12.8107 2.78107 12.4577 2.93146 12.1498C3.08535 11.8348 3.24713 11.609 3.40208 11.4789L3.00008 11.0003ZM1.66675 14.3337C1.74957 14.9531 1.74968 14.9531 1.74981 14.9531C1.74986 14.9531 1.75 14.9531 1.75011 14.9531C1.75032 14.953 1.75058 14.953 1.75087 14.953C1.75146 14.9529 1.7522 14.9528 1.75309 14.9527C1.75487 14.9524 1.75725 14.9521 1.76022 14.9517C1.76615 14.9509 1.77442 14.9497 1.7849 14.9482C1.80586 14.9451 1.83569 14.9407 1.87338 14.9347C1.9487 14.9227 2.05567 14.9047 2.18604 14.88C2.44593 14.8306 2.80314 14.7536 3.1903 14.6429C3.57546 14.5327 4.00332 14.3855 4.39918 14.1921C4.78788 14.0023 5.1888 13.7474 5.47865 13.4023L5.00008 13.0003L4.52152 12.5983C4.39136 12.7533 4.16561 12.9151 3.85056 13.069C3.54267 13.2193 3.1897 13.3429 2.84653 13.4411C2.50536 13.5387 2.18673 13.6075 1.95287 13.6519C1.83637 13.674 1.74199 13.6899 1.67767 13.7001C1.64554 13.7052 1.62098 13.7089 1.60501 13.7112C1.59703 13.7123 1.59119 13.7132 1.58763 13.7137C1.58586 13.7139 1.58465 13.7141 1.58402 13.7142C1.58371 13.7142 1.58355 13.7142 1.58353 13.7142C1.58352 13.7142 1.58355 13.7142 1.58362 13.7142C1.58365 13.7142 1.58373 13.7142 1.58375 13.7142C1.58383 13.7142 1.58393 13.7142 1.66675 14.3337ZM5.00008 13.0003L5.47741 13.4038C6.14576 12.6131 6.15512 11.3817 5.3792 10.6156L4.94008 11.0603L4.50096 11.5051C4.77838 11.779 4.80107 12.2676 4.52275 12.5969L5.00008 13.0003ZM4.94008 11.0603L5.37161 10.6082C5.00104 10.2545 4.51291 10.0501 4.00089 10.0343L3.98157 10.659L3.96224 11.2837C4.16631 11.29 4.36086 11.3715 4.50855 11.5124L4.94008 11.0603ZM3.98157 10.659L4.00089 10.0343C3.48887 10.0185 2.98903 10.1923 2.59732 10.5224L3.00008 11.0003L3.40284 11.4782C3.55896 11.3467 3.75818 11.2774 3.96224 11.2837L3.98157 10.659ZM8.00008 10.0003L8.44202 9.55839L6.44202 7.55839L6.00008 8.00033L5.55814 8.44227L7.55814 10.4423L8.00008 10.0003ZM6.00008 8.00033L6.58326 8.22512C6.9229 7.34396 7.35057 6.49931 7.85977 5.704L7.33342 5.36699L6.80706 5.02999C6.25253 5.8961 5.78679 6.81594 5.4169 7.77554L6.00008 8.00033ZM7.33342 5.36699L7.86331 5.69841C8.58356 4.5468 9.58646 3.59861 10.7766 2.94402L10.4754 2.39639L10.1742 1.84875C8.7972 2.60611 7.63685 3.70317 6.80352 5.03558L7.33342 5.36699ZM10.4754 2.39639L10.7766 2.94402C11.9668 2.28944 13.3046 1.95022 14.6629 1.95865L14.6667 1.33366L14.6706 0.708673C13.0991 0.698926 11.5512 1.0914 10.1742 1.84875L10.4754 2.39639ZM14.6667 1.33366H14.0417C14.0417 3.02439 13.5648 5.97137 10.3187 8.14788L10.6667 8.667L11.0148 9.18611C14.7287 6.69595 15.2917 3.2696 15.2917 1.33366H14.6667ZM10.6667 8.667L10.3327 8.13875C9.52596 8.64889 8.67007 9.07684 7.7779 9.41615L8.00008 10.0003L8.22226 10.5845C9.19255 10.2155 10.1234 9.75006 11.0008 9.19524L10.6667 8.667ZM6.00008 8.00033V7.37533H2.66675V8.00033V8.62533H6.00008V8.00033ZM2.66675 8.00033C3.2817 8.11195 3.28168 8.11207 3.28166 8.11217C3.28165 8.1122 3.28164 8.1123 3.28163 8.11235C3.28161 8.11245 3.28159 8.11253 3.28159 8.11257C3.28157 8.11265 3.28158 8.11262 3.28161 8.11247C3.28166 8.11216 3.28181 8.11138 3.28204 8.11015C3.2825 8.10768 3.28332 8.10337 3.2845 8.09733C3.28686 8.08526 3.29066 8.06629 3.29594 8.04123C3.30652 7.99107 3.32299 7.91686 3.34576 7.82507C3.39153 7.64054 3.46157 7.38972 3.55846 7.12261C3.76739 6.54662 4.04546 6.05526 4.3476 5.85314L4.00008 5.33366L3.65257 4.81418C2.98804 5.25873 2.59944 6.10071 2.38337 6.69638C2.26776 7.0151 2.18571 7.3097 2.13253 7.52413C2.10582 7.63182 2.08609 7.72048 2.07284 7.78331C2.06621 7.81475 2.06118 7.83981 2.0577 7.85764C2.05596 7.86655 2.0546 7.87367 2.05362 7.87888C2.05313 7.88149 2.05273 7.88362 2.05243 7.88526C2.05228 7.88608 2.05215 7.88678 2.05204 7.88735C2.05199 7.88764 2.05194 7.8879 2.0519 7.88812C2.05188 7.88823 2.05186 7.88838 2.05185 7.88844C2.05182 7.88857 2.0518 7.8887 2.66675 8.00033ZM4.00008 5.33366L4.34677 5.85369C4.49802 5.75286 4.72711 5.68079 5.03438 5.65223C5.33626 5.62417 5.66996 5.64205 5.99186 5.68353C6.31129 5.7247 6.6026 5.78691 6.81483 5.83924C6.92039 5.86526 7.00501 5.88851 7.06213 5.9049C7.09067 5.91308 7.11225 5.91953 7.12605 5.92373C7.13295 5.92582 7.1379 5.92736 7.14079 5.92826C7.14223 5.92871 7.14317 5.929 7.14357 5.92913C7.14377 5.9292 7.14384 5.92922 7.14378 5.9292C7.14375 5.92919 7.14368 5.92917 7.14358 5.92914C7.14353 5.92912 7.14343 5.92909 7.14341 5.92908C7.1433 5.92905 7.14319 5.92901 7.33342 5.33366C7.52364 4.73831 7.52351 4.73827 7.52337 4.73823C7.52331 4.73821 7.52316 4.73816 7.52304 4.73812C7.5228 4.73805 7.52253 4.73796 7.52223 4.73786C7.52162 4.73767 7.52087 4.73743 7.51998 4.73715C7.51821 4.73659 7.5159 4.73587 7.51305 4.73498C7.50735 4.7332 7.49951 4.73078 7.48964 4.72778C7.46991 4.72178 7.44202 4.71346 7.40683 4.70336C7.33651 4.68319 7.23665 4.65581 7.11408 4.62559C6.87006 4.56542 6.53054 4.49262 6.15164 4.44379C5.7752 4.39527 5.34307 4.36815 4.9187 4.40759C4.49972 4.44654 4.04214 4.55447 3.65339 4.81363L4.00008 5.33366ZM8.00008 10.0003H7.37508V13.3337H8.00008H8.62508V10.0003H8.00008ZM8.00008 13.3337C8.11171 13.9486 8.11184 13.9486 8.11197 13.9486C8.11203 13.9486 8.11218 13.9485 8.11229 13.9485C8.11251 13.9485 8.11277 13.9484 8.11306 13.9484C8.11363 13.9483 8.11433 13.9481 8.11515 13.948C8.11679 13.9477 8.11892 13.9473 8.12153 13.9468C8.12674 13.9458 8.13386 13.9445 8.14277 13.9427C8.1606 13.9392 8.18566 13.9342 8.2171 13.9276C8.27993 13.9143 8.36859 13.8946 8.47628 13.8679C8.69071 13.8147 8.98531 13.7326 9.30403 13.617C9.8997 13.401 10.7417 13.0124 11.1862 12.3478L10.6667 12.0003L10.1473 11.6528C9.94515 11.955 9.45379 12.233 8.8778 12.442C8.61069 12.5388 8.35987 12.6089 8.17534 12.6546C8.08355 12.6774 8.00934 12.6939 7.95918 12.7045C7.93412 12.7098 7.91515 12.7135 7.90308 12.7159C7.89704 12.7171 7.89273 12.7179 7.89026 12.7184C7.88903 12.7186 7.88825 12.7187 7.88794 12.7188C7.88779 12.7188 7.88776 12.7188 7.88784 12.7188C7.88788 12.7188 7.88796 12.7188 7.88806 12.7188C7.88811 12.7188 7.88821 12.7188 7.88824 12.7188C7.88834 12.7187 7.88846 12.7187 8.00008 13.3337ZM10.6667 12.0003L11.1868 12.347C11.4459 11.9583 11.5539 11.5007 11.5928 11.0817C11.6323 10.6573 11.6051 10.2252 11.5566 9.84877C11.5078 9.46987 11.435 9.13035 11.3748 8.88633C11.3446 8.76376 11.3172 8.6639 11.297 8.59358C11.287 8.55839 11.2786 8.5305 11.2726 8.51077C11.2696 8.5009 11.2672 8.49306 11.2654 8.48736C11.2645 8.48451 11.2638 8.4822 11.2633 8.48043C11.263 8.47954 11.2627 8.47879 11.2625 8.47818C11.2624 8.47788 11.2624 8.4776 11.2623 8.47737C11.2622 8.47725 11.2622 8.4771 11.2622 8.47704C11.2621 8.4769 11.2621 8.47677 10.6667 8.667C10.0714 8.85722 10.0714 8.85711 10.0713 8.857C10.0713 8.85698 10.0713 8.85688 10.0713 8.85683C10.0712 8.85673 10.0712 8.85666 10.0712 8.85663C10.0712 8.85657 10.0712 8.85664 10.0713 8.85684C10.0714 8.85724 10.0717 8.85817 10.0722 8.85962C10.0731 8.86251 10.0746 8.86746 10.0767 8.87436C10.0809 8.88816 10.0873 8.90974 10.0955 8.93828C10.1119 8.9954 10.1351 9.08002 10.1612 9.18558C10.2135 9.39781 10.2757 9.68912 10.3169 10.0085C10.3584 10.3305 10.3762 10.6642 10.3482 10.966C10.3196 11.2733 10.2476 11.5024 10.1467 11.6536L10.6667 12.0003Z" fill="#313033"/>
</svg>
