<svg width="17" height="16" viewBox="0 0 17 16" fill="none" xmlns="http://www.w3.org/2000/svg">
<g clip-path="url(#clip0_356_9117)">
<path d="M3.49992 14.6668V11.3335M3.49992 4.66683V1.3335M1.83325 3.00016H5.16659M1.83325 13.0002H5.16659M9.16659 2.00016L8.01047 5.00607C7.82246 5.49489 7.72846 5.7393 7.58227 5.94489C7.45271 6.12709 7.29352 6.28629 7.11131 6.41585C6.90572 6.56203 6.66131 6.65604 6.17249 6.84404L3.16659 8.00016L6.17249 9.15628C6.66131 9.34429 6.90572 9.43829 7.11131 9.58448C7.29352 9.71404 7.45271 9.87323 7.58227 10.0554C7.72846 10.261 7.82246 10.5054 8.01047 10.9943L9.16659 14.0002L10.3227 10.9943C10.5107 10.5054 10.6047 10.261 10.7509 10.0554C10.8805 9.87323 11.0397 9.71404 11.2219 9.58448C11.4274 9.43829 11.6719 9.34429 12.1607 9.15628L15.1666 8.00016L12.1607 6.84404C11.6719 6.65604 11.4274 6.56203 11.2219 6.41585C11.0397 6.28629 10.8805 6.12709 10.7509 5.94489C10.6047 5.7393 10.5107 5.49489 10.3227 5.00607L9.16659 2.00016Z" stroke="#313033" stroke-width="1.41667" stroke-linecap="round"/>
</g>
<defs>
<clipPath id="clip0_356_9117">
<rect width="16" height="16" fill="white" transform="translate(0.5)"/>
</clipPath>
</defs>
</svg>
