<svg width="24" height="24" viewBox="0 0 24 24" fill="none" xmlns="http://www.w3.org/2000/svg">
<path d="M10.4132 20.018C10.4104 20.018 10.4072 20.018 10.4043 20.018C10.2881 20.0156 10.1784 19.9659 10.0997 19.8806L2.06247 11.1412C1.92465 10.9912 1.912 10.7653 2.03247 10.6008C2.15294 10.4367 2.37231 10.3805 2.557 10.4667L9.91309 13.9111C9.97497 13.9401 10.0481 13.9261 10.0954 13.8769L21.3164 2.1492C21.4682 1.9903 21.7167 1.97295 21.8892 2.10983C22.0617 2.2467 22.1015 2.49233 21.9811 2.67655L10.8192 19.7756C10.8032 19.8005 10.7845 19.823 10.7639 19.844L10.7147 19.8933C10.6345 19.973 10.5257 20.018 10.4132 20.018Z" fill="white"/>
</svg>
