<svg width="48" height="48" viewBox="0 0 48 48" fill="none" xmlns="http://www.w3.org/2000/svg">
<rect width="48" height="48" rx="24" fill="#12B76A"/>
<path d="M22.2387 32.8998C22.2356 32.8998 22.232 32.8998 22.2289 32.8998C22.0998 32.8972 21.9781 32.8421 21.8907 32.7474L12.9694 23.0467C12.8164 22.8802 12.8024 22.6294 12.9361 22.4468C13.0698 22.2647 13.3133 22.2022 13.5183 22.298L21.6836 26.1212C21.7522 26.1535 21.8334 26.1379 21.886 26.0832L34.3412 13.0655C34.5098 12.8892 34.7856 12.8699 34.977 13.0218C35.1685 13.1738 35.2127 13.4464 35.079 13.6509L22.6893 32.6308C22.6716 32.6584 22.6508 32.6834 22.6279 32.7068L22.5733 32.7614C22.4843 32.8499 22.3636 32.8998 22.2387 32.8998Z" fill="white"/>
</svg>
