<svg width="240" height="240" viewBox="0 0 240 240" fill="none" xmlns="http://www.w3.org/2000/svg">
<g filter="url(#filter0_f_356_13528)">
<path d="M120.386 200.429C143.989 200.429 163.123 196.25 163.123 191.095C163.123 185.94 143.989 181.761 120.386 181.761C96.7826 181.761 77.6484 185.94 77.6484 191.095C77.6484 196.25 96.7826 200.429 120.386 200.429Z" fill="#638353" fill-opacity="0.15"/>
</g>
<path d="M120.439 40C104.047 53.6239 82.9812 61.8188 60.0005 61.8188C60.0005 63.7616 60.0005 75.3493 60.0005 78.7039C60.0005 129.389 72.6423 161.534 120.439 191.188C168.236 161.534 180.877 129.389 180.877 78.7039C180.877 75.3493 180.877 63.7616 180.877 61.8188C157.897 61.8188 136.831 53.624 120.439 40Z" fill="url(#paint0_linear_356_13528)"/>
<path d="M60 61.8188C60 63.7616 60 75.3493 60 78.7039C60 129.389 72.6419 161.534 120.438 191.188V40C104.046 53.624 82.9807 61.8188 60 61.8188Z" fill="url(#paint1_linear_356_13528)"/>
<path d="M120.439 182.943C100.087 169.736 86.7088 155.917 78.5107 139.693C70.5249 123.888 66.9636 105.079 66.9636 78.7043V68.5421C86.2758 67.2091 104.887 60.3608 120.439 48.8479C135.991 60.3608 154.601 67.2091 173.914 68.5421V78.7043C173.914 105.079 170.353 123.888 162.367 139.693C154.169 155.917 140.79 169.736 120.439 182.943Z" fill="white"/>
<path d="M120.439 174.578C103.267 162.839 91.8625 150.677 84.7253 136.552C77.2571 121.772 73.9265 103.931 73.9265 78.7042V74.8469C90.5949 72.6932 106.482 66.7246 120.438 57.3649C134.395 66.7246 150.282 72.6932 166.95 74.8469V78.7042C166.95 103.931 163.62 121.772 156.152 136.552C149.015 150.677 137.61 162.839 120.439 174.578Z" fill="url(#paint2_linear_356_13528)"/>
<path d="M73.9277 74.8469V78.7042C73.9277 103.931 77.2583 121.772 84.7265 136.552C91.8637 150.677 103.268 162.839 120.44 174.578V57.3649C106.483 66.7246 90.5961 72.6932 73.9277 74.8469Z" fill="url(#paint3_linear_356_13528)"/>
<path d="M173.916 68.5424L120.441 113.137L106.836 99.5314L97.3018 109.066L120.441 132.205L173.916 68.5424Z" fill="white"/>
<defs>
<filter id="filter0_f_356_13528" x="71.3382" y="175.451" width="98.0953" height="31.2885" filterUnits="userSpaceOnUse" color-interpolation-filters="sRGB">
<feFlood flood-opacity="0" result="BackgroundImageFix"/>
<feBlend mode="normal" in="SourceGraphic" in2="BackgroundImageFix" result="shape"/>
<feGaussianBlur stdDeviation="3.15511" result="effect1_foregroundBlur_356_13528"/>
</filter>
<linearGradient id="paint0_linear_356_13528" x1="71.3243" y1="50.495" x2="169.554" y2="148.724" gradientUnits="userSpaceOnUse">
<stop stop-color="#AFFF55"/>
<stop offset="0.998" stop-color="#05690F"/>
</linearGradient>
<linearGradient id="paint1_linear_356_13528" x1="61.6689" y1="60.1499" x2="156.573" y2="155.054" gradientUnits="userSpaceOnUse">
<stop stop-color="#AFFF55"/>
<stop offset="0.1141" stop-color="#A6F751"/>
<stop offset="0.3003" stop-color="#8EE247"/>
<stop offset="0.5353" stop-color="#66BF37"/>
<stop offset="0.8073" stop-color="#308E20"/>
<stop offset="0.998" stop-color="#05690F"/>
</linearGradient>
<linearGradient id="paint2_linear_356_13528" x1="82.9846" y1="65.7889" x2="157.892" y2="140.697" gradientUnits="userSpaceOnUse">
<stop stop-color="#AFFF55"/>
<stop offset="0.998" stop-color="#05690F"/>
</linearGradient>
<linearGradient id="paint3_linear_356_13528" x1="75.7283" y1="73.0463" x2="148.85" y2="146.168" gradientUnits="userSpaceOnUse">
<stop stop-color="#AFFF55"/>
<stop offset="0.1141" stop-color="#A6F751"/>
<stop offset="0.3003" stop-color="#8EE247"/>
<stop offset="0.5353" stop-color="#66BF37"/>
<stop offset="0.8073" stop-color="#308E20"/>
<stop offset="0.998" stop-color="#05690F"/>
</linearGradient>
</defs>
</svg>
