<svg width="20" height="20" viewBox="0 0 20 20" fill="none" xmlns="http://www.w3.org/2000/svg">
<g clip-path="url(#clip0_376_8120)">
<path d="M20.0003 10.2086C20.0003 4.6859 15.5231 0.20874 10.0004 0.20874C4.47764 0.20874 0.000488281 4.6859 0.000488281 10.2086C0.000488281 14.8982 3.22926 18.8334 7.58481 19.9141V13.2646H5.52283V10.2086H7.58481V8.89186C7.58481 5.48829 9.1252 3.9107 12.4668 3.9107C13.1004 3.9107 14.1935 4.0351 14.6407 4.1591V6.92907C14.4047 6.90427 13.9948 6.89187 13.4856 6.89187C11.846 6.89187 11.2124 7.51307 11.2124 9.12785V10.2086H14.4787L13.9176 13.2646H11.2124V20.1353C16.1631 19.5374 20.0003 15.3214 20.0003 10.2086Z" fill="white"/>
</g>
<defs>
<clipPath id="clip0_376_8120">
<rect width="19.9998" height="19.9998" fill="white" transform="translate(0.000488281)"/>
</clipPath>
</defs>
</svg>
