<svg width="20" height="20" viewBox="0 0 20 20" fill="none" xmlns="http://www.w3.org/2000/svg">
<g clip-path="url(#clip0_356_8557)">
<path d="M19.9998 10.2086C19.9998 4.6859 15.5226 0.20874 9.9999 0.20874C4.47716 0.20874 0 4.6859 0 10.2086C0 14.8982 3.22877 18.8334 7.58432 19.9141V13.2646H5.52235V10.2086H7.58432V8.89186C7.58432 5.48829 9.12471 3.9107 12.4663 3.9107C13.0999 3.9107 14.1931 4.0351 14.6403 4.1591V6.92907C14.4043 6.90427 13.9943 6.89187 13.4851 6.89187C11.8455 6.89187 11.2119 7.51307 11.2119 9.12785V10.2086H14.4783L13.9171 13.2646H11.2119V20.1353C16.1626 19.5374 19.9998 15.3214 19.9998 10.2086Z" fill="#313033"/>
</g>
<defs>
<clipPath id="clip0_356_8557">
<rect width="19.9998" height="19.9998" fill="white"/>
</clipPath>
</defs>
</svg>
