<svg width="20" height="20" viewBox="0 0 20 20" fill="none" xmlns="http://www.w3.org/2000/svg">
<g clip-path="url(#clip0_376_8123)">
<path d="M10.0008 -0.000244141C7.285 -0.000244141 6.94417 0.0116311 5.8775 0.0601728C4.81292 0.108923 4.08625 0.277465 3.45042 0.524756C2.79271 0.780173 2.23479 1.12184 1.67896 1.67788C1.12271 2.23372 0.781042 2.79163 0.524792 3.44913C0.276875 4.08518 0.108125 4.81205 0.0602083 5.87622C0.0124999 6.94289 0 7.28393 0 9.99977C0 12.7156 0.0120835 13.0554 0.0604169 14.1221C0.109375 15.1866 0.277917 15.9133 0.525 16.5491C0.780625 17.2069 1.12229 17.7648 1.67833 18.3206C2.23396 18.8769 2.79188 19.2194 3.44917 19.4748C4.08542 19.7221 4.81229 19.8906 5.87667 19.9394C6.94334 19.9879 7.28396 19.9998 9.99959 19.9998C12.7156 19.9998 13.0554 19.9879 14.1221 19.9394C15.1867 19.8906 15.9142 19.7221 16.5504 19.4748C17.2079 19.2194 17.765 18.8769 18.3206 18.3206C18.8769 17.7648 19.2185 17.2069 19.4748 16.5494C19.7206 15.9133 19.8894 15.1864 19.9394 14.1223C19.9873 13.0556 19.9998 12.7156 19.9998 9.99977C19.9998 7.28393 19.9873 6.9431 19.9394 5.87643C19.8894 4.81184 19.7206 4.08518 19.4748 3.44934C19.2185 2.79163 18.8769 2.23372 18.3206 1.67788C17.7644 1.12163 17.2081 0.779965 16.5498 0.524756C15.9123 0.277465 15.1852 0.108923 14.1206 0.0601728C13.054 0.0116311 12.7144 -0.000244141 9.99771 -0.000244141H10.0008ZM9.10375 1.80184C9.37 1.80142 9.66709 1.80184 10.0008 1.80184C12.6708 1.80184 12.9873 1.81142 14.0417 1.85934C15.0167 1.90392 15.5458 2.06684 15.8983 2.20372C16.365 2.38497 16.6977 2.60163 17.0475 2.95163C17.3975 3.30163 17.6142 3.63497 17.7958 4.10163C17.9327 4.45372 18.0958 4.98289 18.1402 5.95789C18.1881 7.01205 18.1985 7.32872 18.1985 9.99747C18.1985 12.6662 18.1881 12.9829 18.1402 14.0371C18.0956 15.0121 17.9327 15.5412 17.7958 15.8933C17.6146 16.36 17.3975 16.6923 17.0475 17.0421C16.6975 17.3921 16.3652 17.6087 15.8983 17.79C15.5463 17.9275 15.0167 18.09 14.0417 18.1346C12.9875 18.1825 12.6708 18.1929 10.0008 18.1929C7.33063 18.1929 7.01417 18.1825 5.96 18.1346C4.985 18.0896 4.45584 17.9266 4.10313 17.7898C3.63646 17.6085 3.30313 17.3919 2.95313 17.0419C2.60313 16.6919 2.38646 16.3594 2.20479 15.8925C2.06792 15.5404 1.90479 15.0112 1.86042 14.0362C1.8125 12.9821 1.80292 12.6654 1.80292 9.99497C1.80292 7.32455 1.8125 7.00955 1.86042 5.95539C1.905 4.98039 2.06792 4.45122 2.20479 4.09872C2.38604 3.63205 2.60313 3.29872 2.95313 2.94872C3.30313 2.59872 3.63646 2.38205 4.10313 2.20038C4.45563 2.06288 4.985 1.90038 5.96 1.85559C6.8825 1.81392 7.24 1.80142 9.10375 1.79934V1.80184ZM15.3388 3.46226C14.6763 3.46226 14.1388 3.99913 14.1388 4.66184C14.1388 5.32434 14.6763 5.86185 15.3388 5.86185C16.0013 5.86185 16.5388 5.32434 16.5388 4.66184C16.5388 3.99934 16.0013 3.46184 15.3388 3.46184V3.46226ZM10.0008 4.86434C7.16479 4.86434 4.86542 7.16372 4.86542 9.99977C4.86542 12.8358 7.16479 15.1341 10.0008 15.1341C12.8369 15.1341 15.1354 12.8358 15.1354 9.99977C15.1354 7.16372 12.8369 4.86434 10.0008 4.86434ZM10.0008 6.66643C11.8417 6.66643 13.3342 8.15872 13.3342 9.99977C13.3342 11.8406 11.8417 13.3331 10.0008 13.3331C8.15979 13.3331 6.6675 11.8406 6.6675 9.99977C6.6675 8.15872 8.15979 6.66643 10.0008 6.66643Z" fill="white"/>
</g>
<defs>
<clipPath id="clip0_376_8123">
<rect width="20.0004" height="19.9998" fill="white" transform="translate(0.000244141)"/>
</clipPath>
</defs>
</svg>
