<svg width="20" height="20" viewBox="0 0 20 20" fill="none" xmlns="http://www.w3.org/2000/svg">
<g clip-path="url(#clip0_356_8560)">
<path d="M10.0008 -0.00012207C7.285 -0.00012207 6.94417 0.0117531 5.8775 0.0602948C4.81292 0.109045 4.08625 0.277587 3.45042 0.524879C2.79271 0.780295 2.23479 1.12196 1.67896 1.678C1.12271 2.23384 0.781042 2.79176 0.524792 3.44926C0.276875 4.0853 0.108125 4.81217 0.0602083 5.87634C0.0124999 6.94301 0 7.28405 0 9.99989C0 12.7157 0.0120835 13.0555 0.0604169 14.1222C0.109375 15.1868 0.277917 15.9134 0.525 16.5493C0.780625 17.207 1.12229 17.7649 1.67833 18.3207C2.23396 18.877 2.79188 19.2195 3.44917 19.4749C4.08542 19.7222 4.81229 19.8907 5.87667 19.9395C6.94334 19.988 7.28396 19.9999 9.99959 19.9999C12.7156 19.9999 13.0554 19.988 14.1221 19.9395C15.1867 19.8907 15.9142 19.7222 16.5504 19.4749C17.2079 19.2195 17.765 18.877 18.3206 18.3207C18.8769 17.7649 19.2186 17.207 19.4748 16.5495C19.7206 15.9134 19.8894 15.1866 19.9394 14.1224C19.9873 13.0557 19.9998 12.7157 19.9998 9.99989C19.9998 7.28405 19.9873 6.94322 19.9394 5.87655C19.8894 4.81197 19.7206 4.0853 19.4748 3.44946C19.2186 2.79176 18.8769 2.23384 18.3206 1.678C17.7644 1.12175 17.2081 0.780087 16.5498 0.524879C15.9123 0.277587 15.1852 0.109045 14.1206 0.0602948C13.054 0.0117531 12.7144 -0.00012207 9.99771 -0.00012207H10.0008ZM9.10375 1.80196C9.37 1.80155 9.66709 1.80196 10.0008 1.80196C12.6708 1.80196 12.9873 1.81155 14.0417 1.85946C15.0167 1.90405 15.5458 2.06696 15.8983 2.20384C16.365 2.38509 16.6977 2.60176 17.0475 2.95176C17.3975 3.30176 17.6142 3.63509 17.7958 4.10176C17.9327 4.45384 18.0958 4.98301 18.1402 5.95801C18.1881 7.01218 18.1985 7.32884 18.1985 9.9976C18.1985 12.6663 18.1881 12.983 18.1402 14.0372C18.0956 15.0122 17.9327 15.5414 17.7958 15.8934C17.6146 16.3601 17.3975 16.6924 17.0475 17.0422C16.6975 17.3922 16.3652 17.6089 15.8983 17.7901C15.5463 17.9276 15.0167 18.0901 14.0417 18.1347C12.9875 18.1826 12.6708 18.193 10.0008 18.193C7.33063 18.193 7.01417 18.1826 5.96 18.1347C4.985 18.0897 4.45584 17.9268 4.10313 17.7899C3.63646 17.6086 3.30313 17.392 2.95313 17.042C2.60313 16.692 2.38646 16.3595 2.20479 15.8926C2.06792 15.5405 1.90479 15.0114 1.86042 14.0363C1.8125 12.9822 1.80292 12.6655 1.80292 9.9951C1.80292 7.32468 1.8125 7.00968 1.86042 5.95551C1.905 4.98051 2.06792 4.45134 2.20479 4.09884C2.38604 3.63217 2.60313 3.29884 2.95313 2.94884C3.30313 2.59884 3.63646 2.38217 4.10313 2.20051C4.45563 2.063 4.985 1.9005 5.96 1.85571C6.8825 1.81405 7.24 1.80155 9.10375 1.79946V1.80196ZM15.3388 3.46238C14.6763 3.46238 14.1388 3.99926 14.1388 4.66197C14.1388 5.32447 14.6763 5.86197 15.3388 5.86197C16.0013 5.86197 16.5388 5.32447 16.5388 4.66197C16.5388 3.99946 16.0013 3.46196 15.3388 3.46196V3.46238ZM10.0008 4.86447C7.16479 4.86447 4.86542 7.16384 4.86542 9.99989C4.86542 12.8359 7.16479 15.1343 10.0008 15.1343C12.8369 15.1343 15.1354 12.8359 15.1354 9.99989C15.1354 7.16384 12.8369 4.86447 10.0008 4.86447ZM10.0008 6.66655C11.8417 6.66655 13.3342 8.15884 13.3342 9.99989C13.3342 11.8407 11.8417 13.3332 10.0008 13.3332C8.1598 13.3332 6.6675 11.8407 6.6675 9.99989C6.6675 8.15884 8.1598 6.66655 10.0008 6.66655Z" fill="#313033"/>
</g>
<defs>
<clipPath id="clip0_356_8560">
<rect width="20.0004" height="19.9998" fill="white"/>
</clipPath>
</defs>
</svg>
