<svg width="20" height="20" viewBox="0 0 20 20" fill="none" xmlns="http://www.w3.org/2000/svg">
<g clip-path="url(#clip0_376_8126)">
<path d="M18.3809 0.20874C19.1399 0.20874 19.8095 0.878376 19.8095 1.68194V18.78C19.8095 19.5835 19.1399 20.2085 18.3809 20.2085H1.19361C0.434686 20.2085 -0.190308 19.5835 -0.190308 18.78V1.68194C-0.190308 0.878376 0.434686 0.20874 1.19361 0.20874H18.3809ZM5.83642 17.3514V7.84259H2.89002V17.3514H5.83642ZM4.36322 6.50332C5.30071 6.50332 6.05963 5.7444 6.05963 4.80691C6.05963 3.86942 5.30071 3.06585 4.36322 3.06585C3.38109 3.06585 2.62216 3.86942 2.62216 4.80691C2.62216 5.7444 3.38109 6.50332 4.36322 6.50332ZM16.9524 17.3514V12.1283C16.9524 9.58365 16.372 7.57474 13.381 7.57474C11.9524 7.57474 10.9703 8.3783 10.5685 9.13722H10.5239V7.84259H7.7114V17.3514H10.6578V12.664C10.6578 11.414 10.881 10.2086 12.4435 10.2086C13.9613 10.2086 13.9613 11.6372 13.9613 12.7086V17.3514H16.9524Z" fill="white"/>
</g>
<defs>
<clipPath id="clip0_376_8126">
<rect x="0.000732422" width="19.9998" height="19.9998" rx="4" fill="white"/>
</clipPath>
</defs>
</svg>
