<svg width="20" height="20" viewBox="0 0 20 20" fill="none" xmlns="http://www.w3.org/2000/svg">
<g clip-path="url(#clip0_356_8563)">
<path d="M18.3798 0.20874C19.1388 0.20874 19.8084 0.878376 19.8084 1.68194V18.78C19.8084 19.5835 19.1388 20.2085 18.3798 20.2085H1.19251C0.433588 20.2085 -0.191406 19.5835 -0.191406 18.78V1.68194C-0.191406 0.878376 0.433588 0.20874 1.19251 0.20874H18.3798ZM5.83532 17.3514V7.84259H2.88892V17.3514H5.83532ZM4.36212 6.50332C5.29961 6.50332 6.05853 5.7444 6.05853 4.80691C6.05853 3.86942 5.29961 3.06585 4.36212 3.06585C3.37999 3.06585 2.62107 3.86942 2.62107 4.80691C2.62107 5.7444 3.37999 6.50332 4.36212 6.50332ZM16.9513 17.3514V12.1283C16.9513 9.58365 16.3709 7.57474 13.3799 7.57474C11.9513 7.57474 10.9692 8.3783 10.5674 9.13722H10.5228V7.84259H7.7103V17.3514H10.6567V12.664C10.6567 11.414 10.8799 10.2086 12.4424 10.2086C13.9602 10.2086 13.9602 11.6372 13.9602 12.7086V17.3514H16.9513Z" fill="#313033"/>
</g>
<defs>
<clipPath id="clip0_356_8563">
<rect width="19.9998" height="19.9998" rx="4" fill="white"/>
</clipPath>
</defs>
</svg>
