<svg width="20" height="20" viewBox="0 0 20 20" fill="none" xmlns="http://www.w3.org/2000/svg">
<g clip-path="url(#clip0_376_8135)">
<path d="M16.7756 3.15514C18.6506 5.03012 19.8113 7.48545 19.8113 10.164C19.8113 15.6104 15.2578 20.0746 9.76678 20.0746C8.11501 20.0746 6.50789 19.6282 5.03469 18.8693L-0.188477 20.2085L1.19544 15.0747C0.347232 13.6015 -0.143834 11.9051 -0.143834 10.1194C-0.143834 4.67298 4.32041 0.20874 9.76678 0.20874C12.4453 0.20874 14.9453 1.28016 16.7756 3.15514ZM9.76678 18.3782C14.3203 18.3782 18.1149 14.6729 18.1149 10.164C18.1149 7.93188 17.1774 5.87833 15.6149 4.31584C14.0525 2.75336 11.9989 1.90515 9.81142 1.90515C5.2579 1.90515 1.55258 5.61047 1.55258 10.1194C1.55258 11.6818 1.999 13.1997 2.80257 14.539L3.02578 14.8515L2.17757 17.8871L5.30254 17.0389L5.57039 17.2175C6.86502 17.9764 8.29358 18.3782 9.76678 18.3782ZM14.3203 12.2175C14.5435 12.3515 14.7221 12.3961 14.7667 12.53C14.856 12.6193 14.856 13.1104 14.6328 13.6907C14.4096 14.2711 13.4275 14.8068 12.981 14.8515C12.1775 14.9854 11.5525 14.9407 9.98999 14.2265C7.49002 13.155 5.88289 10.6551 5.74896 10.5211C5.61504 10.3426 4.76683 9.18186 4.76683 7.93188C4.76683 6.72653 5.39182 6.14618 5.61504 5.87833C5.83825 5.61047 6.1061 5.56583 6.28467 5.56583C6.4186 5.56583 6.59717 5.56583 6.7311 5.56583C6.90967 5.56583 7.08824 5.52119 7.31145 6.01225C7.49002 6.50332 8.02573 7.70867 8.07037 7.84259C8.11501 7.97652 8.15965 8.11045 8.07037 8.28902C7.62395 9.22651 7.08824 9.18186 7.35609 9.62829C8.33822 11.2801 9.27571 11.8604 10.7489 12.5747C10.9721 12.7086 11.1061 12.664 11.2846 12.53C11.4186 12.3515 11.9096 11.7711 12.0435 11.5479C12.2221 11.2801 12.4007 11.3247 12.6239 11.414C12.8471 11.5033 14.0525 12.0836 14.3203 12.2175Z" fill="white"/>
</g>
<defs>
<clipPath id="clip0_376_8135">
<rect width="19.9998" height="19.9998" fill="white"/>
</clipPath>
</defs>
</svg>
