<svg width="20" height="20" viewBox="0 0 20 20" fill="none" xmlns="http://www.w3.org/2000/svg">
<path d="M19.5607 4.93907C19.9994 6.4747 19.9994 9.76535 19.9994 9.76535C19.9994 9.76535 19.9994 13.0194 19.5607 14.5916C19.3413 15.4691 18.6466 16.1273 17.8057 16.3466C16.2335 16.7488 10.0178 16.7488 10.0178 16.7488C10.0178 16.7488 3.76559 16.7488 2.1934 16.3466C1.35245 16.1273 0.657763 15.4691 0.438386 14.5916C-0.000366211 13.0194 -0.000366211 9.76535 -0.000366211 9.76535C-0.000366211 9.76535 -0.000366211 6.4747 0.438386 4.93907C0.657763 4.06156 1.35245 3.36687 2.1934 3.14749C3.76559 2.70874 10.0178 2.70874 10.0178 2.70874C10.0178 2.70874 16.2335 2.70874 17.8057 3.14749C18.6466 3.36687 19.3413 4.06156 19.5607 4.93907ZM7.9703 12.7269L13.1622 9.76535L7.9703 6.80377V12.7269Z" fill="white"/>
</svg>
